G04 #@! TF.GenerationSoftware,KiCad,Pcbnew,7.0.10*
G04 #@! TF.CreationDate,2024-08-03T14:28:38+12:00*
G04 #@! TF.ProjectId,Z80 Bus Adapter,5a383020-4275-4732-9041-646170746572,rev?*
G04 #@! TF.SameCoordinates,Original*
G04 #@! TF.FileFunction,Soldermask,Top*
G04 #@! TF.FilePolarity,Negative*
%FSLAX46Y46*%
G04 Gerber Fmt 4.6, Leading zero omitted, Abs format (unit mm)*
G04 Created by KiCad (PCBNEW 7.0.10) date 2024-08-03 14:28:38*
%MOMM*%
%LPD*%
G01*
G04 APERTURE LIST*
%ADD10R,1.700000X1.700000*%
%ADD11O,1.700000X1.700000*%
G04 APERTURE END LIST*
D10*
X110236000Y-38354000D03*
D11*
X112776000Y-38354000D03*
D10*
X111252000Y-62230000D03*
X120650000Y-41910000D03*
D11*
X123190000Y-41910000D03*
X120650000Y-44450000D03*
X123190000Y-44450000D03*
X120650000Y-46990000D03*
X123190000Y-46990000D03*
X120650000Y-49530000D03*
X123190000Y-49530000D03*
X120650000Y-52070000D03*
X123190000Y-52070000D03*
X120650000Y-54610000D03*
X123190000Y-54610000D03*
X120650000Y-57150000D03*
X123190000Y-57150000D03*
X120650000Y-59690000D03*
X123190000Y-59690000D03*
X120650000Y-62230000D03*
X123190000Y-62230000D03*
X120650000Y-64770000D03*
X123190000Y-64770000D03*
X120650000Y-67310000D03*
X123190000Y-67310000D03*
X120650000Y-69850000D03*
X123190000Y-69850000D03*
X120650000Y-72390000D03*
X123190000Y-72390000D03*
X120650000Y-74930000D03*
X123190000Y-74930000D03*
X120650000Y-77470000D03*
X123190000Y-77470000D03*
X120650000Y-80010000D03*
X123190000Y-80010000D03*
X120650000Y-82550000D03*
X123190000Y-82550000D03*
X120650000Y-85090000D03*
X123190000Y-85090000D03*
X120650000Y-87630000D03*
X123190000Y-87630000D03*
X120650000Y-90170000D03*
X123190000Y-90170000D03*
D10*
X100584000Y-90170000D03*
D11*
X98044000Y-90170000D03*
X100584000Y-87630000D03*
X98044000Y-87630000D03*
X100584000Y-85090000D03*
X98044000Y-85090000D03*
X100584000Y-82550000D03*
X98044000Y-82550000D03*
X100584000Y-80010000D03*
X98044000Y-80010000D03*
X100584000Y-77470000D03*
X98044000Y-77470000D03*
X100584000Y-74930000D03*
X98044000Y-74930000D03*
X100584000Y-72390000D03*
X98044000Y-72390000D03*
X100584000Y-69850000D03*
X98044000Y-69850000D03*
X100584000Y-67310000D03*
X98044000Y-67310000D03*
X100584000Y-64770000D03*
X98044000Y-64770000D03*
X100584000Y-62230000D03*
X98044000Y-62230000D03*
X100584000Y-59690000D03*
X98044000Y-59690000D03*
X100584000Y-57150000D03*
X98044000Y-57150000D03*
X100584000Y-54610000D03*
X98044000Y-54610000D03*
X100584000Y-52070000D03*
X98044000Y-52070000D03*
X100584000Y-49530000D03*
X98044000Y-49530000D03*
X100584000Y-46990000D03*
X98044000Y-46990000D03*
X100584000Y-44450000D03*
X98044000Y-44450000D03*
X100584000Y-41910000D03*
X98044000Y-41910000D03*
M02*
