G04 #@! TF.GenerationSoftware,KiCad,Pcbnew,7.0.10*
G04 #@! TF.CreationDate,2024-08-03T14:28:38+12:00*
G04 #@! TF.ProjectId,Z80 Bus Adapter,5a383020-4275-4732-9041-646170746572,rev?*
G04 #@! TF.SameCoordinates,Original*
G04 #@! TF.FileFunction,Copper,L1,Top*
G04 #@! TF.FilePolarity,Positive*
%FSLAX46Y46*%
G04 Gerber Fmt 4.6, Leading zero omitted, Abs format (unit mm)*
G04 Created by KiCad (PCBNEW 7.0.10) date 2024-08-03 14:28:38*
%MOMM*%
%LPD*%
G01*
G04 APERTURE LIST*
G04 #@! TA.AperFunction,ComponentPad*
%ADD10R,1.700000X1.700000*%
G04 #@! TD*
G04 #@! TA.AperFunction,ComponentPad*
%ADD11O,1.700000X1.700000*%
G04 #@! TD*
G04 #@! TA.AperFunction,ViaPad*
%ADD12C,0.800000*%
G04 #@! TD*
G04 #@! TA.AperFunction,Conductor*
%ADD13C,0.250000*%
G04 #@! TD*
G04 #@! TA.AperFunction,Conductor*
%ADD14C,0.400000*%
G04 #@! TD*
G04 APERTURE END LIST*
D10*
X110236000Y-38354000D03*
D11*
X112776000Y-38354000D03*
D10*
X111252000Y-62230000D03*
X120650000Y-41910000D03*
D11*
X123190000Y-41910000D03*
X120650000Y-44450000D03*
X123190000Y-44450000D03*
X120650000Y-46990000D03*
X123190000Y-46990000D03*
X120650000Y-49530000D03*
X123190000Y-49530000D03*
X120650000Y-52070000D03*
X123190000Y-52070000D03*
X120650000Y-54610000D03*
X123190000Y-54610000D03*
X120650000Y-57150000D03*
X123190000Y-57150000D03*
X120650000Y-59690000D03*
X123190000Y-59690000D03*
X120650000Y-62230000D03*
X123190000Y-62230000D03*
X120650000Y-64770000D03*
X123190000Y-64770000D03*
X120650000Y-67310000D03*
X123190000Y-67310000D03*
X120650000Y-69850000D03*
X123190000Y-69850000D03*
X120650000Y-72390000D03*
X123190000Y-72390000D03*
X120650000Y-74930000D03*
X123190000Y-74930000D03*
X120650000Y-77470000D03*
X123190000Y-77470000D03*
X120650000Y-80010000D03*
X123190000Y-80010000D03*
X120650000Y-82550000D03*
X123190000Y-82550000D03*
X120650000Y-85090000D03*
X123190000Y-85090000D03*
X120650000Y-87630000D03*
X123190000Y-87630000D03*
X120650000Y-90170000D03*
X123190000Y-90170000D03*
D10*
X100584000Y-90170000D03*
D11*
X98044000Y-90170000D03*
X100584000Y-87630000D03*
X98044000Y-87630000D03*
X100584000Y-85090000D03*
X98044000Y-85090000D03*
X100584000Y-82550000D03*
X98044000Y-82550000D03*
X100584000Y-80010000D03*
X98044000Y-80010000D03*
X100584000Y-77470000D03*
X98044000Y-77470000D03*
X100584000Y-74930000D03*
X98044000Y-74930000D03*
X100584000Y-72390000D03*
X98044000Y-72390000D03*
X100584000Y-69850000D03*
X98044000Y-69850000D03*
X100584000Y-67310000D03*
X98044000Y-67310000D03*
X100584000Y-64770000D03*
X98044000Y-64770000D03*
X100584000Y-62230000D03*
X98044000Y-62230000D03*
X100584000Y-59690000D03*
X98044000Y-59690000D03*
X100584000Y-57150000D03*
X98044000Y-57150000D03*
X100584000Y-54610000D03*
X98044000Y-54610000D03*
X100584000Y-52070000D03*
X98044000Y-52070000D03*
X100584000Y-49530000D03*
X98044000Y-49530000D03*
X100584000Y-46990000D03*
X98044000Y-46990000D03*
X100584000Y-44450000D03*
X98044000Y-44450000D03*
X100584000Y-41910000D03*
X98044000Y-41910000D03*
D12*
X117602000Y-41910000D03*
X117602000Y-89154000D03*
X116840000Y-86868000D03*
X116840000Y-44450000D03*
X116078000Y-46990000D03*
X116078000Y-84365000D03*
X115316000Y-81788000D03*
X115316000Y-49530000D03*
X114554000Y-79248000D03*
X114554000Y-52070000D03*
X113792000Y-76708000D03*
X113792000Y-54610000D03*
X113157000Y-74205000D03*
X113030000Y-57150000D03*
X112268000Y-71374000D03*
X112776000Y-59690000D03*
X110998000Y-64770000D03*
X118872000Y-64008000D03*
X110490000Y-69088000D03*
X112014000Y-64770000D03*
X112014000Y-66548000D03*
X108966000Y-58420000D03*
X109220000Y-72390000D03*
X108204000Y-55880000D03*
X107677500Y-74911500D03*
X107442000Y-77470000D03*
X107442000Y-53340000D03*
X106680000Y-80010000D03*
X106680000Y-50800000D03*
X105918000Y-48260000D03*
X105918000Y-82550000D03*
X105156000Y-85090000D03*
X105156000Y-45720000D03*
X104394000Y-43180000D03*
X104394000Y-87630000D03*
X103632000Y-40640000D03*
X103632000Y-90170000D03*
X109474000Y-60452000D03*
X109982000Y-67310000D03*
D13*
X117602000Y-89154000D02*
X102870000Y-89154000D01*
X102870000Y-89154000D02*
X101854000Y-90170000D01*
X120650000Y-41910000D02*
X117602000Y-41910000D01*
X101854000Y-90170000D02*
X100584000Y-90170000D01*
X98044000Y-90170000D02*
X99314000Y-91440000D01*
X99314000Y-91440000D02*
X121920000Y-91440000D01*
X121920000Y-91440000D02*
X123190000Y-90170000D01*
X102616000Y-86868000D02*
X101854000Y-87630000D01*
X101854000Y-87630000D02*
X100584000Y-87630000D01*
X116840000Y-86868000D02*
X102616000Y-86868000D01*
X116840000Y-44450000D02*
X120650000Y-44450000D01*
X121920000Y-88900000D02*
X119380000Y-88900000D01*
X123190000Y-87630000D02*
X121920000Y-88900000D01*
X101854000Y-88900000D02*
X99314000Y-88900000D01*
X99314000Y-88900000D02*
X98044000Y-87630000D01*
X102362000Y-88392000D02*
X101854000Y-88900000D01*
X118872000Y-88392000D02*
X102362000Y-88392000D01*
X119380000Y-88900000D02*
X118872000Y-88392000D01*
X101854000Y-85090000D02*
X100584000Y-85090000D01*
X116078000Y-46990000D02*
X120650000Y-46990000D01*
X102579000Y-84365000D02*
X101854000Y-85090000D01*
X116078000Y-84365000D02*
X102579000Y-84365000D01*
X101854000Y-82550000D02*
X102616000Y-81788000D01*
X115316000Y-49530000D02*
X120650000Y-49530000D01*
X102616000Y-81788000D02*
X115316000Y-81788000D01*
X101854000Y-82550000D02*
X100584000Y-82550000D01*
X101854000Y-83820000D02*
X99314000Y-83820000D01*
X102362000Y-83312000D02*
X101854000Y-83820000D01*
X123190000Y-82550000D02*
X121920000Y-83820000D01*
X119380000Y-83820000D02*
X118872000Y-83312000D01*
X118872000Y-83312000D02*
X102362000Y-83312000D01*
X99314000Y-83820000D02*
X98044000Y-82550000D01*
X121920000Y-83820000D02*
X119380000Y-83820000D01*
X114554000Y-52070000D02*
X120650000Y-52070000D01*
X102616000Y-79248000D02*
X101854000Y-80010000D01*
X101854000Y-80010000D02*
X100584000Y-80010000D01*
X114554000Y-79248000D02*
X102616000Y-79248000D01*
X101795850Y-81280000D02*
X99314000Y-81280000D01*
X102303850Y-80772000D02*
X101795850Y-81280000D01*
X121920000Y-81280000D02*
X119380000Y-81280000D01*
X119380000Y-81280000D02*
X118872000Y-80772000D01*
X99314000Y-81280000D02*
X98044000Y-80010000D01*
X118872000Y-80772000D02*
X102303850Y-80772000D01*
X123190000Y-80010000D02*
X121920000Y-81280000D01*
X101854000Y-78740000D02*
X99314000Y-78740000D01*
X99314000Y-78740000D02*
X98044000Y-77470000D01*
X102362000Y-78232000D02*
X101854000Y-78740000D01*
X121920000Y-78740000D02*
X119380000Y-78740000D01*
X119380000Y-78740000D02*
X118872000Y-78232000D01*
X118872000Y-78232000D02*
X102362000Y-78232000D01*
X123190000Y-77470000D02*
X121920000Y-78740000D01*
X102362000Y-75692000D02*
X101854000Y-76200000D01*
X123190000Y-74930000D02*
X121920000Y-76200000D01*
X101854000Y-76200000D02*
X99314000Y-76200000D01*
X119380000Y-76200000D02*
X118872000Y-75692000D01*
X121920000Y-76200000D02*
X119380000Y-76200000D01*
X118872000Y-75692000D02*
X102362000Y-75692000D01*
X99314000Y-76200000D02*
X98044000Y-74930000D01*
X99314000Y-71120000D02*
X98044000Y-69850000D01*
X121920000Y-71120000D02*
X119380000Y-71120000D01*
X123190000Y-69850000D02*
X121920000Y-71120000D01*
X119380000Y-71120000D02*
X118110000Y-69850000D01*
X101854000Y-71120000D02*
X99314000Y-71120000D01*
X103124000Y-69850000D02*
X101854000Y-71120000D01*
X118110000Y-69850000D02*
X103124000Y-69850000D01*
X101854000Y-68580000D02*
X99314000Y-68580000D01*
X123190000Y-67310000D02*
X122682000Y-67310000D01*
X99314000Y-68580000D02*
X98044000Y-67310000D01*
X122682000Y-67310000D02*
X121412000Y-68580000D01*
X121412000Y-68580000D02*
X119380000Y-68580000D01*
X118872000Y-68072000D02*
X102362000Y-68072000D01*
X102362000Y-68072000D02*
X101854000Y-68580000D01*
X119380000Y-68580000D02*
X118872000Y-68072000D01*
X99219000Y-65945000D02*
X101949000Y-65945000D01*
X102108000Y-65786000D02*
X119126000Y-65786000D01*
X119126000Y-65786000D02*
X119285000Y-65945000D01*
X122015000Y-65945000D02*
X123190000Y-64770000D01*
X101949000Y-65945000D02*
X102108000Y-65786000D01*
X119285000Y-65945000D02*
X122015000Y-65945000D01*
X98044000Y-64770000D02*
X99219000Y-65945000D01*
X118872000Y-73152000D02*
X102362000Y-73152000D01*
X123190000Y-72390000D02*
X121920000Y-73660000D01*
X119380000Y-73660000D02*
X118872000Y-73152000D01*
X101854000Y-73660000D02*
X99314000Y-73660000D01*
X102362000Y-73152000D02*
X101854000Y-73660000D01*
X99314000Y-73660000D02*
X98044000Y-72390000D01*
X121920000Y-73660000D02*
X119380000Y-73660000D01*
X119380000Y-86360000D02*
X118872000Y-85852000D01*
X101854000Y-86360000D02*
X99314000Y-86360000D01*
X102362000Y-85852000D02*
X101854000Y-86360000D01*
X121920000Y-86360000D02*
X119380000Y-86360000D01*
X118872000Y-85852000D02*
X102362000Y-85852000D01*
X99314000Y-86360000D02*
X98044000Y-85090000D01*
X123190000Y-85090000D02*
X121920000Y-86360000D01*
X113792000Y-54610000D02*
X120650000Y-54610000D01*
X101981000Y-77470000D02*
X100584000Y-77470000D01*
X102743000Y-76708000D02*
X101981000Y-77470000D01*
X113792000Y-76708000D02*
X102743000Y-76708000D01*
X113030000Y-57150000D02*
X120650000Y-57150000D01*
X113120000Y-74168000D02*
X102616000Y-74168000D01*
X113157000Y-74205000D02*
X113120000Y-74168000D01*
X101854000Y-74930000D02*
X100584000Y-74930000D01*
X102616000Y-74168000D02*
X101854000Y-74930000D01*
X112776000Y-59690000D02*
X120650000Y-59690000D01*
X101854000Y-72390000D02*
X100584000Y-72390000D01*
X102870000Y-71374000D02*
X101854000Y-72390000D01*
X112268000Y-71374000D02*
X102870000Y-71374000D01*
X101854000Y-69850000D02*
X100584000Y-69850000D01*
X102616000Y-69088000D02*
X101854000Y-69850000D01*
X110998000Y-64760695D02*
X111750695Y-64008000D01*
X110490000Y-69088000D02*
X102616000Y-69088000D01*
X110998000Y-64770000D02*
X110998000Y-64760695D01*
X111750695Y-64008000D02*
X118872000Y-64008000D01*
X101346000Y-66548000D02*
X100584000Y-67310000D01*
X112014000Y-66548000D02*
X101346000Y-66548000D01*
X112014000Y-64770000D02*
X120650000Y-64770000D01*
D14*
X98552000Y-62230000D02*
X98044000Y-62230000D01*
X111506000Y-62230000D02*
X111252000Y-62484000D01*
X119634000Y-63500000D02*
X118364000Y-62230000D01*
X99822000Y-63500000D02*
X98552000Y-62230000D01*
X103124000Y-62230000D02*
X101854000Y-63500000D01*
X123190000Y-62230000D02*
X121920000Y-63500000D01*
X121920000Y-63500000D02*
X119634000Y-63500000D01*
X110998000Y-62230000D02*
X103124000Y-62230000D01*
X118364000Y-62230000D02*
X111252000Y-62230000D01*
X111252000Y-62484000D02*
X110998000Y-62230000D01*
X101854000Y-63500000D02*
X99822000Y-63500000D01*
D13*
X109220000Y-72390000D02*
X120650000Y-72390000D01*
X101854000Y-59690000D02*
X100584000Y-59690000D01*
X108966000Y-58420000D02*
X103124000Y-58420000D01*
X103124000Y-58420000D02*
X101854000Y-59690000D01*
X103124000Y-59690000D02*
X110998000Y-59690000D01*
X110998000Y-59690000D02*
X111760000Y-60452000D01*
X113792000Y-60960000D02*
X121920000Y-60960000D01*
X121920000Y-60960000D02*
X123190000Y-59690000D01*
X101854000Y-60960000D02*
X103124000Y-59690000D01*
X99314000Y-60960000D02*
X101854000Y-60960000D01*
X113284000Y-60452000D02*
X113792000Y-60960000D01*
X98044000Y-59690000D02*
X99314000Y-60960000D01*
X111760000Y-60452000D02*
X113284000Y-60452000D01*
X107677500Y-74911500D02*
X107714500Y-74948500D01*
X101854000Y-57150000D02*
X100584000Y-57150000D01*
X107677500Y-74911500D02*
X107696000Y-74930000D01*
X103124000Y-55880000D02*
X101854000Y-57150000D01*
X108204000Y-55880000D02*
X103124000Y-55880000D01*
X107696000Y-74930000D02*
X120650000Y-74930000D01*
X112268000Y-58420000D02*
X110998000Y-57150000D01*
X99314000Y-58420000D02*
X98044000Y-57150000D01*
X103124000Y-57150000D02*
X101854000Y-58420000D01*
X123190000Y-57150000D02*
X121920000Y-58420000D01*
X110998000Y-57150000D02*
X103124000Y-57150000D01*
X121920000Y-58420000D02*
X112268000Y-58420000D01*
X101854000Y-58420000D02*
X99314000Y-58420000D01*
X100584000Y-54562500D02*
X100631500Y-54610000D01*
X101854000Y-54610000D02*
X100584000Y-54610000D01*
X107442000Y-77470000D02*
X120650000Y-77470000D01*
X103124000Y-53340000D02*
X101854000Y-54610000D01*
X107442000Y-53340000D02*
X103124000Y-53340000D01*
X121920000Y-55880000D02*
X123190000Y-54610000D01*
X112145652Y-55880000D02*
X121920000Y-55880000D01*
X103124000Y-54610000D02*
X110875652Y-54610000D01*
X98044000Y-54610000D02*
X99314000Y-55880000D01*
X101854000Y-55880000D02*
X103124000Y-54610000D01*
X110875652Y-54610000D02*
X112145652Y-55880000D01*
X99314000Y-55880000D02*
X101854000Y-55880000D01*
X103124000Y-50800000D02*
X101854000Y-52070000D01*
X106680000Y-50800000D02*
X103124000Y-50800000D01*
X101854000Y-52070000D02*
X100584000Y-52070000D01*
X106680000Y-80010000D02*
X120650000Y-80010000D01*
X100631500Y-52070000D02*
X100584000Y-52022500D01*
X103186802Y-52070000D02*
X110998000Y-52070000D01*
X99314000Y-53340000D02*
X101916802Y-53340000D01*
X98044000Y-52070000D02*
X99314000Y-53340000D01*
X121920000Y-53340000D02*
X123190000Y-52070000D01*
X101916802Y-53340000D02*
X103186802Y-52070000D01*
X110998000Y-52070000D02*
X112268000Y-53340000D01*
X112268000Y-53340000D02*
X121920000Y-53340000D01*
X101854000Y-49530000D02*
X100584000Y-49530000D01*
X103124000Y-48260000D02*
X101854000Y-49530000D01*
X105918000Y-82550000D02*
X120650000Y-82550000D01*
X105918000Y-48260000D02*
X103124000Y-48260000D01*
X100584000Y-49482500D02*
X100631500Y-49530000D01*
X98044000Y-49530000D02*
X99314000Y-50800000D01*
X121920000Y-50800000D02*
X123190000Y-49530000D01*
X112268000Y-50800000D02*
X121920000Y-50800000D01*
X99314000Y-50800000D02*
X101854000Y-50800000D01*
X101854000Y-50800000D02*
X103124000Y-49530000D01*
X103124000Y-49530000D02*
X110998000Y-49530000D01*
X110998000Y-49530000D02*
X112268000Y-50800000D01*
X105156000Y-85090000D02*
X120650000Y-85090000D01*
X105156000Y-45720000D02*
X103124000Y-45720000D01*
X101854000Y-46990000D02*
X100584000Y-46990000D01*
X103124000Y-45720000D02*
X101854000Y-46990000D01*
X100631500Y-46990000D02*
X100584000Y-46942500D01*
X99314000Y-48260000D02*
X101854000Y-48260000D01*
X103124000Y-46990000D02*
X110998000Y-46990000D01*
X101854000Y-48260000D02*
X103124000Y-46990000D01*
X110998000Y-46990000D02*
X112268000Y-48260000D01*
X121920000Y-48260000D02*
X123190000Y-46990000D01*
X98044000Y-46990000D02*
X99314000Y-48260000D01*
X112268000Y-48260000D02*
X121920000Y-48260000D01*
X101854000Y-44450000D02*
X100584000Y-44450000D01*
X104394000Y-87630000D02*
X120650000Y-87630000D01*
X103124000Y-43180000D02*
X101854000Y-44450000D01*
X104394000Y-43180000D02*
X103124000Y-43180000D01*
X100584000Y-44402500D02*
X100631500Y-44450000D01*
X121920000Y-45720000D02*
X123190000Y-44450000D01*
X103124000Y-44450000D02*
X110998000Y-44450000D01*
X101854000Y-45720000D02*
X103124000Y-44450000D01*
X98044000Y-44450000D02*
X99314000Y-45720000D01*
X112268000Y-45720000D02*
X121920000Y-45720000D01*
X99314000Y-45720000D02*
X101854000Y-45720000D01*
X110998000Y-44450000D02*
X112268000Y-45720000D01*
X103632000Y-40640000D02*
X103124000Y-40640000D01*
X103124000Y-40640000D02*
X101854000Y-41910000D01*
X120650000Y-90170000D02*
X103632000Y-90170000D01*
X101854000Y-41910000D02*
X100584000Y-41910000D01*
X99314000Y-43180000D02*
X101916802Y-43180000D01*
X121920000Y-43180000D02*
X123190000Y-41910000D01*
X112268000Y-43180000D02*
X121920000Y-43180000D01*
X98044000Y-41910000D02*
X99314000Y-43180000D01*
X103234302Y-41862500D02*
X110950500Y-41862500D01*
X110950500Y-41862500D02*
X112268000Y-43180000D01*
X101916802Y-43180000D02*
X103234302Y-41862500D01*
X108966000Y-60960000D02*
X103124000Y-60960000D01*
X103124000Y-60960000D02*
X101854000Y-62230000D01*
X101854000Y-62230000D02*
X100584000Y-62230000D01*
X109982000Y-67310000D02*
X120650000Y-67310000D01*
X109474000Y-60452000D02*
X108966000Y-60960000D01*
G04 #@! TA.AperFunction,Conductor*
G36*
X125164539Y-35580185D02*
G01*
X125210294Y-35632989D01*
X125221500Y-35684500D01*
X125221500Y-92077500D01*
X125201815Y-92144539D01*
X125149011Y-92190294D01*
X125097500Y-92201500D01*
X122317681Y-92201500D01*
X122250642Y-92181815D01*
X122204887Y-92129011D01*
X122194943Y-92059853D01*
X122223968Y-91996297D01*
X122244789Y-91977187D01*
X122247642Y-91975113D01*
X122259069Y-91966811D01*
X122268814Y-91960408D01*
X122306420Y-91938170D01*
X122320589Y-91923999D01*
X122335379Y-91911368D01*
X122351587Y-91899594D01*
X122379438Y-91865926D01*
X122387279Y-91857309D01*
X122734353Y-91510235D01*
X122795674Y-91476752D01*
X122854125Y-91478143D01*
X122860332Y-91479806D01*
X122954592Y-91505063D01*
X123142918Y-91521539D01*
X123189999Y-91525659D01*
X123190000Y-91525659D01*
X123190001Y-91525659D01*
X123229234Y-91522226D01*
X123425408Y-91505063D01*
X123653663Y-91443903D01*
X123867830Y-91344035D01*
X124061401Y-91208495D01*
X124228495Y-91041401D01*
X124364035Y-90847830D01*
X124463903Y-90633663D01*
X124525063Y-90405408D01*
X124545659Y-90170000D01*
X124525063Y-89934592D01*
X124463903Y-89706337D01*
X124364035Y-89492171D01*
X124343147Y-89462339D01*
X124228494Y-89298597D01*
X124061402Y-89131506D01*
X124061396Y-89131501D01*
X123875842Y-89001575D01*
X123832217Y-88946998D01*
X123825023Y-88877500D01*
X123856546Y-88815145D01*
X123875842Y-88798425D01*
X123898026Y-88782891D01*
X124061401Y-88668495D01*
X124228495Y-88501401D01*
X124364035Y-88307830D01*
X124463903Y-88093663D01*
X124525063Y-87865408D01*
X124545659Y-87630000D01*
X124545090Y-87623502D01*
X124533964Y-87496334D01*
X124525063Y-87394592D01*
X124463903Y-87166337D01*
X124364035Y-86952171D01*
X124343147Y-86922339D01*
X124228494Y-86758597D01*
X124061402Y-86591506D01*
X124061396Y-86591501D01*
X123875842Y-86461575D01*
X123832217Y-86406998D01*
X123825023Y-86337500D01*
X123856546Y-86275145D01*
X123875842Y-86258425D01*
X123898026Y-86242891D01*
X124061401Y-86128495D01*
X124228495Y-85961401D01*
X124364035Y-85767830D01*
X124463903Y-85553663D01*
X124525063Y-85325408D01*
X124545659Y-85090000D01*
X124525063Y-84854592D01*
X124463903Y-84626337D01*
X124364035Y-84412171D01*
X124343147Y-84382339D01*
X124228494Y-84218597D01*
X124061402Y-84051506D01*
X124061396Y-84051501D01*
X123875842Y-83921575D01*
X123832217Y-83866998D01*
X123825023Y-83797500D01*
X123856546Y-83735145D01*
X123875842Y-83718425D01*
X123898026Y-83702891D01*
X124061401Y-83588495D01*
X124228495Y-83421401D01*
X124364035Y-83227830D01*
X124463903Y-83013663D01*
X124525063Y-82785408D01*
X124545659Y-82550000D01*
X124545090Y-82543502D01*
X124533964Y-82416334D01*
X124525063Y-82314592D01*
X124463903Y-82086337D01*
X124364035Y-81872171D01*
X124343147Y-81842339D01*
X124228494Y-81678597D01*
X124061402Y-81511506D01*
X124061396Y-81511501D01*
X123875842Y-81381575D01*
X123832217Y-81326998D01*
X123825023Y-81257500D01*
X123856546Y-81195145D01*
X123875842Y-81178425D01*
X123898026Y-81162891D01*
X124061401Y-81048495D01*
X124228495Y-80881401D01*
X124364035Y-80687830D01*
X124463903Y-80473663D01*
X124525063Y-80245408D01*
X124545659Y-80010000D01*
X124545090Y-80003502D01*
X124533964Y-79876334D01*
X124525063Y-79774592D01*
X124463903Y-79546337D01*
X124364035Y-79332171D01*
X124343147Y-79302339D01*
X124228494Y-79138597D01*
X124061402Y-78971506D01*
X124061396Y-78971501D01*
X123875842Y-78841575D01*
X123832217Y-78786998D01*
X123825023Y-78717500D01*
X123856546Y-78655145D01*
X123875842Y-78638425D01*
X123898026Y-78622891D01*
X124061401Y-78508495D01*
X124228495Y-78341401D01*
X124364035Y-78147830D01*
X124463903Y-77933663D01*
X124525063Y-77705408D01*
X124545659Y-77470000D01*
X124545090Y-77463502D01*
X124533964Y-77336334D01*
X124525063Y-77234592D01*
X124463903Y-77006337D01*
X124364035Y-76792171D01*
X124343147Y-76762339D01*
X124228494Y-76598597D01*
X124061402Y-76431506D01*
X124061396Y-76431501D01*
X123875842Y-76301575D01*
X123832217Y-76246998D01*
X123825023Y-76177500D01*
X123856546Y-76115145D01*
X123875842Y-76098425D01*
X123898026Y-76082891D01*
X124061401Y-75968495D01*
X124228495Y-75801401D01*
X124364035Y-75607830D01*
X124463903Y-75393663D01*
X124525063Y-75165408D01*
X124545659Y-74930000D01*
X124525063Y-74694592D01*
X124463903Y-74466337D01*
X124364035Y-74252171D01*
X124343147Y-74222339D01*
X124228494Y-74058597D01*
X124061402Y-73891506D01*
X124061396Y-73891501D01*
X123875842Y-73761575D01*
X123832217Y-73706998D01*
X123825023Y-73637500D01*
X123856546Y-73575145D01*
X123875842Y-73558425D01*
X123898026Y-73542891D01*
X124061401Y-73428495D01*
X124228495Y-73261401D01*
X124364035Y-73067830D01*
X124463903Y-72853663D01*
X124525063Y-72625408D01*
X124545659Y-72390000D01*
X124525063Y-72154592D01*
X124463903Y-71926337D01*
X124364035Y-71712171D01*
X124343147Y-71682339D01*
X124228494Y-71518597D01*
X124061402Y-71351506D01*
X124061396Y-71351501D01*
X123875842Y-71221575D01*
X123832217Y-71166998D01*
X123825023Y-71097500D01*
X123856546Y-71035145D01*
X123875842Y-71018425D01*
X123898026Y-71002891D01*
X124061401Y-70888495D01*
X124228495Y-70721401D01*
X124364035Y-70527830D01*
X124463903Y-70313663D01*
X124525063Y-70085408D01*
X124545659Y-69850000D01*
X124525063Y-69614592D01*
X124467771Y-69400773D01*
X124463905Y-69386344D01*
X124463904Y-69386343D01*
X124463903Y-69386337D01*
X124364035Y-69172171D01*
X124345119Y-69145155D01*
X124228494Y-68978597D01*
X124061402Y-68811506D01*
X124061396Y-68811501D01*
X123875842Y-68681575D01*
X123832217Y-68626998D01*
X123825023Y-68557500D01*
X123856546Y-68495145D01*
X123875842Y-68478425D01*
X123938183Y-68434773D01*
X124061401Y-68348495D01*
X124228495Y-68181401D01*
X124364035Y-67987830D01*
X124463903Y-67773663D01*
X124525063Y-67545408D01*
X124545659Y-67310000D01*
X124545446Y-67307571D01*
X124535127Y-67189625D01*
X124525063Y-67074592D01*
X124463903Y-66846337D01*
X124364035Y-66632171D01*
X124322375Y-66572673D01*
X124228494Y-66438597D01*
X124061402Y-66271506D01*
X124061396Y-66271501D01*
X123875842Y-66141575D01*
X123832217Y-66086998D01*
X123825023Y-66017500D01*
X123856546Y-65955145D01*
X123875842Y-65938425D01*
X123898026Y-65922891D01*
X124061401Y-65808495D01*
X124228495Y-65641401D01*
X124364035Y-65447830D01*
X124463903Y-65233663D01*
X124525063Y-65005408D01*
X124545659Y-64770000D01*
X124525063Y-64534592D01*
X124463903Y-64306337D01*
X124364035Y-64092171D01*
X124358425Y-64084158D01*
X124228494Y-63898597D01*
X124061402Y-63731506D01*
X124061401Y-63731505D01*
X123875405Y-63601269D01*
X123831781Y-63546692D01*
X123824588Y-63477193D01*
X123856110Y-63414839D01*
X123875405Y-63398119D01*
X124061082Y-63268105D01*
X124228105Y-63101082D01*
X124363600Y-62907578D01*
X124463429Y-62693492D01*
X124463432Y-62693486D01*
X124520636Y-62480000D01*
X123623686Y-62480000D01*
X123649493Y-62439844D01*
X123690000Y-62301889D01*
X123690000Y-62158111D01*
X123649493Y-62020156D01*
X123623686Y-61980000D01*
X124520636Y-61980000D01*
X124520635Y-61979999D01*
X124463432Y-61766513D01*
X124463429Y-61766507D01*
X124363600Y-61552422D01*
X124363599Y-61552420D01*
X124228113Y-61358926D01*
X124228108Y-61358920D01*
X124061078Y-61191890D01*
X123875405Y-61061879D01*
X123831780Y-61007302D01*
X123824588Y-60937804D01*
X123856110Y-60875449D01*
X123875406Y-60858730D01*
X123894349Y-60845466D01*
X124061401Y-60728495D01*
X124228495Y-60561401D01*
X124364035Y-60367830D01*
X124463903Y-60153663D01*
X124525063Y-59925408D01*
X124545659Y-59690000D01*
X124525063Y-59454592D01*
X124467771Y-59240773D01*
X124463905Y-59226344D01*
X124463904Y-59226343D01*
X124463903Y-59226337D01*
X124364035Y-59012171D01*
X124343147Y-58982339D01*
X124228494Y-58818597D01*
X124061402Y-58651506D01*
X124061396Y-58651501D01*
X123875842Y-58521575D01*
X123832217Y-58466998D01*
X123825023Y-58397500D01*
X123856546Y-58335145D01*
X123875842Y-58318425D01*
X123999635Y-58231744D01*
X124061401Y-58188495D01*
X124228495Y-58021401D01*
X124364035Y-57827830D01*
X124463903Y-57613663D01*
X124525063Y-57385408D01*
X124545659Y-57150000D01*
X124525063Y-56914592D01*
X124467771Y-56700773D01*
X124463905Y-56686344D01*
X124463904Y-56686343D01*
X124463903Y-56686337D01*
X124364035Y-56472171D01*
X124345119Y-56445155D01*
X124228494Y-56278597D01*
X124061402Y-56111506D01*
X124061396Y-56111501D01*
X123875842Y-55981575D01*
X123832217Y-55926998D01*
X123825023Y-55857500D01*
X123856546Y-55795145D01*
X123875842Y-55778425D01*
X123999635Y-55691744D01*
X124061401Y-55648495D01*
X124228495Y-55481401D01*
X124364035Y-55287830D01*
X124463903Y-55073663D01*
X124525063Y-54845408D01*
X124545659Y-54610000D01*
X124525063Y-54374592D01*
X124467771Y-54160773D01*
X124463905Y-54146344D01*
X124463904Y-54146343D01*
X124463903Y-54146337D01*
X124364035Y-53932171D01*
X124345119Y-53905155D01*
X124228494Y-53738597D01*
X124061402Y-53571506D01*
X124061396Y-53571501D01*
X123875842Y-53441575D01*
X123832217Y-53386998D01*
X123825023Y-53317500D01*
X123856546Y-53255145D01*
X123875842Y-53238425D01*
X123999635Y-53151744D01*
X124061401Y-53108495D01*
X124228495Y-52941401D01*
X124364035Y-52747830D01*
X124463903Y-52533663D01*
X124525063Y-52305408D01*
X124545659Y-52070000D01*
X124525063Y-51834592D01*
X124467771Y-51620773D01*
X124463905Y-51606344D01*
X124463904Y-51606343D01*
X124463903Y-51606337D01*
X124364035Y-51392171D01*
X124345119Y-51365155D01*
X124228494Y-51198597D01*
X124061402Y-51031506D01*
X124061396Y-51031501D01*
X123875842Y-50901575D01*
X123832217Y-50846998D01*
X123825023Y-50777500D01*
X123856546Y-50715145D01*
X123875842Y-50698425D01*
X123999635Y-50611744D01*
X124061401Y-50568495D01*
X124228495Y-50401401D01*
X124364035Y-50207830D01*
X124463903Y-49993663D01*
X124525063Y-49765408D01*
X124545659Y-49530000D01*
X124525063Y-49294592D01*
X124467771Y-49080773D01*
X124463905Y-49066344D01*
X124463904Y-49066343D01*
X124463903Y-49066337D01*
X124364035Y-48852171D01*
X124345119Y-48825155D01*
X124228494Y-48658597D01*
X124061402Y-48491506D01*
X124061396Y-48491501D01*
X123875842Y-48361575D01*
X123832217Y-48306998D01*
X123825023Y-48237500D01*
X123856546Y-48175145D01*
X123875842Y-48158425D01*
X123999635Y-48071744D01*
X124061401Y-48028495D01*
X124228495Y-47861401D01*
X124364035Y-47667830D01*
X124463903Y-47453663D01*
X124525063Y-47225408D01*
X124545659Y-46990000D01*
X124525063Y-46754592D01*
X124467771Y-46540773D01*
X124463905Y-46526344D01*
X124463904Y-46526343D01*
X124463903Y-46526337D01*
X124364035Y-46312171D01*
X124345119Y-46285155D01*
X124228494Y-46118597D01*
X124061402Y-45951506D01*
X124061396Y-45951501D01*
X123875842Y-45821575D01*
X123832217Y-45766998D01*
X123825023Y-45697500D01*
X123856546Y-45635145D01*
X123875842Y-45618425D01*
X123999635Y-45531744D01*
X124061401Y-45488495D01*
X124228495Y-45321401D01*
X124364035Y-45127830D01*
X124463903Y-44913663D01*
X124525063Y-44685408D01*
X124545659Y-44450000D01*
X124525063Y-44214592D01*
X124467771Y-44000773D01*
X124463905Y-43986344D01*
X124463904Y-43986343D01*
X124463903Y-43986337D01*
X124364035Y-43772171D01*
X124345119Y-43745155D01*
X124228494Y-43578597D01*
X124061402Y-43411506D01*
X124061396Y-43411501D01*
X123875842Y-43281575D01*
X123832217Y-43226998D01*
X123825023Y-43157500D01*
X123856546Y-43095145D01*
X123875842Y-43078425D01*
X123999635Y-42991744D01*
X124061401Y-42948495D01*
X124228495Y-42781401D01*
X124364035Y-42587830D01*
X124463903Y-42373663D01*
X124525063Y-42145408D01*
X124545659Y-41910000D01*
X124525063Y-41674592D01*
X124472578Y-41478712D01*
X124463905Y-41446344D01*
X124463904Y-41446343D01*
X124463903Y-41446337D01*
X124364035Y-41232171D01*
X124358425Y-41224158D01*
X124228494Y-41038597D01*
X124061402Y-40871506D01*
X124061395Y-40871501D01*
X123867834Y-40735967D01*
X123867830Y-40735965D01*
X123867828Y-40735964D01*
X123653663Y-40636097D01*
X123653659Y-40636096D01*
X123653655Y-40636094D01*
X123425413Y-40574938D01*
X123425403Y-40574936D01*
X123190001Y-40554341D01*
X123189999Y-40554341D01*
X122954596Y-40574936D01*
X122954586Y-40574938D01*
X122726344Y-40636094D01*
X122726335Y-40636098D01*
X122512171Y-40735964D01*
X122512169Y-40735965D01*
X122318600Y-40871503D01*
X122196673Y-40993430D01*
X122135350Y-41026914D01*
X122065658Y-41021930D01*
X122009725Y-40980058D01*
X121992810Y-40949081D01*
X121943797Y-40817671D01*
X121943793Y-40817664D01*
X121857547Y-40702455D01*
X121857544Y-40702452D01*
X121742335Y-40616206D01*
X121742328Y-40616202D01*
X121607482Y-40565908D01*
X121607483Y-40565908D01*
X121547883Y-40559501D01*
X121547881Y-40559500D01*
X121547873Y-40559500D01*
X121547864Y-40559500D01*
X119752129Y-40559500D01*
X119752123Y-40559501D01*
X119692516Y-40565908D01*
X119557671Y-40616202D01*
X119557664Y-40616206D01*
X119442455Y-40702452D01*
X119442452Y-40702455D01*
X119356206Y-40817664D01*
X119356202Y-40817671D01*
X119305908Y-40952517D01*
X119299501Y-41012116D01*
X119299500Y-41012135D01*
X119299500Y-41160500D01*
X119279815Y-41227539D01*
X119227011Y-41273294D01*
X119175500Y-41284500D01*
X118305748Y-41284500D01*
X118238709Y-41264815D01*
X118213600Y-41243474D01*
X118207873Y-41237114D01*
X118207869Y-41237110D01*
X118054734Y-41125851D01*
X118054729Y-41125848D01*
X117881807Y-41048857D01*
X117881802Y-41048855D01*
X117736001Y-41017865D01*
X117696646Y-41009500D01*
X117507354Y-41009500D01*
X117474897Y-41016398D01*
X117322197Y-41048855D01*
X117322192Y-41048857D01*
X117149270Y-41125848D01*
X117149265Y-41125851D01*
X116996129Y-41237111D01*
X116869466Y-41377785D01*
X116774821Y-41541715D01*
X116774818Y-41541722D01*
X116731645Y-41674596D01*
X116716326Y-41721744D01*
X116696540Y-41910000D01*
X116716326Y-42098256D01*
X116716327Y-42098259D01*
X116774818Y-42278277D01*
X116774821Y-42278284D01*
X116826907Y-42368500D01*
X116843380Y-42436401D01*
X116820527Y-42502427D01*
X116765606Y-42545618D01*
X116719520Y-42554500D01*
X112578453Y-42554500D01*
X112511414Y-42534815D01*
X112490772Y-42518181D01*
X111451303Y-41478712D01*
X111441480Y-41466450D01*
X111441259Y-41466634D01*
X111436286Y-41460622D01*
X111387276Y-41414599D01*
X111384477Y-41411886D01*
X111364977Y-41392385D01*
X111364971Y-41392380D01*
X111361786Y-41389909D01*
X111352934Y-41382348D01*
X111321082Y-41352438D01*
X111321080Y-41352436D01*
X111321077Y-41352435D01*
X111303529Y-41342788D01*
X111287263Y-41332104D01*
X111271432Y-41319824D01*
X111231349Y-41302478D01*
X111220863Y-41297341D01*
X111182594Y-41276303D01*
X111182592Y-41276302D01*
X111163193Y-41271322D01*
X111144781Y-41265018D01*
X111126398Y-41257062D01*
X111126392Y-41257060D01*
X111083260Y-41250229D01*
X111071822Y-41247861D01*
X111029520Y-41237000D01*
X111029519Y-41237000D01*
X111009484Y-41237000D01*
X110990086Y-41235473D01*
X110982662Y-41234297D01*
X110970305Y-41232340D01*
X110970304Y-41232340D01*
X110926825Y-41236450D01*
X110915156Y-41237000D01*
X104541904Y-41237000D01*
X104474865Y-41217315D01*
X104429110Y-41164511D01*
X104419166Y-41095353D01*
X104434516Y-41051001D01*
X104459179Y-41008284D01*
X104517674Y-40828256D01*
X104537460Y-40640000D01*
X104517674Y-40451744D01*
X104459179Y-40271716D01*
X104364533Y-40107784D01*
X104237871Y-39967112D01*
X104237867Y-39967109D01*
X104084734Y-39855851D01*
X104084729Y-39855848D01*
X103911807Y-39778857D01*
X103911802Y-39778855D01*
X103766001Y-39747865D01*
X103726646Y-39739500D01*
X103537354Y-39739500D01*
X103504897Y-39746398D01*
X103352197Y-39778855D01*
X103352192Y-39778857D01*
X103179270Y-39855848D01*
X103179265Y-39855851D01*
X103026132Y-39967109D01*
X102991165Y-40005943D01*
X102944662Y-40038262D01*
X102926600Y-40045413D01*
X102915553Y-40049195D01*
X102873610Y-40061381D01*
X102873609Y-40061382D01*
X102856367Y-40071579D01*
X102838899Y-40080137D01*
X102820269Y-40087513D01*
X102820266Y-40087515D01*
X102784939Y-40113181D01*
X102775180Y-40119592D01*
X102737579Y-40141830D01*
X102723408Y-40156000D01*
X102708623Y-40168628D01*
X102692412Y-40180407D01*
X102664571Y-40214059D01*
X102656711Y-40222696D01*
X101816899Y-41062508D01*
X101755576Y-41095993D01*
X101685884Y-41091009D01*
X101629951Y-41049137D01*
X101627645Y-41045953D01*
X101622494Y-41038597D01*
X101455402Y-40871506D01*
X101455395Y-40871501D01*
X101261834Y-40735967D01*
X101261830Y-40735965D01*
X101261828Y-40735964D01*
X101047663Y-40636097D01*
X101047659Y-40636096D01*
X101047655Y-40636094D01*
X100819413Y-40574938D01*
X100819403Y-40574936D01*
X100584001Y-40554341D01*
X100583999Y-40554341D01*
X100348596Y-40574936D01*
X100348586Y-40574938D01*
X100120344Y-40636094D01*
X100120335Y-40636098D01*
X99906171Y-40735964D01*
X99906169Y-40735965D01*
X99712597Y-40871505D01*
X99545505Y-41038597D01*
X99415575Y-41224158D01*
X99360998Y-41267783D01*
X99291500Y-41274977D01*
X99229145Y-41243454D01*
X99212425Y-41224158D01*
X99082494Y-41038597D01*
X98915402Y-40871506D01*
X98915395Y-40871501D01*
X98721834Y-40735967D01*
X98721830Y-40735965D01*
X98721828Y-40735964D01*
X98507663Y-40636097D01*
X98507659Y-40636096D01*
X98507655Y-40636094D01*
X98279413Y-40574938D01*
X98279403Y-40574936D01*
X98044001Y-40554341D01*
X98043999Y-40554341D01*
X97808596Y-40574936D01*
X97808586Y-40574938D01*
X97580344Y-40636094D01*
X97580335Y-40636098D01*
X97366171Y-40735964D01*
X97366169Y-40735965D01*
X97172597Y-40871505D01*
X97005505Y-41038597D01*
X96869965Y-41232169D01*
X96869964Y-41232171D01*
X96770098Y-41446335D01*
X96770094Y-41446344D01*
X96708938Y-41674586D01*
X96708936Y-41674596D01*
X96688341Y-41909999D01*
X96688341Y-41910000D01*
X96708936Y-42145403D01*
X96708938Y-42145413D01*
X96770094Y-42373655D01*
X96770096Y-42373659D01*
X96770097Y-42373663D01*
X96850281Y-42545618D01*
X96869965Y-42587830D01*
X96869967Y-42587834D01*
X97005501Y-42781395D01*
X97005506Y-42781402D01*
X97172597Y-42948493D01*
X97172603Y-42948498D01*
X97358158Y-43078425D01*
X97401783Y-43133002D01*
X97408977Y-43202500D01*
X97377454Y-43264855D01*
X97358158Y-43281575D01*
X97172597Y-43411505D01*
X97005505Y-43578597D01*
X96869965Y-43772169D01*
X96869964Y-43772171D01*
X96770098Y-43986335D01*
X96770094Y-43986344D01*
X96708938Y-44214586D01*
X96708936Y-44214596D01*
X96688341Y-44449999D01*
X96688341Y-44450000D01*
X96708936Y-44685403D01*
X96708938Y-44685413D01*
X96770094Y-44913655D01*
X96770096Y-44913659D01*
X96770097Y-44913663D01*
X96802064Y-44982216D01*
X96869965Y-45127830D01*
X96869967Y-45127834D01*
X97005501Y-45321395D01*
X97005506Y-45321402D01*
X97172597Y-45488493D01*
X97172603Y-45488498D01*
X97358158Y-45618425D01*
X97401783Y-45673002D01*
X97408977Y-45742500D01*
X97377454Y-45804855D01*
X97358158Y-45821575D01*
X97172597Y-45951505D01*
X97005505Y-46118597D01*
X96869965Y-46312169D01*
X96869964Y-46312171D01*
X96770098Y-46526335D01*
X96770094Y-46526344D01*
X96708938Y-46754586D01*
X96708936Y-46754596D01*
X96688341Y-46989999D01*
X96688341Y-46990000D01*
X96708936Y-47225403D01*
X96708938Y-47225413D01*
X96770094Y-47453655D01*
X96770096Y-47453659D01*
X96770097Y-47453663D01*
X96802064Y-47522216D01*
X96869965Y-47667830D01*
X96869967Y-47667834D01*
X97005501Y-47861395D01*
X97005506Y-47861402D01*
X97172597Y-48028493D01*
X97172603Y-48028498D01*
X97358158Y-48158425D01*
X97401783Y-48213002D01*
X97408977Y-48282500D01*
X97377454Y-48344855D01*
X97358158Y-48361575D01*
X97172597Y-48491505D01*
X97005505Y-48658597D01*
X96869965Y-48852169D01*
X96869964Y-48852171D01*
X96770098Y-49066335D01*
X96770094Y-49066344D01*
X96708938Y-49294586D01*
X96708936Y-49294596D01*
X96688341Y-49529999D01*
X96688341Y-49530000D01*
X96708936Y-49765403D01*
X96708938Y-49765413D01*
X96770094Y-49993655D01*
X96770096Y-49993659D01*
X96770097Y-49993663D01*
X96802064Y-50062216D01*
X96869965Y-50207830D01*
X96869967Y-50207834D01*
X97005501Y-50401395D01*
X97005506Y-50401402D01*
X97172597Y-50568493D01*
X97172603Y-50568498D01*
X97358158Y-50698425D01*
X97401783Y-50753002D01*
X97408977Y-50822500D01*
X97377454Y-50884855D01*
X97358158Y-50901575D01*
X97172597Y-51031505D01*
X97005505Y-51198597D01*
X96869965Y-51392169D01*
X96869964Y-51392171D01*
X96770098Y-51606335D01*
X96770094Y-51606344D01*
X96708938Y-51834586D01*
X96708936Y-51834596D01*
X96688341Y-52069999D01*
X96688341Y-52070000D01*
X96708936Y-52305403D01*
X96708938Y-52305413D01*
X96770094Y-52533655D01*
X96770096Y-52533659D01*
X96770097Y-52533663D01*
X96802064Y-52602216D01*
X96869965Y-52747830D01*
X96869967Y-52747834D01*
X97005501Y-52941395D01*
X97005506Y-52941402D01*
X97172597Y-53108493D01*
X97172603Y-53108498D01*
X97358158Y-53238425D01*
X97401783Y-53293002D01*
X97408977Y-53362500D01*
X97377454Y-53424855D01*
X97358158Y-53441575D01*
X97172597Y-53571505D01*
X97005505Y-53738597D01*
X96869965Y-53932169D01*
X96869964Y-53932171D01*
X96770098Y-54146335D01*
X96770094Y-54146344D01*
X96708938Y-54374586D01*
X96708936Y-54374596D01*
X96688341Y-54609999D01*
X96688341Y-54610000D01*
X96708936Y-54845403D01*
X96708938Y-54845413D01*
X96770094Y-55073655D01*
X96770096Y-55073659D01*
X96770097Y-55073663D01*
X96802064Y-55142216D01*
X96869965Y-55287830D01*
X96869967Y-55287834D01*
X97005501Y-55481395D01*
X97005506Y-55481402D01*
X97172597Y-55648493D01*
X97172603Y-55648498D01*
X97358158Y-55778425D01*
X97401783Y-55833002D01*
X97408977Y-55902500D01*
X97377454Y-55964855D01*
X97358158Y-55981575D01*
X97172597Y-56111505D01*
X97005505Y-56278597D01*
X96869965Y-56472169D01*
X96869964Y-56472171D01*
X96770098Y-56686335D01*
X96770094Y-56686344D01*
X96708938Y-56914586D01*
X96708936Y-56914596D01*
X96688341Y-57149999D01*
X96688341Y-57150000D01*
X96708936Y-57385403D01*
X96708938Y-57385413D01*
X96770094Y-57613655D01*
X96770096Y-57613659D01*
X96770097Y-57613663D01*
X96845563Y-57775500D01*
X96869965Y-57827830D01*
X96869967Y-57827834D01*
X97005501Y-58021395D01*
X97005506Y-58021402D01*
X97172597Y-58188493D01*
X97172603Y-58188498D01*
X97358158Y-58318425D01*
X97401783Y-58373002D01*
X97408977Y-58442500D01*
X97377454Y-58504855D01*
X97358158Y-58521575D01*
X97172597Y-58651505D01*
X97005505Y-58818597D01*
X96869965Y-59012169D01*
X96869964Y-59012171D01*
X96770098Y-59226335D01*
X96770094Y-59226344D01*
X96708938Y-59454586D01*
X96708936Y-59454596D01*
X96688341Y-59689999D01*
X96688341Y-59690000D01*
X96708936Y-59925403D01*
X96708938Y-59925413D01*
X96770094Y-60153655D01*
X96770096Y-60153659D01*
X96770097Y-60153663D01*
X96845563Y-60315500D01*
X96869965Y-60367830D01*
X96869967Y-60367834D01*
X97005501Y-60561395D01*
X97005506Y-60561402D01*
X97172597Y-60728493D01*
X97172603Y-60728498D01*
X97260403Y-60789976D01*
X97285445Y-60807511D01*
X97358594Y-60858730D01*
X97402219Y-60913307D01*
X97409413Y-60982805D01*
X97377890Y-61045160D01*
X97358595Y-61061880D01*
X97172922Y-61191890D01*
X97172920Y-61191891D01*
X97005891Y-61358920D01*
X97005886Y-61358926D01*
X96870400Y-61552420D01*
X96870399Y-61552422D01*
X96770570Y-61766507D01*
X96770567Y-61766513D01*
X96713364Y-61979999D01*
X96713364Y-61980000D01*
X97610314Y-61980000D01*
X97584507Y-62020156D01*
X97544000Y-62158111D01*
X97544000Y-62301889D01*
X97584507Y-62439844D01*
X97610314Y-62480000D01*
X96713364Y-62480000D01*
X96770567Y-62693486D01*
X96770570Y-62693492D01*
X96870399Y-62907578D01*
X97005894Y-63101082D01*
X97172917Y-63268105D01*
X97358595Y-63398119D01*
X97402219Y-63452696D01*
X97409412Y-63522195D01*
X97377890Y-63584549D01*
X97358595Y-63601269D01*
X97172594Y-63731508D01*
X97005505Y-63898597D01*
X96869965Y-64092169D01*
X96869964Y-64092171D01*
X96770098Y-64306335D01*
X96770094Y-64306344D01*
X96708938Y-64534586D01*
X96708936Y-64534596D01*
X96688341Y-64769999D01*
X96688341Y-64770000D01*
X96708936Y-65005403D01*
X96708938Y-65005413D01*
X96770094Y-65233655D01*
X96770096Y-65233659D01*
X96770097Y-65233663D01*
X96869965Y-65447830D01*
X96869967Y-65447834D01*
X97005501Y-65641395D01*
X97005506Y-65641402D01*
X97172597Y-65808493D01*
X97172603Y-65808498D01*
X97358158Y-65938425D01*
X97401783Y-65993002D01*
X97408977Y-66062500D01*
X97377454Y-66124855D01*
X97358158Y-66141575D01*
X97172597Y-66271505D01*
X97005505Y-66438597D01*
X96869965Y-66632169D01*
X96869964Y-66632171D01*
X96770098Y-66846335D01*
X96770094Y-66846344D01*
X96708938Y-67074586D01*
X96708936Y-67074596D01*
X96688341Y-67309999D01*
X96688341Y-67310000D01*
X96708936Y-67545403D01*
X96708938Y-67545413D01*
X96770094Y-67773655D01*
X96770096Y-67773659D01*
X96770097Y-67773663D01*
X96869965Y-67987830D01*
X96869967Y-67987834D01*
X97005501Y-68181395D01*
X97005506Y-68181402D01*
X97172597Y-68348493D01*
X97172603Y-68348498D01*
X97358158Y-68478425D01*
X97401783Y-68533002D01*
X97408977Y-68602500D01*
X97377454Y-68664855D01*
X97358158Y-68681575D01*
X97172597Y-68811505D01*
X97005505Y-68978597D01*
X96869965Y-69172169D01*
X96869964Y-69172171D01*
X96770098Y-69386335D01*
X96770094Y-69386344D01*
X96708938Y-69614586D01*
X96708936Y-69614596D01*
X96688341Y-69849999D01*
X96688341Y-69850000D01*
X96708936Y-70085403D01*
X96708938Y-70085413D01*
X96770094Y-70313655D01*
X96770096Y-70313659D01*
X96770097Y-70313663D01*
X96863087Y-70513081D01*
X96869965Y-70527830D01*
X96869967Y-70527834D01*
X96932505Y-70617147D01*
X96991298Y-70701112D01*
X97005501Y-70721395D01*
X97005506Y-70721402D01*
X97172597Y-70888493D01*
X97172603Y-70888498D01*
X97358158Y-71018425D01*
X97401783Y-71073002D01*
X97408977Y-71142500D01*
X97377454Y-71204855D01*
X97358158Y-71221575D01*
X97172597Y-71351505D01*
X97005505Y-71518597D01*
X96869965Y-71712169D01*
X96869964Y-71712171D01*
X96770098Y-71926335D01*
X96770094Y-71926344D01*
X96708938Y-72154586D01*
X96708936Y-72154596D01*
X96688341Y-72389999D01*
X96688341Y-72390000D01*
X96708936Y-72625403D01*
X96708938Y-72625413D01*
X96770094Y-72853655D01*
X96770096Y-72853659D01*
X96770097Y-72853663D01*
X96869965Y-73067830D01*
X96869967Y-73067834D01*
X97005501Y-73261395D01*
X97005506Y-73261402D01*
X97172597Y-73428493D01*
X97172603Y-73428498D01*
X97358158Y-73558425D01*
X97401783Y-73613002D01*
X97408977Y-73682500D01*
X97377454Y-73744855D01*
X97358158Y-73761575D01*
X97172597Y-73891505D01*
X97005505Y-74058597D01*
X96869965Y-74252169D01*
X96869964Y-74252171D01*
X96770098Y-74466335D01*
X96770094Y-74466344D01*
X96708938Y-74694586D01*
X96708936Y-74694596D01*
X96688341Y-74929999D01*
X96688341Y-74930000D01*
X96708936Y-75165403D01*
X96708938Y-75165413D01*
X96770094Y-75393655D01*
X96770096Y-75393659D01*
X96770097Y-75393663D01*
X96869965Y-75607830D01*
X96869967Y-75607834D01*
X97005501Y-75801395D01*
X97005506Y-75801402D01*
X97172597Y-75968493D01*
X97172603Y-75968498D01*
X97358158Y-76098425D01*
X97401783Y-76153002D01*
X97408977Y-76222500D01*
X97377454Y-76284855D01*
X97358158Y-76301575D01*
X97172597Y-76431505D01*
X97005505Y-76598597D01*
X96869965Y-76792169D01*
X96869964Y-76792171D01*
X96770098Y-77006335D01*
X96770094Y-77006344D01*
X96708938Y-77234586D01*
X96708936Y-77234596D01*
X96688341Y-77469999D01*
X96688341Y-77470000D01*
X96708936Y-77705403D01*
X96708938Y-77705413D01*
X96770094Y-77933655D01*
X96770096Y-77933659D01*
X96770097Y-77933663D01*
X96869965Y-78147830D01*
X96869967Y-78147834D01*
X97005501Y-78341395D01*
X97005506Y-78341402D01*
X97172597Y-78508493D01*
X97172603Y-78508498D01*
X97358158Y-78638425D01*
X97401783Y-78693002D01*
X97408977Y-78762500D01*
X97377454Y-78824855D01*
X97358158Y-78841575D01*
X97172597Y-78971505D01*
X97005505Y-79138597D01*
X96869965Y-79332169D01*
X96869964Y-79332171D01*
X96770098Y-79546335D01*
X96770094Y-79546344D01*
X96708938Y-79774586D01*
X96708936Y-79774596D01*
X96688341Y-80009999D01*
X96688341Y-80010000D01*
X96708936Y-80245403D01*
X96708938Y-80245413D01*
X96770094Y-80473655D01*
X96770096Y-80473659D01*
X96770097Y-80473663D01*
X96869965Y-80687830D01*
X96869967Y-80687834D01*
X97005501Y-80881395D01*
X97005506Y-80881402D01*
X97172597Y-81048493D01*
X97172603Y-81048498D01*
X97358158Y-81178425D01*
X97401783Y-81233002D01*
X97408977Y-81302500D01*
X97377454Y-81364855D01*
X97358158Y-81381575D01*
X97172597Y-81511505D01*
X97005505Y-81678597D01*
X96869965Y-81872169D01*
X96869964Y-81872171D01*
X96770098Y-82086335D01*
X96770094Y-82086344D01*
X96708938Y-82314586D01*
X96708936Y-82314596D01*
X96688341Y-82549999D01*
X96688341Y-82550000D01*
X96708936Y-82785403D01*
X96708938Y-82785413D01*
X96770094Y-83013655D01*
X96770096Y-83013659D01*
X96770097Y-83013663D01*
X96869965Y-83227830D01*
X96869967Y-83227834D01*
X97005501Y-83421395D01*
X97005506Y-83421402D01*
X97172597Y-83588493D01*
X97172603Y-83588498D01*
X97358158Y-83718425D01*
X97401783Y-83773002D01*
X97408977Y-83842500D01*
X97377454Y-83904855D01*
X97358158Y-83921575D01*
X97172597Y-84051505D01*
X97005505Y-84218597D01*
X96869965Y-84412169D01*
X96869964Y-84412171D01*
X96770098Y-84626335D01*
X96770094Y-84626344D01*
X96708938Y-84854586D01*
X96708936Y-84854596D01*
X96688341Y-85089999D01*
X96688341Y-85090000D01*
X96708936Y-85325403D01*
X96708938Y-85325413D01*
X96770094Y-85553655D01*
X96770096Y-85553659D01*
X96770097Y-85553663D01*
X96869965Y-85767830D01*
X96869967Y-85767834D01*
X97005501Y-85961395D01*
X97005506Y-85961402D01*
X97172597Y-86128493D01*
X97172603Y-86128498D01*
X97358158Y-86258425D01*
X97401783Y-86313002D01*
X97408977Y-86382500D01*
X97377454Y-86444855D01*
X97358158Y-86461575D01*
X97172597Y-86591505D01*
X97005505Y-86758597D01*
X96869965Y-86952169D01*
X96869964Y-86952171D01*
X96770098Y-87166335D01*
X96770094Y-87166344D01*
X96708938Y-87394586D01*
X96708936Y-87394596D01*
X96688341Y-87629999D01*
X96688341Y-87630000D01*
X96708936Y-87865403D01*
X96708938Y-87865413D01*
X96770094Y-88093655D01*
X96770096Y-88093659D01*
X96770097Y-88093663D01*
X96869965Y-88307830D01*
X96869967Y-88307834D01*
X97005501Y-88501395D01*
X97005506Y-88501402D01*
X97172597Y-88668493D01*
X97172603Y-88668498D01*
X97358158Y-88798425D01*
X97401783Y-88853002D01*
X97408977Y-88922500D01*
X97377454Y-88984855D01*
X97358158Y-89001575D01*
X97172597Y-89131505D01*
X97005505Y-89298597D01*
X96869965Y-89492169D01*
X96869964Y-89492171D01*
X96770098Y-89706335D01*
X96770094Y-89706344D01*
X96708938Y-89934586D01*
X96708936Y-89934596D01*
X96688341Y-90169999D01*
X96688341Y-90170000D01*
X96708936Y-90405403D01*
X96708938Y-90405413D01*
X96770094Y-90633655D01*
X96770096Y-90633659D01*
X96770097Y-90633663D01*
X96802064Y-90702216D01*
X96869965Y-90847830D01*
X96869967Y-90847834D01*
X96978281Y-91002521D01*
X97005505Y-91041401D01*
X97172599Y-91208495D01*
X97269384Y-91276265D01*
X97366165Y-91344032D01*
X97366167Y-91344033D01*
X97366170Y-91344035D01*
X97580337Y-91443903D01*
X97808592Y-91505063D01*
X97996918Y-91521539D01*
X98043999Y-91525659D01*
X98044000Y-91525659D01*
X98044001Y-91525659D01*
X98083234Y-91522226D01*
X98279408Y-91505063D01*
X98379873Y-91478143D01*
X98449722Y-91479806D01*
X98499647Y-91510237D01*
X98813197Y-91823788D01*
X98823022Y-91836051D01*
X98823243Y-91835869D01*
X98828211Y-91841874D01*
X98877222Y-91887899D01*
X98880021Y-91890612D01*
X98899522Y-91910114D01*
X98899526Y-91910117D01*
X98899529Y-91910120D01*
X98902702Y-91912581D01*
X98911574Y-91920159D01*
X98943418Y-91950062D01*
X98960976Y-91959714D01*
X98977236Y-91970395D01*
X98989001Y-91979521D01*
X99029908Y-92036164D01*
X99033697Y-92105931D01*
X98999165Y-92166671D01*
X98937277Y-92199100D01*
X98913000Y-92201500D01*
X96136500Y-92201500D01*
X96069461Y-92181815D01*
X96023706Y-92129011D01*
X96012500Y-92077500D01*
X96012500Y-39251870D01*
X108885500Y-39251870D01*
X108885501Y-39251876D01*
X108891908Y-39311483D01*
X108942202Y-39446328D01*
X108942206Y-39446335D01*
X109028452Y-39561544D01*
X109028455Y-39561547D01*
X109143664Y-39647793D01*
X109143671Y-39647797D01*
X109278517Y-39698091D01*
X109278516Y-39698091D01*
X109285444Y-39698835D01*
X109338127Y-39704500D01*
X111133872Y-39704499D01*
X111193483Y-39698091D01*
X111328331Y-39647796D01*
X111443546Y-39561546D01*
X111529796Y-39446331D01*
X111578810Y-39314916D01*
X111620681Y-39258984D01*
X111686145Y-39234566D01*
X111754418Y-39249417D01*
X111782673Y-39270569D01*
X111904599Y-39392495D01*
X112001384Y-39460265D01*
X112098165Y-39528032D01*
X112098167Y-39528033D01*
X112098170Y-39528035D01*
X112312337Y-39627903D01*
X112540592Y-39689063D01*
X112717034Y-39704500D01*
X112775999Y-39709659D01*
X112776000Y-39709659D01*
X112776001Y-39709659D01*
X112834966Y-39704500D01*
X113011408Y-39689063D01*
X113239663Y-39627903D01*
X113453830Y-39528035D01*
X113647401Y-39392495D01*
X113814495Y-39225401D01*
X113950035Y-39031830D01*
X114049903Y-38817663D01*
X114111063Y-38589408D01*
X114131659Y-38354000D01*
X114111063Y-38118592D01*
X114049903Y-37890337D01*
X113950035Y-37676171D01*
X113814495Y-37482599D01*
X113814494Y-37482597D01*
X113647402Y-37315506D01*
X113647395Y-37315501D01*
X113453834Y-37179967D01*
X113453830Y-37179965D01*
X113453828Y-37179964D01*
X113239663Y-37080097D01*
X113239659Y-37080096D01*
X113239655Y-37080094D01*
X113011413Y-37018938D01*
X113011403Y-37018936D01*
X112776001Y-36998341D01*
X112775999Y-36998341D01*
X112540596Y-37018936D01*
X112540586Y-37018938D01*
X112312344Y-37080094D01*
X112312335Y-37080098D01*
X112098171Y-37179964D01*
X112098169Y-37179965D01*
X111904600Y-37315503D01*
X111782673Y-37437430D01*
X111721350Y-37470914D01*
X111651658Y-37465930D01*
X111595725Y-37424058D01*
X111578810Y-37393081D01*
X111529797Y-37261671D01*
X111529793Y-37261664D01*
X111443547Y-37146455D01*
X111443544Y-37146452D01*
X111328335Y-37060206D01*
X111328328Y-37060202D01*
X111193482Y-37009908D01*
X111193483Y-37009908D01*
X111133883Y-37003501D01*
X111133881Y-37003500D01*
X111133873Y-37003500D01*
X111133864Y-37003500D01*
X109338129Y-37003500D01*
X109338123Y-37003501D01*
X109278516Y-37009908D01*
X109143671Y-37060202D01*
X109143664Y-37060206D01*
X109028455Y-37146452D01*
X109028452Y-37146455D01*
X108942206Y-37261664D01*
X108942202Y-37261671D01*
X108891908Y-37396517D01*
X108885501Y-37456116D01*
X108885500Y-37456135D01*
X108885500Y-39251870D01*
X96012500Y-39251870D01*
X96012500Y-35684500D01*
X96032185Y-35617461D01*
X96084989Y-35571706D01*
X96136500Y-35560500D01*
X125097500Y-35560500D01*
X125164539Y-35580185D01*
G37*
G04 #@! TD.AperFunction*
G04 #@! TA.AperFunction,Conductor*
G36*
X109821886Y-61318796D02*
G01*
X109877620Y-61360933D01*
X109901725Y-61426513D01*
X109902000Y-61434770D01*
X109902000Y-61980000D01*
X110818314Y-61980000D01*
X110792507Y-62020156D01*
X110752000Y-62158111D01*
X110752000Y-62301889D01*
X110792507Y-62439844D01*
X110818314Y-62480000D01*
X109902000Y-62480000D01*
X109902000Y-63127844D01*
X109908401Y-63187372D01*
X109908403Y-63187379D01*
X109958645Y-63322086D01*
X109958649Y-63322093D01*
X110044809Y-63437187D01*
X110044812Y-63437190D01*
X110159906Y-63523350D01*
X110159913Y-63523354D01*
X110294620Y-63573596D01*
X110294627Y-63573598D01*
X110354155Y-63579999D01*
X110354172Y-63580000D01*
X110994742Y-63580000D01*
X111061781Y-63599685D01*
X111107536Y-63652489D01*
X111117480Y-63721647D01*
X111088455Y-63785203D01*
X111082423Y-63791681D01*
X111040923Y-63833181D01*
X110979600Y-63866666D01*
X110953242Y-63869500D01*
X110903354Y-63869500D01*
X110870897Y-63876398D01*
X110718197Y-63908855D01*
X110718192Y-63908857D01*
X110545270Y-63985848D01*
X110545265Y-63985851D01*
X110392129Y-64097111D01*
X110265466Y-64237785D01*
X110170821Y-64401715D01*
X110170818Y-64401722D01*
X110127645Y-64534596D01*
X110112326Y-64581744D01*
X110092540Y-64770000D01*
X110112326Y-64958256D01*
X110125299Y-64998182D01*
X110127294Y-65068022D01*
X110091214Y-65127855D01*
X110028513Y-65158684D01*
X110007368Y-65160500D01*
X102190743Y-65160500D01*
X102175122Y-65158775D01*
X102175096Y-65159061D01*
X102167334Y-65158327D01*
X102167333Y-65158327D01*
X102105109Y-65160282D01*
X102100127Y-65160439D01*
X102096232Y-65160500D01*
X102068647Y-65160500D01*
X102064661Y-65161003D01*
X102053037Y-65161918D01*
X102044935Y-65162173D01*
X102042521Y-65162248D01*
X101974897Y-65144683D01*
X101927503Y-65093345D01*
X101915389Y-65024533D01*
X101918847Y-65006214D01*
X101919063Y-65005408D01*
X101939659Y-64770000D01*
X101919063Y-64534592D01*
X101857903Y-64306337D01*
X101758035Y-64092171D01*
X101752425Y-64084158D01*
X101622494Y-63898597D01*
X101455402Y-63731506D01*
X101455396Y-63731501D01*
X101269842Y-63601575D01*
X101226217Y-63546998D01*
X101219023Y-63477500D01*
X101250546Y-63415145D01*
X101269842Y-63398425D01*
X101360262Y-63335112D01*
X101455401Y-63268495D01*
X101622495Y-63101401D01*
X101757505Y-62908587D01*
X101812082Y-62864962D01*
X101855187Y-62855771D01*
X101858193Y-62855676D01*
X101861876Y-62855561D01*
X101865768Y-62855500D01*
X101893346Y-62855500D01*
X101893350Y-62855500D01*
X101897324Y-62854997D01*
X101908963Y-62854080D01*
X101952627Y-62852709D01*
X101971869Y-62847117D01*
X101990912Y-62843174D01*
X102010792Y-62840664D01*
X102051401Y-62824585D01*
X102062444Y-62820803D01*
X102104390Y-62808618D01*
X102121629Y-62798422D01*
X102139103Y-62789862D01*
X102157727Y-62782488D01*
X102157727Y-62782487D01*
X102157732Y-62782486D01*
X102193083Y-62756800D01*
X102202814Y-62750408D01*
X102240420Y-62728170D01*
X102254589Y-62713999D01*
X102269379Y-62701368D01*
X102285587Y-62689594D01*
X102313438Y-62655926D01*
X102321279Y-62647309D01*
X103346772Y-61621819D01*
X103408095Y-61588334D01*
X103434453Y-61585500D01*
X108883257Y-61585500D01*
X108898877Y-61587224D01*
X108898904Y-61586939D01*
X108906660Y-61587671D01*
X108906667Y-61587673D01*
X108973873Y-61585561D01*
X108977768Y-61585500D01*
X109005346Y-61585500D01*
X109005350Y-61585500D01*
X109009324Y-61584997D01*
X109020963Y-61584080D01*
X109064627Y-61582709D01*
X109083869Y-61577117D01*
X109102912Y-61573174D01*
X109122792Y-61570664D01*
X109163401Y-61554585D01*
X109174444Y-61550803D01*
X109216390Y-61538618D01*
X109233629Y-61528422D01*
X109251103Y-61519862D01*
X109269727Y-61512488D01*
X109269727Y-61512487D01*
X109269732Y-61512486D01*
X109305083Y-61486800D01*
X109314814Y-61480408D01*
X109352420Y-61458170D01*
X109366589Y-61443999D01*
X109381379Y-61431368D01*
X109397587Y-61419594D01*
X109415895Y-61397463D01*
X109473793Y-61358353D01*
X109511441Y-61352500D01*
X109568644Y-61352500D01*
X109568646Y-61352500D01*
X109752221Y-61313480D01*
X109821886Y-61318796D01*
G37*
G04 #@! TD.AperFunction*
G04 #@! TA.AperFunction,Conductor*
G36*
X99398549Y-62896110D02*
G01*
X99415269Y-62915405D01*
X99545505Y-63101401D01*
X99545506Y-63101402D01*
X99712597Y-63268493D01*
X99712603Y-63268498D01*
X99898158Y-63398425D01*
X99941783Y-63453002D01*
X99948977Y-63522500D01*
X99917454Y-63584855D01*
X99898158Y-63601575D01*
X99712597Y-63731505D01*
X99545505Y-63898597D01*
X99415575Y-64084158D01*
X99360998Y-64127783D01*
X99291500Y-64134977D01*
X99229145Y-64103454D01*
X99212425Y-64084158D01*
X99082494Y-63898597D01*
X98915402Y-63731506D01*
X98915401Y-63731505D01*
X98729405Y-63601269D01*
X98685781Y-63546692D01*
X98678588Y-63477193D01*
X98710110Y-63414839D01*
X98729405Y-63398119D01*
X98915082Y-63268105D01*
X99082105Y-63101082D01*
X99212119Y-62915405D01*
X99266696Y-62871781D01*
X99336195Y-62864588D01*
X99398549Y-62896110D01*
G37*
G04 #@! TD.AperFunction*
G04 #@! TA.AperFunction,Conductor*
G36*
X122005160Y-62896110D02*
G01*
X122021879Y-62915405D01*
X122151890Y-63101078D01*
X122318917Y-63268105D01*
X122504595Y-63398119D01*
X122548219Y-63452696D01*
X122555412Y-63522195D01*
X122523890Y-63584549D01*
X122504595Y-63601269D01*
X122318594Y-63731508D01*
X122151505Y-63898597D01*
X122021575Y-64084158D01*
X121966998Y-64127783D01*
X121897500Y-64134977D01*
X121835145Y-64103454D01*
X121818425Y-64084158D01*
X121688494Y-63898597D01*
X121521402Y-63731506D01*
X121521396Y-63731501D01*
X121335842Y-63601575D01*
X121292217Y-63546998D01*
X121285023Y-63477500D01*
X121316546Y-63415145D01*
X121335842Y-63398425D01*
X121426262Y-63335112D01*
X121521401Y-63268495D01*
X121688495Y-63101401D01*
X121818730Y-62915405D01*
X121873307Y-62871781D01*
X121942805Y-62864587D01*
X122005160Y-62896110D01*
G37*
G04 #@! TD.AperFunction*
G04 #@! TA.AperFunction,Conductor*
G36*
X113040587Y-61097185D02*
G01*
X113061229Y-61113819D01*
X113291194Y-61343784D01*
X113301017Y-61356045D01*
X113301239Y-61355863D01*
X113306211Y-61361873D01*
X113306214Y-61361877D01*
X113344109Y-61397463D01*
X113355223Y-61407900D01*
X113358021Y-61410612D01*
X113377522Y-61430114D01*
X113377526Y-61430117D01*
X113377529Y-61430120D01*
X113380702Y-61432581D01*
X113389574Y-61440159D01*
X113421418Y-61470062D01*
X113438976Y-61479714D01*
X113455235Y-61490395D01*
X113471064Y-61502673D01*
X113511155Y-61520021D01*
X113521626Y-61525151D01*
X113544180Y-61537550D01*
X113559902Y-61546194D01*
X113559904Y-61546195D01*
X113559908Y-61546197D01*
X113579316Y-61551180D01*
X113597719Y-61557481D01*
X113616101Y-61565436D01*
X113616102Y-61565436D01*
X113616104Y-61565437D01*
X113659250Y-61572270D01*
X113670672Y-61574636D01*
X113712981Y-61585500D01*
X113733016Y-61585500D01*
X113752415Y-61587027D01*
X113772196Y-61590160D01*
X113812939Y-61586308D01*
X113815672Y-61586050D01*
X113827342Y-61585500D01*
X119265782Y-61585500D01*
X119332821Y-61605185D01*
X119378576Y-61657989D01*
X119388520Y-61727147D01*
X119378163Y-61761906D01*
X119376099Y-61766330D01*
X119376094Y-61766344D01*
X119314938Y-61994586D01*
X119314936Y-61994596D01*
X119294341Y-62229999D01*
X119294341Y-62230000D01*
X119314936Y-62465403D01*
X119314938Y-62465413D01*
X119376094Y-62693655D01*
X119376096Y-62693659D01*
X119376097Y-62693663D01*
X119455801Y-62864588D01*
X119475965Y-62907830D01*
X119475967Y-62907834D01*
X119584281Y-63062521D01*
X119611504Y-63101400D01*
X119611506Y-63101402D01*
X119778597Y-63268493D01*
X119778603Y-63268498D01*
X119964158Y-63398425D01*
X120007783Y-63453002D01*
X120014977Y-63522500D01*
X119983454Y-63584855D01*
X119964158Y-63601575D01*
X119870629Y-63667064D01*
X119804423Y-63689391D01*
X119736655Y-63672381D01*
X119692120Y-63627490D01*
X119604533Y-63475784D01*
X119477871Y-63335112D01*
X119477870Y-63335111D01*
X119324734Y-63223851D01*
X119324729Y-63223848D01*
X119151807Y-63146857D01*
X119151802Y-63146855D01*
X119006001Y-63115865D01*
X118966646Y-63107500D01*
X118777354Y-63107500D01*
X118744897Y-63114398D01*
X118592197Y-63146855D01*
X118592192Y-63146857D01*
X118419270Y-63223848D01*
X118419265Y-63223851D01*
X118266130Y-63335110D01*
X118266126Y-63335114D01*
X118260400Y-63341474D01*
X118200913Y-63378121D01*
X118168252Y-63382500D01*
X112701415Y-63382500D01*
X112634376Y-63362815D01*
X112588621Y-63310011D01*
X112578677Y-63240853D01*
X112585233Y-63215167D01*
X112595596Y-63187380D01*
X112595598Y-63187372D01*
X112601999Y-63127844D01*
X112602000Y-63127827D01*
X112602000Y-62480000D01*
X111685686Y-62480000D01*
X111711493Y-62439844D01*
X111752000Y-62301889D01*
X111752000Y-62158111D01*
X111711493Y-62020156D01*
X111685686Y-61980000D01*
X112602000Y-61980000D01*
X112602000Y-61332172D01*
X112601999Y-61332155D01*
X112595598Y-61272627D01*
X112595596Y-61272619D01*
X112585233Y-61244833D01*
X112580249Y-61175141D01*
X112613734Y-61113818D01*
X112675058Y-61080334D01*
X112701415Y-61077500D01*
X112973548Y-61077500D01*
X113040587Y-61097185D01*
G37*
G04 #@! TD.AperFunction*
M02*
