M48
; DRILL file {KiCad 7.0.10} date Sat Aug  3 14:28:42 2024
; FORMAT={-:-/ absolute / metric / decimal}
; #@! TF.CreationDate,2024-08-03T14:28:42+12:00
; #@! TF.GenerationSoftware,Kicad,Pcbnew,7.0.10
; #@! TF.FileFunction,Plated,1,2,PTH
FMAT,2
METRIC
; #@! TA.AperFunction,Plated,PTH,ViaDrill
T1C0.400
; #@! TA.AperFunction,Plated,PTH,ComponentDrill
T2C1.000
%
G90
G05
T1
X103.632Y-40.64
X103.632Y-90.17
X104.394Y-43.18
X104.394Y-87.63
X105.156Y-45.72
X105.156Y-85.09
X105.918Y-48.26
X105.918Y-82.55
X106.68Y-50.8
X106.68Y-80.01
X107.442Y-53.34
X107.442Y-77.47
X107.677Y-74.911
X108.204Y-55.88
X108.966Y-58.42
X109.22Y-72.39
X109.474Y-60.452
X109.982Y-67.31
X110.49Y-69.088
X110.998Y-64.77
X112.014Y-64.77
X112.014Y-66.548
X112.268Y-71.374
X112.776Y-59.69
X113.03Y-57.15
X113.157Y-74.205
X113.792Y-54.61
X113.792Y-76.708
X114.554Y-52.07
X114.554Y-79.248
X115.316Y-49.53
X115.316Y-81.788
X116.078Y-46.99
X116.078Y-84.365
X116.84Y-44.45
X116.84Y-86.868
X117.602Y-41.91
X117.602Y-89.154
X118.872Y-64.008
T2
X98.044Y-41.91
X98.044Y-44.45
X98.044Y-46.99
X98.044Y-49.53
X98.044Y-52.07
X98.044Y-54.61
X98.044Y-57.15
X98.044Y-59.69
X98.044Y-62.23
X98.044Y-64.77
X98.044Y-67.31
X98.044Y-69.85
X98.044Y-72.39
X98.044Y-74.93
X98.044Y-77.47
X98.044Y-80.01
X98.044Y-82.55
X98.044Y-85.09
X98.044Y-87.63
X98.044Y-90.17
X100.584Y-41.91
X100.584Y-44.45
X100.584Y-46.99
X100.584Y-49.53
X100.584Y-52.07
X100.584Y-54.61
X100.584Y-57.15
X100.584Y-59.69
X100.584Y-62.23
X100.584Y-64.77
X100.584Y-67.31
X100.584Y-69.85
X100.584Y-72.39
X100.584Y-74.93
X100.584Y-77.47
X100.584Y-80.01
X100.584Y-82.55
X100.584Y-85.09
X100.584Y-87.63
X100.584Y-90.17
X110.236Y-38.354
X111.252Y-62.23
X112.776Y-38.354
X120.65Y-41.91
X120.65Y-44.45
X120.65Y-46.99
X120.65Y-49.53
X120.65Y-52.07
X120.65Y-54.61
X120.65Y-57.15
X120.65Y-59.69
X120.65Y-62.23
X120.65Y-64.77
X120.65Y-67.31
X120.65Y-69.85
X120.65Y-72.39
X120.65Y-74.93
X120.65Y-77.47
X120.65Y-80.01
X120.65Y-82.55
X120.65Y-85.09
X120.65Y-87.63
X120.65Y-90.17
X123.19Y-41.91
X123.19Y-44.45
X123.19Y-46.99
X123.19Y-49.53
X123.19Y-52.07
X123.19Y-54.61
X123.19Y-57.15
X123.19Y-59.69
X123.19Y-62.23
X123.19Y-64.77
X123.19Y-67.31
X123.19Y-69.85
X123.19Y-72.39
X123.19Y-74.93
X123.19Y-77.47
X123.19Y-80.01
X123.19Y-82.55
X123.19Y-85.09
X123.19Y-87.63
X123.19Y-90.17
M30
