G04 #@! TF.GenerationSoftware,KiCad,Pcbnew,7.0.10*
G04 #@! TF.CreationDate,2024-08-03T14:28:38+12:00*
G04 #@! TF.ProjectId,Z80 Bus Adapter,5a383020-4275-4732-9041-646170746572,rev?*
G04 #@! TF.SameCoordinates,Original*
G04 #@! TF.FileFunction,Legend,Top*
G04 #@! TF.FilePolarity,Positive*
%FSLAX46Y46*%
G04 Gerber Fmt 4.6, Leading zero omitted, Abs format (unit mm)*
G04 Created by KiCad (PCBNEW 7.0.10) date 2024-08-03 14:28:38*
%MOMM*%
%LPD*%
G01*
G04 APERTURE LIST*
%ADD10C,0.150000*%
%ADD11C,0.120000*%
%ADD12R,1.700000X1.700000*%
%ADD13O,1.700000X1.700000*%
G04 APERTURE END LIST*
D10*
X119462779Y-39747819D02*
X119462779Y-38747819D01*
X120034207Y-39747819D02*
X119605636Y-39176390D01*
X120034207Y-38747819D02*
X119462779Y-39319247D01*
X120462779Y-39747819D02*
X120462779Y-38747819D01*
X120796112Y-38747819D02*
X121367540Y-38747819D01*
X121081826Y-39747819D02*
X121081826Y-38747819D01*
X102698779Y-91817819D02*
X102698779Y-90817819D01*
X102698779Y-90817819D02*
X103079731Y-90817819D01*
X103079731Y-90817819D02*
X103174969Y-90865438D01*
X103174969Y-90865438D02*
X103222588Y-90913057D01*
X103222588Y-90913057D02*
X103270207Y-91008295D01*
X103270207Y-91008295D02*
X103270207Y-91151152D01*
X103270207Y-91151152D02*
X103222588Y-91246390D01*
X103222588Y-91246390D02*
X103174969Y-91294009D01*
X103174969Y-91294009D02*
X103079731Y-91341628D01*
X103079731Y-91341628D02*
X102698779Y-91341628D01*
X103698779Y-91817819D02*
X103698779Y-91151152D01*
X103698779Y-90817819D02*
X103651160Y-90865438D01*
X103651160Y-90865438D02*
X103698779Y-90913057D01*
X103698779Y-90913057D02*
X103746398Y-90865438D01*
X103746398Y-90865438D02*
X103698779Y-90817819D01*
X103698779Y-90817819D02*
X103698779Y-90913057D01*
X104174969Y-91151152D02*
X104174969Y-91817819D01*
X104174969Y-91246390D02*
X104222588Y-91198771D01*
X104222588Y-91198771D02*
X104317826Y-91151152D01*
X104317826Y-91151152D02*
X104460683Y-91151152D01*
X104460683Y-91151152D02*
X104555921Y-91198771D01*
X104555921Y-91198771D02*
X104603540Y-91294009D01*
X104603540Y-91294009D02*
X104603540Y-91817819D01*
X106365445Y-91817819D02*
X105794017Y-91817819D01*
X106079731Y-91817819D02*
X106079731Y-90817819D01*
X106079731Y-90817819D02*
X105984493Y-90960676D01*
X105984493Y-90960676D02*
X105889255Y-91055914D01*
X105889255Y-91055914D02*
X105794017Y-91103533D01*
X105095922Y-37731819D02*
X105429255Y-38731819D01*
X105429255Y-38731819D02*
X105762588Y-37731819D01*
X106667350Y-38636580D02*
X106619731Y-38684200D01*
X106619731Y-38684200D02*
X106476874Y-38731819D01*
X106476874Y-38731819D02*
X106381636Y-38731819D01*
X106381636Y-38731819D02*
X106238779Y-38684200D01*
X106238779Y-38684200D02*
X106143541Y-38588961D01*
X106143541Y-38588961D02*
X106095922Y-38493723D01*
X106095922Y-38493723D02*
X106048303Y-38303247D01*
X106048303Y-38303247D02*
X106048303Y-38160390D01*
X106048303Y-38160390D02*
X106095922Y-37969914D01*
X106095922Y-37969914D02*
X106143541Y-37874676D01*
X106143541Y-37874676D02*
X106238779Y-37779438D01*
X106238779Y-37779438D02*
X106381636Y-37731819D01*
X106381636Y-37731819D02*
X106476874Y-37731819D01*
X106476874Y-37731819D02*
X106619731Y-37779438D01*
X106619731Y-37779438D02*
X106667350Y-37827057D01*
X107667350Y-38636580D02*
X107619731Y-38684200D01*
X107619731Y-38684200D02*
X107476874Y-38731819D01*
X107476874Y-38731819D02*
X107381636Y-38731819D01*
X107381636Y-38731819D02*
X107238779Y-38684200D01*
X107238779Y-38684200D02*
X107143541Y-38588961D01*
X107143541Y-38588961D02*
X107095922Y-38493723D01*
X107095922Y-38493723D02*
X107048303Y-38303247D01*
X107048303Y-38303247D02*
X107048303Y-38160390D01*
X107048303Y-38160390D02*
X107095922Y-37969914D01*
X107095922Y-37969914D02*
X107143541Y-37874676D01*
X107143541Y-37874676D02*
X107238779Y-37779438D01*
X107238779Y-37779438D02*
X107381636Y-37731819D01*
X107381636Y-37731819D02*
X107476874Y-37731819D01*
X107476874Y-37731819D02*
X107619731Y-37779438D01*
X107619731Y-37779438D02*
X107667350Y-37827057D01*
X107593238Y-83701819D02*
X108259904Y-83701819D01*
X108259904Y-83701819D02*
X107593238Y-84701819D01*
X107593238Y-84701819D02*
X108259904Y-84701819D01*
X108783714Y-84130390D02*
X108688476Y-84082771D01*
X108688476Y-84082771D02*
X108640857Y-84035152D01*
X108640857Y-84035152D02*
X108593238Y-83939914D01*
X108593238Y-83939914D02*
X108593238Y-83892295D01*
X108593238Y-83892295D02*
X108640857Y-83797057D01*
X108640857Y-83797057D02*
X108688476Y-83749438D01*
X108688476Y-83749438D02*
X108783714Y-83701819D01*
X108783714Y-83701819D02*
X108974190Y-83701819D01*
X108974190Y-83701819D02*
X109069428Y-83749438D01*
X109069428Y-83749438D02*
X109117047Y-83797057D01*
X109117047Y-83797057D02*
X109164666Y-83892295D01*
X109164666Y-83892295D02*
X109164666Y-83939914D01*
X109164666Y-83939914D02*
X109117047Y-84035152D01*
X109117047Y-84035152D02*
X109069428Y-84082771D01*
X109069428Y-84082771D02*
X108974190Y-84130390D01*
X108974190Y-84130390D02*
X108783714Y-84130390D01*
X108783714Y-84130390D02*
X108688476Y-84178009D01*
X108688476Y-84178009D02*
X108640857Y-84225628D01*
X108640857Y-84225628D02*
X108593238Y-84320866D01*
X108593238Y-84320866D02*
X108593238Y-84511342D01*
X108593238Y-84511342D02*
X108640857Y-84606580D01*
X108640857Y-84606580D02*
X108688476Y-84654200D01*
X108688476Y-84654200D02*
X108783714Y-84701819D01*
X108783714Y-84701819D02*
X108974190Y-84701819D01*
X108974190Y-84701819D02*
X109069428Y-84654200D01*
X109069428Y-84654200D02*
X109117047Y-84606580D01*
X109117047Y-84606580D02*
X109164666Y-84511342D01*
X109164666Y-84511342D02*
X109164666Y-84320866D01*
X109164666Y-84320866D02*
X109117047Y-84225628D01*
X109117047Y-84225628D02*
X109069428Y-84178009D01*
X109069428Y-84178009D02*
X108974190Y-84130390D01*
X109783714Y-83701819D02*
X109878952Y-83701819D01*
X109878952Y-83701819D02*
X109974190Y-83749438D01*
X109974190Y-83749438D02*
X110021809Y-83797057D01*
X110021809Y-83797057D02*
X110069428Y-83892295D01*
X110069428Y-83892295D02*
X110117047Y-84082771D01*
X110117047Y-84082771D02*
X110117047Y-84320866D01*
X110117047Y-84320866D02*
X110069428Y-84511342D01*
X110069428Y-84511342D02*
X110021809Y-84606580D01*
X110021809Y-84606580D02*
X109974190Y-84654200D01*
X109974190Y-84654200D02*
X109878952Y-84701819D01*
X109878952Y-84701819D02*
X109783714Y-84701819D01*
X109783714Y-84701819D02*
X109688476Y-84654200D01*
X109688476Y-84654200D02*
X109640857Y-84606580D01*
X109640857Y-84606580D02*
X109593238Y-84511342D01*
X109593238Y-84511342D02*
X109545619Y-84320866D01*
X109545619Y-84320866D02*
X109545619Y-84082771D01*
X109545619Y-84082771D02*
X109593238Y-83892295D01*
X109593238Y-83892295D02*
X109640857Y-83797057D01*
X109640857Y-83797057D02*
X109688476Y-83749438D01*
X109688476Y-83749438D02*
X109783714Y-83701819D01*
X111640857Y-84178009D02*
X111783714Y-84225628D01*
X111783714Y-84225628D02*
X111831333Y-84273247D01*
X111831333Y-84273247D02*
X111878952Y-84368485D01*
X111878952Y-84368485D02*
X111878952Y-84511342D01*
X111878952Y-84511342D02*
X111831333Y-84606580D01*
X111831333Y-84606580D02*
X111783714Y-84654200D01*
X111783714Y-84654200D02*
X111688476Y-84701819D01*
X111688476Y-84701819D02*
X111307524Y-84701819D01*
X111307524Y-84701819D02*
X111307524Y-83701819D01*
X111307524Y-83701819D02*
X111640857Y-83701819D01*
X111640857Y-83701819D02*
X111736095Y-83749438D01*
X111736095Y-83749438D02*
X111783714Y-83797057D01*
X111783714Y-83797057D02*
X111831333Y-83892295D01*
X111831333Y-83892295D02*
X111831333Y-83987533D01*
X111831333Y-83987533D02*
X111783714Y-84082771D01*
X111783714Y-84082771D02*
X111736095Y-84130390D01*
X111736095Y-84130390D02*
X111640857Y-84178009D01*
X111640857Y-84178009D02*
X111307524Y-84178009D01*
X112736095Y-84035152D02*
X112736095Y-84701819D01*
X112307524Y-84035152D02*
X112307524Y-84558961D01*
X112307524Y-84558961D02*
X112355143Y-84654200D01*
X112355143Y-84654200D02*
X112450381Y-84701819D01*
X112450381Y-84701819D02*
X112593238Y-84701819D01*
X112593238Y-84701819D02*
X112688476Y-84654200D01*
X112688476Y-84654200D02*
X112736095Y-84606580D01*
X113164667Y-84654200D02*
X113259905Y-84701819D01*
X113259905Y-84701819D02*
X113450381Y-84701819D01*
X113450381Y-84701819D02*
X113545619Y-84654200D01*
X113545619Y-84654200D02*
X113593238Y-84558961D01*
X113593238Y-84558961D02*
X113593238Y-84511342D01*
X113593238Y-84511342D02*
X113545619Y-84416104D01*
X113545619Y-84416104D02*
X113450381Y-84368485D01*
X113450381Y-84368485D02*
X113307524Y-84368485D01*
X113307524Y-84368485D02*
X113212286Y-84320866D01*
X113212286Y-84320866D02*
X113164667Y-84225628D01*
X113164667Y-84225628D02*
X113164667Y-84178009D01*
X113164667Y-84178009D02*
X113212286Y-84082771D01*
X113212286Y-84082771D02*
X113307524Y-84035152D01*
X113307524Y-84035152D02*
X113450381Y-84035152D01*
X113450381Y-84035152D02*
X113545619Y-84082771D01*
X106950380Y-86026104D02*
X107426570Y-86026104D01*
X106855142Y-86311819D02*
X107188475Y-85311819D01*
X107188475Y-85311819D02*
X107521808Y-86311819D01*
X108283713Y-86311819D02*
X108283713Y-85311819D01*
X108283713Y-86264200D02*
X108188475Y-86311819D01*
X108188475Y-86311819D02*
X107997999Y-86311819D01*
X107997999Y-86311819D02*
X107902761Y-86264200D01*
X107902761Y-86264200D02*
X107855142Y-86216580D01*
X107855142Y-86216580D02*
X107807523Y-86121342D01*
X107807523Y-86121342D02*
X107807523Y-85835628D01*
X107807523Y-85835628D02*
X107855142Y-85740390D01*
X107855142Y-85740390D02*
X107902761Y-85692771D01*
X107902761Y-85692771D02*
X107997999Y-85645152D01*
X107997999Y-85645152D02*
X108188475Y-85645152D01*
X108188475Y-85645152D02*
X108283713Y-85692771D01*
X109188475Y-86311819D02*
X109188475Y-85788009D01*
X109188475Y-85788009D02*
X109140856Y-85692771D01*
X109140856Y-85692771D02*
X109045618Y-85645152D01*
X109045618Y-85645152D02*
X108855142Y-85645152D01*
X108855142Y-85645152D02*
X108759904Y-85692771D01*
X109188475Y-86264200D02*
X109093237Y-86311819D01*
X109093237Y-86311819D02*
X108855142Y-86311819D01*
X108855142Y-86311819D02*
X108759904Y-86264200D01*
X108759904Y-86264200D02*
X108712285Y-86168961D01*
X108712285Y-86168961D02*
X108712285Y-86073723D01*
X108712285Y-86073723D02*
X108759904Y-85978485D01*
X108759904Y-85978485D02*
X108855142Y-85930866D01*
X108855142Y-85930866D02*
X109093237Y-85930866D01*
X109093237Y-85930866D02*
X109188475Y-85883247D01*
X109664666Y-85645152D02*
X109664666Y-86645152D01*
X109664666Y-85692771D02*
X109759904Y-85645152D01*
X109759904Y-85645152D02*
X109950380Y-85645152D01*
X109950380Y-85645152D02*
X110045618Y-85692771D01*
X110045618Y-85692771D02*
X110093237Y-85740390D01*
X110093237Y-85740390D02*
X110140856Y-85835628D01*
X110140856Y-85835628D02*
X110140856Y-86121342D01*
X110140856Y-86121342D02*
X110093237Y-86216580D01*
X110093237Y-86216580D02*
X110045618Y-86264200D01*
X110045618Y-86264200D02*
X109950380Y-86311819D01*
X109950380Y-86311819D02*
X109759904Y-86311819D01*
X109759904Y-86311819D02*
X109664666Y-86264200D01*
X110426571Y-85645152D02*
X110807523Y-85645152D01*
X110569428Y-85311819D02*
X110569428Y-86168961D01*
X110569428Y-86168961D02*
X110617047Y-86264200D01*
X110617047Y-86264200D02*
X110712285Y-86311819D01*
X110712285Y-86311819D02*
X110807523Y-86311819D01*
X111521809Y-86264200D02*
X111426571Y-86311819D01*
X111426571Y-86311819D02*
X111236095Y-86311819D01*
X111236095Y-86311819D02*
X111140857Y-86264200D01*
X111140857Y-86264200D02*
X111093238Y-86168961D01*
X111093238Y-86168961D02*
X111093238Y-85788009D01*
X111093238Y-85788009D02*
X111140857Y-85692771D01*
X111140857Y-85692771D02*
X111236095Y-85645152D01*
X111236095Y-85645152D02*
X111426571Y-85645152D01*
X111426571Y-85645152D02*
X111521809Y-85692771D01*
X111521809Y-85692771D02*
X111569428Y-85788009D01*
X111569428Y-85788009D02*
X111569428Y-85883247D01*
X111569428Y-85883247D02*
X111093238Y-85978485D01*
X111998000Y-86311819D02*
X111998000Y-85645152D01*
X111998000Y-85835628D02*
X112045619Y-85740390D01*
X112045619Y-85740390D02*
X112093238Y-85692771D01*
X112093238Y-85692771D02*
X112188476Y-85645152D01*
X112188476Y-85645152D02*
X112283714Y-85645152D01*
X113236096Y-85645152D02*
X113617048Y-85645152D01*
X113378953Y-86311819D02*
X113378953Y-85454676D01*
X113378953Y-85454676D02*
X113426572Y-85359438D01*
X113426572Y-85359438D02*
X113521810Y-85311819D01*
X113521810Y-85311819D02*
X113617048Y-85311819D01*
X114093239Y-86311819D02*
X113998001Y-86264200D01*
X113998001Y-86264200D02*
X113950382Y-86216580D01*
X113950382Y-86216580D02*
X113902763Y-86121342D01*
X113902763Y-86121342D02*
X113902763Y-85835628D01*
X113902763Y-85835628D02*
X113950382Y-85740390D01*
X113950382Y-85740390D02*
X113998001Y-85692771D01*
X113998001Y-85692771D02*
X114093239Y-85645152D01*
X114093239Y-85645152D02*
X114236096Y-85645152D01*
X114236096Y-85645152D02*
X114331334Y-85692771D01*
X114331334Y-85692771D02*
X114378953Y-85740390D01*
X114378953Y-85740390D02*
X114426572Y-85835628D01*
X114426572Y-85835628D02*
X114426572Y-86121342D01*
X114426572Y-86121342D02*
X114378953Y-86216580D01*
X114378953Y-86216580D02*
X114331334Y-86264200D01*
X114331334Y-86264200D02*
X114236096Y-86311819D01*
X114236096Y-86311819D02*
X114093239Y-86311819D01*
X114855144Y-86311819D02*
X114855144Y-85645152D01*
X114855144Y-85835628D02*
X114902763Y-85740390D01*
X114902763Y-85740390D02*
X114950382Y-85692771D01*
X114950382Y-85692771D02*
X115045620Y-85645152D01*
X115045620Y-85645152D02*
X115140858Y-85645152D01*
X107664667Y-87921819D02*
X107664667Y-86921819D01*
X108236095Y-87921819D02*
X107807524Y-87350390D01*
X108236095Y-86921819D02*
X107664667Y-87493247D01*
X108617048Y-87874200D02*
X108759905Y-87921819D01*
X108759905Y-87921819D02*
X108998000Y-87921819D01*
X108998000Y-87921819D02*
X109093238Y-87874200D01*
X109093238Y-87874200D02*
X109140857Y-87826580D01*
X109140857Y-87826580D02*
X109188476Y-87731342D01*
X109188476Y-87731342D02*
X109188476Y-87636104D01*
X109188476Y-87636104D02*
X109140857Y-87540866D01*
X109140857Y-87540866D02*
X109093238Y-87493247D01*
X109093238Y-87493247D02*
X108998000Y-87445628D01*
X108998000Y-87445628D02*
X108807524Y-87398009D01*
X108807524Y-87398009D02*
X108712286Y-87350390D01*
X108712286Y-87350390D02*
X108664667Y-87302771D01*
X108664667Y-87302771D02*
X108617048Y-87207533D01*
X108617048Y-87207533D02*
X108617048Y-87112295D01*
X108617048Y-87112295D02*
X108664667Y-87017057D01*
X108664667Y-87017057D02*
X108712286Y-86969438D01*
X108712286Y-86969438D02*
X108807524Y-86921819D01*
X108807524Y-86921819D02*
X109045619Y-86921819D01*
X109045619Y-86921819D02*
X109188476Y-86969438D01*
X110283715Y-86921819D02*
X110521810Y-87921819D01*
X110521810Y-87921819D02*
X110712286Y-87207533D01*
X110712286Y-87207533D02*
X110902762Y-87921819D01*
X110902762Y-87921819D02*
X111140858Y-86921819D01*
X111521810Y-87921819D02*
X111521810Y-87255152D01*
X111521810Y-86921819D02*
X111474191Y-86969438D01*
X111474191Y-86969438D02*
X111521810Y-87017057D01*
X111521810Y-87017057D02*
X111569429Y-86969438D01*
X111569429Y-86969438D02*
X111521810Y-86921819D01*
X111521810Y-86921819D02*
X111521810Y-87017057D01*
X112426571Y-87874200D02*
X112331333Y-87921819D01*
X112331333Y-87921819D02*
X112140857Y-87921819D01*
X112140857Y-87921819D02*
X112045619Y-87874200D01*
X112045619Y-87874200D02*
X111998000Y-87826580D01*
X111998000Y-87826580D02*
X111950381Y-87731342D01*
X111950381Y-87731342D02*
X111950381Y-87445628D01*
X111950381Y-87445628D02*
X111998000Y-87350390D01*
X111998000Y-87350390D02*
X112045619Y-87302771D01*
X112045619Y-87302771D02*
X112140857Y-87255152D01*
X112140857Y-87255152D02*
X112331333Y-87255152D01*
X112331333Y-87255152D02*
X112426571Y-87302771D01*
X112855143Y-87921819D02*
X112855143Y-86921819D01*
X113283714Y-87921819D02*
X113283714Y-87398009D01*
X113283714Y-87398009D02*
X113236095Y-87302771D01*
X113236095Y-87302771D02*
X113140857Y-87255152D01*
X113140857Y-87255152D02*
X112998000Y-87255152D01*
X112998000Y-87255152D02*
X112902762Y-87302771D01*
X112902762Y-87302771D02*
X112855143Y-87350390D01*
X113759905Y-87921819D02*
X113759905Y-87255152D01*
X113759905Y-86921819D02*
X113712286Y-86969438D01*
X113712286Y-86969438D02*
X113759905Y-87017057D01*
X113759905Y-87017057D02*
X113807524Y-86969438D01*
X113807524Y-86969438D02*
X113759905Y-86921819D01*
X113759905Y-86921819D02*
X113759905Y-87017057D01*
X114093238Y-87255152D02*
X114474190Y-87255152D01*
X114236095Y-86921819D02*
X114236095Y-87778961D01*
X114236095Y-87778961D02*
X114283714Y-87874200D01*
X114283714Y-87874200D02*
X114378952Y-87921819D01*
X114378952Y-87921819D02*
X114474190Y-87921819D01*
X106974190Y-88531819D02*
X107640856Y-88531819D01*
X107640856Y-88531819D02*
X106974190Y-89531819D01*
X106974190Y-89531819D02*
X107640856Y-89531819D01*
X108164666Y-88960390D02*
X108069428Y-88912771D01*
X108069428Y-88912771D02*
X108021809Y-88865152D01*
X108021809Y-88865152D02*
X107974190Y-88769914D01*
X107974190Y-88769914D02*
X107974190Y-88722295D01*
X107974190Y-88722295D02*
X108021809Y-88627057D01*
X108021809Y-88627057D02*
X108069428Y-88579438D01*
X108069428Y-88579438D02*
X108164666Y-88531819D01*
X108164666Y-88531819D02*
X108355142Y-88531819D01*
X108355142Y-88531819D02*
X108450380Y-88579438D01*
X108450380Y-88579438D02*
X108497999Y-88627057D01*
X108497999Y-88627057D02*
X108545618Y-88722295D01*
X108545618Y-88722295D02*
X108545618Y-88769914D01*
X108545618Y-88769914D02*
X108497999Y-88865152D01*
X108497999Y-88865152D02*
X108450380Y-88912771D01*
X108450380Y-88912771D02*
X108355142Y-88960390D01*
X108355142Y-88960390D02*
X108164666Y-88960390D01*
X108164666Y-88960390D02*
X108069428Y-89008009D01*
X108069428Y-89008009D02*
X108021809Y-89055628D01*
X108021809Y-89055628D02*
X107974190Y-89150866D01*
X107974190Y-89150866D02*
X107974190Y-89341342D01*
X107974190Y-89341342D02*
X108021809Y-89436580D01*
X108021809Y-89436580D02*
X108069428Y-89484200D01*
X108069428Y-89484200D02*
X108164666Y-89531819D01*
X108164666Y-89531819D02*
X108355142Y-89531819D01*
X108355142Y-89531819D02*
X108450380Y-89484200D01*
X108450380Y-89484200D02*
X108497999Y-89436580D01*
X108497999Y-89436580D02*
X108545618Y-89341342D01*
X108545618Y-89341342D02*
X108545618Y-89150866D01*
X108545618Y-89150866D02*
X108497999Y-89055628D01*
X108497999Y-89055628D02*
X108450380Y-89008009D01*
X108450380Y-89008009D02*
X108355142Y-88960390D01*
X109164666Y-88531819D02*
X109259904Y-88531819D01*
X109259904Y-88531819D02*
X109355142Y-88579438D01*
X109355142Y-88579438D02*
X109402761Y-88627057D01*
X109402761Y-88627057D02*
X109450380Y-88722295D01*
X109450380Y-88722295D02*
X109497999Y-88912771D01*
X109497999Y-88912771D02*
X109497999Y-89150866D01*
X109497999Y-89150866D02*
X109450380Y-89341342D01*
X109450380Y-89341342D02*
X109402761Y-89436580D01*
X109402761Y-89436580D02*
X109355142Y-89484200D01*
X109355142Y-89484200D02*
X109259904Y-89531819D01*
X109259904Y-89531819D02*
X109164666Y-89531819D01*
X109164666Y-89531819D02*
X109069428Y-89484200D01*
X109069428Y-89484200D02*
X109021809Y-89436580D01*
X109021809Y-89436580D02*
X108974190Y-89341342D01*
X108974190Y-89341342D02*
X108926571Y-89150866D01*
X108926571Y-89150866D02*
X108926571Y-88912771D01*
X108926571Y-88912771D02*
X108974190Y-88722295D01*
X108974190Y-88722295D02*
X109021809Y-88627057D01*
X109021809Y-88627057D02*
X109069428Y-88579438D01*
X109069428Y-88579438D02*
X109164666Y-88531819D01*
X111117047Y-88865152D02*
X111117047Y-89531819D01*
X110688476Y-88865152D02*
X110688476Y-89388961D01*
X110688476Y-89388961D02*
X110736095Y-89484200D01*
X110736095Y-89484200D02*
X110831333Y-89531819D01*
X110831333Y-89531819D02*
X110974190Y-89531819D01*
X110974190Y-89531819D02*
X111069428Y-89484200D01*
X111069428Y-89484200D02*
X111117047Y-89436580D01*
X111593238Y-89531819D02*
X111593238Y-88531819D01*
X111593238Y-88531819D02*
X111974190Y-88531819D01*
X111974190Y-88531819D02*
X112069428Y-88579438D01*
X112069428Y-88579438D02*
X112117047Y-88627057D01*
X112117047Y-88627057D02*
X112164666Y-88722295D01*
X112164666Y-88722295D02*
X112164666Y-88865152D01*
X112164666Y-88865152D02*
X112117047Y-88960390D01*
X112117047Y-88960390D02*
X112069428Y-89008009D01*
X112069428Y-89008009D02*
X111974190Y-89055628D01*
X111974190Y-89055628D02*
X111593238Y-89055628D01*
X113355143Y-89531819D02*
X113355143Y-88531819D01*
X113926571Y-89531819D02*
X113498000Y-88960390D01*
X113926571Y-88531819D02*
X113355143Y-89103247D01*
X114355143Y-89531819D02*
X114355143Y-88865152D01*
X114355143Y-88531819D02*
X114307524Y-88579438D01*
X114307524Y-88579438D02*
X114355143Y-88627057D01*
X114355143Y-88627057D02*
X114402762Y-88579438D01*
X114402762Y-88579438D02*
X114355143Y-88531819D01*
X114355143Y-88531819D02*
X114355143Y-88627057D01*
X114688476Y-88865152D02*
X115069428Y-88865152D01*
X114831333Y-88531819D02*
X114831333Y-89388961D01*
X114831333Y-89388961D02*
X114878952Y-89484200D01*
X114878952Y-89484200D02*
X114974190Y-89531819D01*
X114974190Y-89531819D02*
X115069428Y-89531819D01*
X96856779Y-39224009D02*
X97190112Y-39224009D01*
X97332969Y-39747819D02*
X96856779Y-39747819D01*
X96856779Y-39747819D02*
X96856779Y-38747819D01*
X96856779Y-38747819D02*
X97332969Y-38747819D01*
X97666303Y-38747819D02*
X98332969Y-39747819D01*
X98332969Y-38747819D02*
X97666303Y-39747819D01*
X98713922Y-39747819D02*
X98713922Y-38747819D01*
X98713922Y-38747819D02*
X99094874Y-38747819D01*
X99094874Y-38747819D02*
X99190112Y-38795438D01*
X99190112Y-38795438D02*
X99237731Y-38843057D01*
X99237731Y-38843057D02*
X99285350Y-38938295D01*
X99285350Y-38938295D02*
X99285350Y-39081152D01*
X99285350Y-39081152D02*
X99237731Y-39176390D01*
X99237731Y-39176390D02*
X99190112Y-39224009D01*
X99190112Y-39224009D02*
X99094874Y-39271628D01*
X99094874Y-39271628D02*
X98713922Y-39271628D01*
X107286588Y-61655438D02*
X107191350Y-61607819D01*
X107191350Y-61607819D02*
X107048493Y-61607819D01*
X107048493Y-61607819D02*
X106905636Y-61655438D01*
X106905636Y-61655438D02*
X106810398Y-61750676D01*
X106810398Y-61750676D02*
X106762779Y-61845914D01*
X106762779Y-61845914D02*
X106715160Y-62036390D01*
X106715160Y-62036390D02*
X106715160Y-62179247D01*
X106715160Y-62179247D02*
X106762779Y-62369723D01*
X106762779Y-62369723D02*
X106810398Y-62464961D01*
X106810398Y-62464961D02*
X106905636Y-62560200D01*
X106905636Y-62560200D02*
X107048493Y-62607819D01*
X107048493Y-62607819D02*
X107143731Y-62607819D01*
X107143731Y-62607819D02*
X107286588Y-62560200D01*
X107286588Y-62560200D02*
X107334207Y-62512580D01*
X107334207Y-62512580D02*
X107334207Y-62179247D01*
X107334207Y-62179247D02*
X107143731Y-62179247D01*
X107762779Y-62607819D02*
X107762779Y-61607819D01*
X107762779Y-61607819D02*
X108334207Y-62607819D01*
X108334207Y-62607819D02*
X108334207Y-61607819D01*
X108810398Y-62607819D02*
X108810398Y-61607819D01*
X108810398Y-61607819D02*
X109048493Y-61607819D01*
X109048493Y-61607819D02*
X109191350Y-61655438D01*
X109191350Y-61655438D02*
X109286588Y-61750676D01*
X109286588Y-61750676D02*
X109334207Y-61845914D01*
X109334207Y-61845914D02*
X109381826Y-62036390D01*
X109381826Y-62036390D02*
X109381826Y-62179247D01*
X109381826Y-62179247D02*
X109334207Y-62369723D01*
X109334207Y-62369723D02*
X109286588Y-62464961D01*
X109286588Y-62464961D02*
X109191350Y-62560200D01*
X109191350Y-62560200D02*
X109048493Y-62607819D01*
X109048493Y-62607819D02*
X108810398Y-62607819D01*
X114890779Y-41271819D02*
X114890779Y-40271819D01*
X114890779Y-40271819D02*
X115271731Y-40271819D01*
X115271731Y-40271819D02*
X115366969Y-40319438D01*
X115366969Y-40319438D02*
X115414588Y-40367057D01*
X115414588Y-40367057D02*
X115462207Y-40462295D01*
X115462207Y-40462295D02*
X115462207Y-40605152D01*
X115462207Y-40605152D02*
X115414588Y-40700390D01*
X115414588Y-40700390D02*
X115366969Y-40748009D01*
X115366969Y-40748009D02*
X115271731Y-40795628D01*
X115271731Y-40795628D02*
X114890779Y-40795628D01*
X115890779Y-41271819D02*
X115890779Y-40605152D01*
X115890779Y-40271819D02*
X115843160Y-40319438D01*
X115843160Y-40319438D02*
X115890779Y-40367057D01*
X115890779Y-40367057D02*
X115938398Y-40319438D01*
X115938398Y-40319438D02*
X115890779Y-40271819D01*
X115890779Y-40271819D02*
X115890779Y-40367057D01*
X116366969Y-40605152D02*
X116366969Y-41271819D01*
X116366969Y-40700390D02*
X116414588Y-40652771D01*
X116414588Y-40652771D02*
X116509826Y-40605152D01*
X116509826Y-40605152D02*
X116652683Y-40605152D01*
X116652683Y-40605152D02*
X116747921Y-40652771D01*
X116747921Y-40652771D02*
X116795540Y-40748009D01*
X116795540Y-40748009D02*
X116795540Y-41271819D01*
X118557445Y-41271819D02*
X117986017Y-41271819D01*
X118271731Y-41271819D02*
X118271731Y-40271819D01*
X118271731Y-40271819D02*
X118176493Y-40414676D01*
X118176493Y-40414676D02*
X118081255Y-40509914D01*
X118081255Y-40509914D02*
X117986017Y-40557533D01*
X110918666Y-59354819D02*
X110918666Y-60069104D01*
X110918666Y-60069104D02*
X110871047Y-60211961D01*
X110871047Y-60211961D02*
X110775809Y-60307200D01*
X110775809Y-60307200D02*
X110632952Y-60354819D01*
X110632952Y-60354819D02*
X110537714Y-60354819D01*
X111823428Y-59688152D02*
X111823428Y-60354819D01*
X111585333Y-59307200D02*
X111347238Y-60021485D01*
X111347238Y-60021485D02*
X111966285Y-60021485D01*
D11*
X108906000Y-39684000D02*
X108906000Y-38354000D01*
X110236000Y-39684000D02*
X108906000Y-39684000D01*
X111506000Y-39684000D02*
X114106000Y-39684000D01*
X111506000Y-39684000D02*
X111506000Y-37024000D01*
X114106000Y-39684000D02*
X114106000Y-37024000D01*
X111506000Y-37024000D02*
X114106000Y-37024000D01*
X109922000Y-60900000D02*
X111252000Y-60900000D01*
X109922000Y-62230000D02*
X109922000Y-60900000D01*
X109922000Y-63500000D02*
X109922000Y-63560000D01*
X109922000Y-63500000D02*
X112582000Y-63500000D01*
X109922000Y-63560000D02*
X112582000Y-63560000D01*
X112582000Y-63500000D02*
X112582000Y-63560000D01*
%LPC*%
D12*
X110236000Y-38354000D03*
D13*
X112776000Y-38354000D03*
D12*
X111252000Y-62230000D03*
X120650000Y-41910000D03*
D13*
X123190000Y-41910000D03*
X120650000Y-44450000D03*
X123190000Y-44450000D03*
X120650000Y-46990000D03*
X123190000Y-46990000D03*
X120650000Y-49530000D03*
X123190000Y-49530000D03*
X120650000Y-52070000D03*
X123190000Y-52070000D03*
X120650000Y-54610000D03*
X123190000Y-54610000D03*
X120650000Y-57150000D03*
X123190000Y-57150000D03*
X120650000Y-59690000D03*
X123190000Y-59690000D03*
X120650000Y-62230000D03*
X123190000Y-62230000D03*
X120650000Y-64770000D03*
X123190000Y-64770000D03*
X120650000Y-67310000D03*
X123190000Y-67310000D03*
X120650000Y-69850000D03*
X123190000Y-69850000D03*
X120650000Y-72390000D03*
X123190000Y-72390000D03*
X120650000Y-74930000D03*
X123190000Y-74930000D03*
X120650000Y-77470000D03*
X123190000Y-77470000D03*
X120650000Y-80010000D03*
X123190000Y-80010000D03*
X120650000Y-82550000D03*
X123190000Y-82550000D03*
X120650000Y-85090000D03*
X123190000Y-85090000D03*
X120650000Y-87630000D03*
X123190000Y-87630000D03*
X120650000Y-90170000D03*
X123190000Y-90170000D03*
D12*
X100584000Y-90170000D03*
D13*
X98044000Y-90170000D03*
X100584000Y-87630000D03*
X98044000Y-87630000D03*
X100584000Y-85090000D03*
X98044000Y-85090000D03*
X100584000Y-82550000D03*
X98044000Y-82550000D03*
X100584000Y-80010000D03*
X98044000Y-80010000D03*
X100584000Y-77470000D03*
X98044000Y-77470000D03*
X100584000Y-74930000D03*
X98044000Y-74930000D03*
X100584000Y-72390000D03*
X98044000Y-72390000D03*
X100584000Y-69850000D03*
X98044000Y-69850000D03*
X100584000Y-67310000D03*
X98044000Y-67310000D03*
X100584000Y-64770000D03*
X98044000Y-64770000D03*
X100584000Y-62230000D03*
X98044000Y-62230000D03*
X100584000Y-59690000D03*
X98044000Y-59690000D03*
X100584000Y-57150000D03*
X98044000Y-57150000D03*
X100584000Y-54610000D03*
X98044000Y-54610000D03*
X100584000Y-52070000D03*
X98044000Y-52070000D03*
X100584000Y-49530000D03*
X98044000Y-49530000D03*
X100584000Y-46990000D03*
X98044000Y-46990000D03*
X100584000Y-44450000D03*
X98044000Y-44450000D03*
X100584000Y-41910000D03*
X98044000Y-41910000D03*
%LPD*%
M02*
