G04 #@! TF.GenerationSoftware,KiCad,Pcbnew,7.0.10*
G04 #@! TF.CreationDate,2024-08-03T14:28:38+12:00*
G04 #@! TF.ProjectId,Z80 Bus Adapter,5a383020-4275-4732-9041-646170746572,rev?*
G04 #@! TF.SameCoordinates,Original*
G04 #@! TF.FileFunction,Copper,L2,Bot*
G04 #@! TF.FilePolarity,Positive*
%FSLAX46Y46*%
G04 Gerber Fmt 4.6, Leading zero omitted, Abs format (unit mm)*
G04 Created by KiCad (PCBNEW 7.0.10) date 2024-08-03 14:28:38*
%MOMM*%
%LPD*%
G01*
G04 APERTURE LIST*
G04 #@! TA.AperFunction,ComponentPad*
%ADD10R,1.700000X1.700000*%
G04 #@! TD*
G04 #@! TA.AperFunction,ComponentPad*
%ADD11O,1.700000X1.700000*%
G04 #@! TD*
G04 #@! TA.AperFunction,ViaPad*
%ADD12C,0.800000*%
G04 #@! TD*
G04 #@! TA.AperFunction,Conductor*
%ADD13C,0.250000*%
G04 #@! TD*
G04 #@! TA.AperFunction,Conductor*
%ADD14C,0.400000*%
G04 #@! TD*
G04 APERTURE END LIST*
D10*
X110236000Y-38354000D03*
D11*
X112776000Y-38354000D03*
D10*
X111252000Y-62230000D03*
X120650000Y-41910000D03*
D11*
X123190000Y-41910000D03*
X120650000Y-44450000D03*
X123190000Y-44450000D03*
X120650000Y-46990000D03*
X123190000Y-46990000D03*
X120650000Y-49530000D03*
X123190000Y-49530000D03*
X120650000Y-52070000D03*
X123190000Y-52070000D03*
X120650000Y-54610000D03*
X123190000Y-54610000D03*
X120650000Y-57150000D03*
X123190000Y-57150000D03*
X120650000Y-59690000D03*
X123190000Y-59690000D03*
X120650000Y-62230000D03*
X123190000Y-62230000D03*
X120650000Y-64770000D03*
X123190000Y-64770000D03*
X120650000Y-67310000D03*
X123190000Y-67310000D03*
X120650000Y-69850000D03*
X123190000Y-69850000D03*
X120650000Y-72390000D03*
X123190000Y-72390000D03*
X120650000Y-74930000D03*
X123190000Y-74930000D03*
X120650000Y-77470000D03*
X123190000Y-77470000D03*
X120650000Y-80010000D03*
X123190000Y-80010000D03*
X120650000Y-82550000D03*
X123190000Y-82550000D03*
X120650000Y-85090000D03*
X123190000Y-85090000D03*
X120650000Y-87630000D03*
X123190000Y-87630000D03*
X120650000Y-90170000D03*
X123190000Y-90170000D03*
D10*
X100584000Y-90170000D03*
D11*
X98044000Y-90170000D03*
X100584000Y-87630000D03*
X98044000Y-87630000D03*
X100584000Y-85090000D03*
X98044000Y-85090000D03*
X100584000Y-82550000D03*
X98044000Y-82550000D03*
X100584000Y-80010000D03*
X98044000Y-80010000D03*
X100584000Y-77470000D03*
X98044000Y-77470000D03*
X100584000Y-74930000D03*
X98044000Y-74930000D03*
X100584000Y-72390000D03*
X98044000Y-72390000D03*
X100584000Y-69850000D03*
X98044000Y-69850000D03*
X100584000Y-67310000D03*
X98044000Y-67310000D03*
X100584000Y-64770000D03*
X98044000Y-64770000D03*
X100584000Y-62230000D03*
X98044000Y-62230000D03*
X100584000Y-59690000D03*
X98044000Y-59690000D03*
X100584000Y-57150000D03*
X98044000Y-57150000D03*
X100584000Y-54610000D03*
X98044000Y-54610000D03*
X100584000Y-52070000D03*
X98044000Y-52070000D03*
X100584000Y-49530000D03*
X98044000Y-49530000D03*
X100584000Y-46990000D03*
X98044000Y-46990000D03*
X100584000Y-44450000D03*
X98044000Y-44450000D03*
X100584000Y-41910000D03*
X98044000Y-41910000D03*
D12*
X117602000Y-41910000D03*
X117602000Y-89154000D03*
X116840000Y-86868000D03*
X116840000Y-44450000D03*
X116078000Y-46990000D03*
X116078000Y-84365000D03*
X115316000Y-81788000D03*
X115316000Y-49530000D03*
X114554000Y-79248000D03*
X114554000Y-52070000D03*
X113792000Y-76708000D03*
X113792000Y-54610000D03*
X113157000Y-74205000D03*
X113030000Y-57150000D03*
X112268000Y-71374000D03*
X112776000Y-59690000D03*
X110998000Y-64770000D03*
X118872000Y-64008000D03*
X110490000Y-69088000D03*
X112014000Y-64770000D03*
X112014000Y-66548000D03*
X108966000Y-58420000D03*
X109220000Y-72390000D03*
X108204000Y-55880000D03*
X107677500Y-74911500D03*
X107442000Y-77470000D03*
X107442000Y-53340000D03*
X106680000Y-80010000D03*
X106680000Y-50800000D03*
X105918000Y-48260000D03*
X105918000Y-82550000D03*
X105156000Y-85090000D03*
X105156000Y-45720000D03*
X104394000Y-43180000D03*
X104394000Y-87630000D03*
X103632000Y-40640000D03*
X103632000Y-90170000D03*
X109474000Y-60452000D03*
X109982000Y-67310000D03*
D13*
X118110000Y-88646000D02*
X118110000Y-42418000D01*
X118110000Y-42418000D02*
X117602000Y-41910000D01*
X117602000Y-89154000D02*
X118110000Y-88646000D01*
X116840000Y-44450000D02*
X117348000Y-44958000D01*
X117348000Y-44958000D02*
X117348000Y-86360000D01*
X117348000Y-86360000D02*
X116840000Y-86868000D01*
X116078000Y-46990000D02*
X116586000Y-47498000D01*
X116586000Y-83857000D02*
X116078000Y-84365000D01*
X116586000Y-47498000D02*
X116586000Y-83857000D01*
X115824000Y-81280000D02*
X115316000Y-81788000D01*
X115824000Y-50038000D02*
X115824000Y-81280000D01*
X115316000Y-49530000D02*
X115824000Y-50038000D01*
X115062000Y-52578000D02*
X115062000Y-78740000D01*
X114554000Y-52070000D02*
X115062000Y-52578000D01*
X115062000Y-78740000D02*
X114554000Y-79248000D01*
X114300000Y-76200000D02*
X113792000Y-76708000D01*
X113792000Y-54610000D02*
X114300000Y-55118000D01*
X114300000Y-55118000D02*
X114300000Y-76200000D01*
X113030000Y-57150000D02*
X113538000Y-57658000D01*
X113538000Y-73824000D02*
X113157000Y-74205000D01*
X113538000Y-57658000D02*
X113538000Y-73824000D01*
X112268000Y-71374000D02*
X112776000Y-70866000D01*
X112776000Y-70866000D02*
X112776000Y-59690000D01*
X110998000Y-68580000D02*
X110998000Y-64770000D01*
X118872000Y-64008000D02*
X120650000Y-62230000D01*
X110490000Y-69088000D02*
X110998000Y-68580000D01*
X112014000Y-64770000D02*
X112014000Y-66548000D01*
X109220000Y-72390000D02*
X108458000Y-71628000D01*
X108458000Y-71628000D02*
X108458000Y-58928000D01*
X108458000Y-58928000D02*
X108966000Y-58420000D01*
X98044000Y-59737500D02*
X98044000Y-59690000D01*
X107696000Y-74893000D02*
X107696000Y-56388000D01*
X107677500Y-74911500D02*
X107696000Y-74893000D01*
X107696000Y-56388000D02*
X108204000Y-55880000D01*
X106934000Y-76962000D02*
X106934000Y-53848000D01*
X106934000Y-53848000D02*
X107442000Y-53340000D01*
X107442000Y-77470000D02*
X106934000Y-76962000D01*
X106172000Y-51308000D02*
X106680000Y-50800000D01*
X106680000Y-80010000D02*
X106172000Y-79502000D01*
X106172000Y-79502000D02*
X106172000Y-51308000D01*
X105918000Y-82550000D02*
X105410000Y-82042000D01*
X105410000Y-48768000D02*
X105918000Y-48260000D01*
X105410000Y-82042000D02*
X105410000Y-48768000D01*
X104648000Y-46228000D02*
X105156000Y-45720000D01*
X104648000Y-84582000D02*
X104648000Y-46228000D01*
X105156000Y-85090000D02*
X104648000Y-84582000D01*
X103886000Y-43688000D02*
X104394000Y-43180000D01*
X103886000Y-87122000D02*
X103886000Y-43688000D01*
X104394000Y-87630000D02*
X103886000Y-87122000D01*
X103124000Y-41148000D02*
X103632000Y-40640000D01*
X103124000Y-89662000D02*
X103124000Y-41148000D01*
X103632000Y-90170000D02*
X103124000Y-89662000D01*
X109474000Y-66802000D02*
X109474000Y-60452000D01*
X109982000Y-67310000D02*
X109474000Y-66802000D01*
D14*
X96520000Y-40132000D02*
X96520000Y-62738000D01*
X98806000Y-63500000D02*
X100076000Y-64770000D01*
X110236000Y-38354000D02*
X98298000Y-38354000D01*
X98298000Y-38354000D02*
X96520000Y-40132000D01*
X96520000Y-62738000D02*
X97282000Y-63500000D01*
X100076000Y-64770000D02*
X100584000Y-64770000D01*
X97282000Y-63500000D02*
X98806000Y-63500000D01*
X123952000Y-68580000D02*
X122428000Y-68580000D01*
X122428000Y-68580000D02*
X121158000Y-69850000D01*
X122682000Y-38354000D02*
X124714000Y-40386000D01*
X121158000Y-69850000D02*
X120650000Y-69850000D01*
X124714000Y-67818000D02*
X123952000Y-68580000D01*
X112776000Y-38354000D02*
X122682000Y-38354000D01*
X124714000Y-40386000D02*
X124714000Y-67818000D01*
G04 #@! TA.AperFunction,Conductor*
G36*
X108828540Y-39074185D02*
G01*
X108874295Y-39126989D01*
X108885501Y-39178500D01*
X108885501Y-39251876D01*
X108891908Y-39311483D01*
X108942202Y-39446328D01*
X108942206Y-39446335D01*
X109028452Y-39561544D01*
X109028455Y-39561547D01*
X109143664Y-39647793D01*
X109143671Y-39647797D01*
X109278517Y-39698091D01*
X109278516Y-39698091D01*
X109285444Y-39698835D01*
X109338127Y-39704500D01*
X111133872Y-39704499D01*
X111193483Y-39698091D01*
X111328331Y-39647796D01*
X111443546Y-39561546D01*
X111529796Y-39446331D01*
X111578810Y-39314916D01*
X111620681Y-39258984D01*
X111686145Y-39234566D01*
X111754418Y-39249417D01*
X111782673Y-39270569D01*
X111904599Y-39392495D01*
X112001384Y-39460265D01*
X112098165Y-39528032D01*
X112098167Y-39528033D01*
X112098170Y-39528035D01*
X112312337Y-39627903D01*
X112540592Y-39689063D01*
X112717034Y-39704500D01*
X112775999Y-39709659D01*
X112776000Y-39709659D01*
X112776001Y-39709659D01*
X112834966Y-39704500D01*
X113011408Y-39689063D01*
X113239663Y-39627903D01*
X113453830Y-39528035D01*
X113647401Y-39392495D01*
X113814495Y-39225401D01*
X113897136Y-39107376D01*
X113951713Y-39063752D01*
X113998711Y-39054500D01*
X122340481Y-39054500D01*
X122407520Y-39074185D01*
X122428162Y-39090819D01*
X123763255Y-40425912D01*
X123796740Y-40487235D01*
X123791756Y-40556927D01*
X123749884Y-40612860D01*
X123684420Y-40637277D01*
X123643481Y-40633368D01*
X123425413Y-40574938D01*
X123425403Y-40574936D01*
X123190001Y-40554341D01*
X123189999Y-40554341D01*
X122954596Y-40574936D01*
X122954586Y-40574938D01*
X122726344Y-40636094D01*
X122726335Y-40636098D01*
X122512171Y-40735964D01*
X122512169Y-40735965D01*
X122318600Y-40871503D01*
X122196673Y-40993430D01*
X122135350Y-41026914D01*
X122065658Y-41021930D01*
X122009725Y-40980058D01*
X121992810Y-40949081D01*
X121943797Y-40817671D01*
X121943793Y-40817664D01*
X121857547Y-40702455D01*
X121857544Y-40702452D01*
X121742335Y-40616206D01*
X121742328Y-40616202D01*
X121607482Y-40565908D01*
X121607483Y-40565908D01*
X121547883Y-40559501D01*
X121547881Y-40559500D01*
X121547873Y-40559500D01*
X121547864Y-40559500D01*
X119752129Y-40559500D01*
X119752123Y-40559501D01*
X119692516Y-40565908D01*
X119557671Y-40616202D01*
X119557664Y-40616206D01*
X119442455Y-40702452D01*
X119442452Y-40702455D01*
X119356206Y-40817664D01*
X119356202Y-40817671D01*
X119305908Y-40952517D01*
X119299501Y-41012116D01*
X119299500Y-41012135D01*
X119299500Y-42807870D01*
X119299501Y-42807876D01*
X119305908Y-42867483D01*
X119356202Y-43002328D01*
X119356206Y-43002335D01*
X119442452Y-43117544D01*
X119442455Y-43117547D01*
X119557664Y-43203793D01*
X119557671Y-43203797D01*
X119689081Y-43252810D01*
X119745015Y-43294681D01*
X119769432Y-43360145D01*
X119754580Y-43428418D01*
X119733430Y-43456673D01*
X119611503Y-43578600D01*
X119475965Y-43772169D01*
X119475964Y-43772171D01*
X119376098Y-43986335D01*
X119376094Y-43986344D01*
X119314938Y-44214586D01*
X119314936Y-44214596D01*
X119294341Y-44449999D01*
X119294341Y-44450000D01*
X119314936Y-44685403D01*
X119314938Y-44685413D01*
X119376094Y-44913655D01*
X119376096Y-44913659D01*
X119376097Y-44913663D01*
X119456004Y-45085023D01*
X119475965Y-45127830D01*
X119475967Y-45127834D01*
X119550412Y-45234151D01*
X119611501Y-45321396D01*
X119611506Y-45321402D01*
X119778597Y-45488493D01*
X119778603Y-45488498D01*
X119964158Y-45618425D01*
X120007783Y-45673002D01*
X120014977Y-45742500D01*
X119983454Y-45804855D01*
X119964158Y-45821575D01*
X119778597Y-45951505D01*
X119611505Y-46118597D01*
X119475965Y-46312169D01*
X119475964Y-46312171D01*
X119376098Y-46526335D01*
X119376094Y-46526344D01*
X119314938Y-46754586D01*
X119314936Y-46754596D01*
X119294341Y-46989999D01*
X119294341Y-46990000D01*
X119314936Y-47225403D01*
X119314938Y-47225413D01*
X119376094Y-47453655D01*
X119376096Y-47453659D01*
X119376097Y-47453663D01*
X119456004Y-47625023D01*
X119475965Y-47667830D01*
X119475967Y-47667834D01*
X119550412Y-47774151D01*
X119611501Y-47861396D01*
X119611506Y-47861402D01*
X119778597Y-48028493D01*
X119778603Y-48028498D01*
X119964158Y-48158425D01*
X120007783Y-48213002D01*
X120014977Y-48282500D01*
X119983454Y-48344855D01*
X119964158Y-48361575D01*
X119778597Y-48491505D01*
X119611505Y-48658597D01*
X119475965Y-48852169D01*
X119475964Y-48852171D01*
X119376098Y-49066335D01*
X119376094Y-49066344D01*
X119314938Y-49294586D01*
X119314936Y-49294596D01*
X119294341Y-49529999D01*
X119294341Y-49530000D01*
X119314936Y-49765403D01*
X119314938Y-49765413D01*
X119376094Y-49993655D01*
X119376096Y-49993659D01*
X119376097Y-49993663D01*
X119456004Y-50165023D01*
X119475965Y-50207830D01*
X119475967Y-50207834D01*
X119550412Y-50314151D01*
X119611501Y-50401396D01*
X119611506Y-50401402D01*
X119778597Y-50568493D01*
X119778603Y-50568498D01*
X119964158Y-50698425D01*
X120007783Y-50753002D01*
X120014977Y-50822500D01*
X119983454Y-50884855D01*
X119964158Y-50901575D01*
X119778597Y-51031505D01*
X119611505Y-51198597D01*
X119475965Y-51392169D01*
X119475964Y-51392171D01*
X119376098Y-51606335D01*
X119376094Y-51606344D01*
X119314938Y-51834586D01*
X119314936Y-51834596D01*
X119294341Y-52069999D01*
X119294341Y-52070000D01*
X119314936Y-52305403D01*
X119314938Y-52305413D01*
X119376094Y-52533655D01*
X119376096Y-52533659D01*
X119376097Y-52533663D01*
X119456004Y-52705023D01*
X119475965Y-52747830D01*
X119475967Y-52747834D01*
X119550412Y-52854151D01*
X119611501Y-52941396D01*
X119611506Y-52941402D01*
X119778597Y-53108493D01*
X119778603Y-53108498D01*
X119964158Y-53238425D01*
X120007783Y-53293002D01*
X120014977Y-53362500D01*
X119983454Y-53424855D01*
X119964158Y-53441575D01*
X119778597Y-53571505D01*
X119611505Y-53738597D01*
X119475965Y-53932169D01*
X119475964Y-53932171D01*
X119376098Y-54146335D01*
X119376094Y-54146344D01*
X119314938Y-54374586D01*
X119314936Y-54374596D01*
X119294341Y-54609999D01*
X119294341Y-54610000D01*
X119314936Y-54845403D01*
X119314938Y-54845413D01*
X119376094Y-55073655D01*
X119376096Y-55073659D01*
X119376097Y-55073663D01*
X119456004Y-55245023D01*
X119475965Y-55287830D01*
X119475967Y-55287834D01*
X119550412Y-55394151D01*
X119611501Y-55481396D01*
X119611506Y-55481402D01*
X119778597Y-55648493D01*
X119778603Y-55648498D01*
X119964158Y-55778425D01*
X120007783Y-55833002D01*
X120014977Y-55902500D01*
X119983454Y-55964855D01*
X119964158Y-55981575D01*
X119778597Y-56111505D01*
X119611505Y-56278597D01*
X119475965Y-56472169D01*
X119475964Y-56472171D01*
X119376098Y-56686335D01*
X119376094Y-56686344D01*
X119314938Y-56914586D01*
X119314936Y-56914596D01*
X119294341Y-57149999D01*
X119294341Y-57150000D01*
X119314936Y-57385403D01*
X119314938Y-57385413D01*
X119376094Y-57613655D01*
X119376096Y-57613659D01*
X119376097Y-57613663D01*
X119456004Y-57785023D01*
X119475965Y-57827830D01*
X119475967Y-57827834D01*
X119550412Y-57934151D01*
X119611501Y-58021396D01*
X119611506Y-58021402D01*
X119778597Y-58188493D01*
X119778603Y-58188498D01*
X119964158Y-58318425D01*
X120007783Y-58373002D01*
X120014977Y-58442500D01*
X119983454Y-58504855D01*
X119964158Y-58521575D01*
X119778597Y-58651505D01*
X119611505Y-58818597D01*
X119475965Y-59012169D01*
X119475964Y-59012171D01*
X119376098Y-59226335D01*
X119376094Y-59226344D01*
X119314938Y-59454586D01*
X119314936Y-59454596D01*
X119294341Y-59689999D01*
X119294341Y-59690000D01*
X119314936Y-59925403D01*
X119314938Y-59925413D01*
X119376094Y-60153655D01*
X119376096Y-60153659D01*
X119376097Y-60153663D01*
X119470703Y-60356546D01*
X119475965Y-60367830D01*
X119475967Y-60367834D01*
X119584281Y-60522521D01*
X119611501Y-60561396D01*
X119611506Y-60561402D01*
X119778597Y-60728493D01*
X119778603Y-60728498D01*
X119964158Y-60858425D01*
X120007783Y-60913002D01*
X120014977Y-60982500D01*
X119983454Y-61044855D01*
X119964158Y-61061575D01*
X119778597Y-61191505D01*
X119611505Y-61358597D01*
X119475965Y-61552169D01*
X119475964Y-61552171D01*
X119376098Y-61766335D01*
X119376094Y-61766344D01*
X119314938Y-61994586D01*
X119314936Y-61994596D01*
X119294341Y-62229999D01*
X119294341Y-62230000D01*
X119314936Y-62465403D01*
X119314938Y-62465413D01*
X119341856Y-62565872D01*
X119340193Y-62635722D01*
X119309762Y-62685646D01*
X118947181Y-63048228D01*
X118885858Y-63081713D01*
X118816167Y-63076729D01*
X118760233Y-63034858D01*
X118735816Y-62969393D01*
X118735500Y-62960547D01*
X118735500Y-42500737D01*
X118737224Y-42485123D01*
X118736938Y-42485096D01*
X118737672Y-42477333D01*
X118735561Y-42410143D01*
X118735500Y-42406249D01*
X118735500Y-42378651D01*
X118735500Y-42378650D01*
X118734997Y-42374670D01*
X118734080Y-42363021D01*
X118733658Y-42349595D01*
X118732709Y-42319372D01*
X118727120Y-42300137D01*
X118723174Y-42281084D01*
X118722974Y-42279500D01*
X118720664Y-42261208D01*
X118704578Y-42220581D01*
X118700803Y-42209554D01*
X118688617Y-42167610D01*
X118678421Y-42150369D01*
X118669860Y-42132893D01*
X118662486Y-42114269D01*
X118662485Y-42114267D01*
X118636809Y-42078926D01*
X118630412Y-42069190D01*
X118608170Y-42031579D01*
X118608167Y-42031576D01*
X118608165Y-42031573D01*
X118594005Y-42017413D01*
X118581370Y-42002620D01*
X118569593Y-41986412D01*
X118549330Y-41969649D01*
X118510222Y-41911750D01*
X118505050Y-41887071D01*
X118487674Y-41721744D01*
X118429179Y-41541716D01*
X118334533Y-41377784D01*
X118207871Y-41237112D01*
X118207870Y-41237111D01*
X118054734Y-41125851D01*
X118054729Y-41125848D01*
X117881807Y-41048857D01*
X117881802Y-41048855D01*
X117723665Y-41015243D01*
X117696646Y-41009500D01*
X117507354Y-41009500D01*
X117480335Y-41015243D01*
X117322197Y-41048855D01*
X117322192Y-41048857D01*
X117149270Y-41125848D01*
X117149265Y-41125851D01*
X116996129Y-41237111D01*
X116869466Y-41377785D01*
X116774821Y-41541715D01*
X116774818Y-41541722D01*
X116731645Y-41674596D01*
X116716326Y-41721744D01*
X116696540Y-41910000D01*
X116716326Y-42098256D01*
X116716327Y-42098259D01*
X116774818Y-42278277D01*
X116774821Y-42278284D01*
X116869467Y-42442216D01*
X116922160Y-42500737D01*
X116996129Y-42582888D01*
X117149265Y-42694148D01*
X117149270Y-42694151D01*
X117322191Y-42771142D01*
X117322194Y-42771142D01*
X117322197Y-42771144D01*
X117386280Y-42784765D01*
X117447762Y-42817957D01*
X117481539Y-42879120D01*
X117484500Y-42906055D01*
X117484500Y-43561814D01*
X117464815Y-43628853D01*
X117412011Y-43674608D01*
X117342853Y-43684552D01*
X117299572Y-43667005D01*
X117298363Y-43669101D01*
X117292729Y-43665848D01*
X117119807Y-43588857D01*
X117119802Y-43588855D01*
X116974001Y-43557865D01*
X116934646Y-43549500D01*
X116745354Y-43549500D01*
X116712897Y-43556398D01*
X116560197Y-43588855D01*
X116560192Y-43588857D01*
X116387270Y-43665848D01*
X116387265Y-43665851D01*
X116234129Y-43777111D01*
X116107466Y-43917785D01*
X116012821Y-44081715D01*
X116012818Y-44081722D01*
X115969645Y-44214596D01*
X115954326Y-44261744D01*
X115934540Y-44450000D01*
X115954326Y-44638256D01*
X115954327Y-44638259D01*
X116012818Y-44818277D01*
X116012821Y-44818284D01*
X116107467Y-44982216D01*
X116165899Y-45047111D01*
X116234129Y-45122888D01*
X116387265Y-45234148D01*
X116387270Y-45234151D01*
X116560191Y-45311142D01*
X116560194Y-45311142D01*
X116560197Y-45311144D01*
X116624280Y-45324765D01*
X116685762Y-45357957D01*
X116719539Y-45419120D01*
X116722500Y-45446055D01*
X116722500Y-46101814D01*
X116702815Y-46168853D01*
X116650011Y-46214608D01*
X116580853Y-46224552D01*
X116537572Y-46207005D01*
X116536363Y-46209101D01*
X116530729Y-46205848D01*
X116357807Y-46128857D01*
X116357802Y-46128855D01*
X116212001Y-46097865D01*
X116172646Y-46089500D01*
X115983354Y-46089500D01*
X115950897Y-46096398D01*
X115798197Y-46128855D01*
X115798192Y-46128857D01*
X115625270Y-46205848D01*
X115625265Y-46205851D01*
X115472129Y-46317111D01*
X115345466Y-46457785D01*
X115250821Y-46621715D01*
X115250818Y-46621722D01*
X115207645Y-46754596D01*
X115192326Y-46801744D01*
X115172540Y-46990000D01*
X115192326Y-47178256D01*
X115192327Y-47178259D01*
X115250818Y-47358277D01*
X115250821Y-47358284D01*
X115345467Y-47522216D01*
X115403899Y-47587111D01*
X115472129Y-47662888D01*
X115625265Y-47774148D01*
X115625270Y-47774151D01*
X115798191Y-47851142D01*
X115798194Y-47851142D01*
X115798197Y-47851144D01*
X115862280Y-47864765D01*
X115923762Y-47897957D01*
X115957539Y-47959120D01*
X115960500Y-47986055D01*
X115960500Y-48641814D01*
X115940815Y-48708853D01*
X115888011Y-48754608D01*
X115818853Y-48764552D01*
X115775572Y-48747005D01*
X115774363Y-48749101D01*
X115768729Y-48745848D01*
X115595807Y-48668857D01*
X115595802Y-48668855D01*
X115450001Y-48637865D01*
X115410646Y-48629500D01*
X115221354Y-48629500D01*
X115188897Y-48636398D01*
X115036197Y-48668855D01*
X115036192Y-48668857D01*
X114863270Y-48745848D01*
X114863265Y-48745851D01*
X114710129Y-48857111D01*
X114583466Y-48997785D01*
X114488821Y-49161715D01*
X114488818Y-49161722D01*
X114445645Y-49294596D01*
X114430326Y-49341744D01*
X114410540Y-49530000D01*
X114430326Y-49718256D01*
X114430327Y-49718259D01*
X114488818Y-49898277D01*
X114488821Y-49898284D01*
X114583467Y-50062216D01*
X114641899Y-50127111D01*
X114710129Y-50202888D01*
X114863265Y-50314148D01*
X114863270Y-50314151D01*
X115036191Y-50391142D01*
X115036194Y-50391142D01*
X115036197Y-50391144D01*
X115100280Y-50404765D01*
X115161762Y-50437957D01*
X115195539Y-50499120D01*
X115198500Y-50526055D01*
X115198500Y-51181814D01*
X115178815Y-51248853D01*
X115126011Y-51294608D01*
X115056853Y-51304552D01*
X115013572Y-51287005D01*
X115012363Y-51289101D01*
X115006729Y-51285848D01*
X114833807Y-51208857D01*
X114833802Y-51208855D01*
X114688001Y-51177865D01*
X114648646Y-51169500D01*
X114459354Y-51169500D01*
X114426897Y-51176398D01*
X114274197Y-51208855D01*
X114274192Y-51208857D01*
X114101270Y-51285848D01*
X114101265Y-51285851D01*
X113948129Y-51397111D01*
X113821466Y-51537785D01*
X113726821Y-51701715D01*
X113726818Y-51701722D01*
X113683645Y-51834596D01*
X113668326Y-51881744D01*
X113648540Y-52070000D01*
X113668326Y-52258256D01*
X113668327Y-52258259D01*
X113726818Y-52438277D01*
X113726821Y-52438284D01*
X113821467Y-52602216D01*
X113879899Y-52667111D01*
X113948129Y-52742888D01*
X114101265Y-52854148D01*
X114101270Y-52854151D01*
X114274191Y-52931142D01*
X114274194Y-52931142D01*
X114274197Y-52931144D01*
X114338280Y-52944765D01*
X114399762Y-52977957D01*
X114433539Y-53039120D01*
X114436500Y-53066055D01*
X114436500Y-53721814D01*
X114416815Y-53788853D01*
X114364011Y-53834608D01*
X114294853Y-53844552D01*
X114251572Y-53827005D01*
X114250363Y-53829101D01*
X114244729Y-53825848D01*
X114071807Y-53748857D01*
X114071802Y-53748855D01*
X113926001Y-53717865D01*
X113886646Y-53709500D01*
X113697354Y-53709500D01*
X113664897Y-53716398D01*
X113512197Y-53748855D01*
X113512192Y-53748857D01*
X113339270Y-53825848D01*
X113339265Y-53825851D01*
X113186129Y-53937111D01*
X113059466Y-54077785D01*
X112964821Y-54241715D01*
X112964818Y-54241722D01*
X112921645Y-54374596D01*
X112906326Y-54421744D01*
X112886540Y-54610000D01*
X112906326Y-54798256D01*
X112906327Y-54798259D01*
X112964818Y-54978277D01*
X112964821Y-54978284D01*
X113059467Y-55142216D01*
X113117899Y-55207111D01*
X113186129Y-55282888D01*
X113339265Y-55394148D01*
X113339270Y-55394151D01*
X113512191Y-55471142D01*
X113512194Y-55471142D01*
X113512197Y-55471144D01*
X113576280Y-55484765D01*
X113637762Y-55517957D01*
X113671539Y-55579120D01*
X113674500Y-55606055D01*
X113674500Y-56261814D01*
X113654815Y-56328853D01*
X113602011Y-56374608D01*
X113532853Y-56384552D01*
X113489572Y-56367005D01*
X113488363Y-56369101D01*
X113482729Y-56365848D01*
X113309807Y-56288857D01*
X113309802Y-56288855D01*
X113164001Y-56257865D01*
X113124646Y-56249500D01*
X112935354Y-56249500D01*
X112902897Y-56256398D01*
X112750197Y-56288855D01*
X112750192Y-56288857D01*
X112577270Y-56365848D01*
X112577265Y-56365851D01*
X112424129Y-56477111D01*
X112297466Y-56617785D01*
X112202821Y-56781715D01*
X112202818Y-56781722D01*
X112159645Y-56914596D01*
X112144326Y-56961744D01*
X112124540Y-57150000D01*
X112144326Y-57338256D01*
X112144327Y-57338259D01*
X112202818Y-57518277D01*
X112202821Y-57518284D01*
X112297467Y-57682216D01*
X112355899Y-57747111D01*
X112424129Y-57822888D01*
X112577265Y-57934148D01*
X112577270Y-57934151D01*
X112750191Y-58011142D01*
X112750194Y-58011142D01*
X112750197Y-58011144D01*
X112814280Y-58024765D01*
X112875762Y-58057957D01*
X112909539Y-58119120D01*
X112912500Y-58146055D01*
X112912500Y-58665500D01*
X112892815Y-58732539D01*
X112840011Y-58778294D01*
X112788500Y-58789500D01*
X112681354Y-58789500D01*
X112648897Y-58796398D01*
X112496197Y-58828855D01*
X112496192Y-58828857D01*
X112323270Y-58905848D01*
X112323265Y-58905851D01*
X112170129Y-59017111D01*
X112043466Y-59157785D01*
X111948821Y-59321715D01*
X111948818Y-59321722D01*
X111900798Y-59469514D01*
X111890326Y-59501744D01*
X111870540Y-59690000D01*
X111890326Y-59878256D01*
X111890327Y-59878259D01*
X111948818Y-60058277D01*
X111948821Y-60058284D01*
X112043467Y-60222216D01*
X112080856Y-60263740D01*
X112118650Y-60305715D01*
X112148880Y-60368706D01*
X112150500Y-60388687D01*
X112150500Y-60756000D01*
X112130815Y-60823039D01*
X112078011Y-60868794D01*
X112026500Y-60880000D01*
X111502000Y-60880000D01*
X111502000Y-61794498D01*
X111394315Y-61745320D01*
X111287763Y-61730000D01*
X111216237Y-61730000D01*
X111109685Y-61745320D01*
X111002000Y-61794498D01*
X111002000Y-60880000D01*
X110452448Y-60880000D01*
X110385409Y-60860315D01*
X110339654Y-60807511D01*
X110329710Y-60738353D01*
X110334517Y-60717682D01*
X110341396Y-60696509D01*
X110359674Y-60640256D01*
X110379460Y-60452000D01*
X110359674Y-60263744D01*
X110301179Y-60083716D01*
X110206533Y-59919784D01*
X110079871Y-59779112D01*
X110079870Y-59779111D01*
X109926734Y-59667851D01*
X109926729Y-59667848D01*
X109753807Y-59590857D01*
X109753802Y-59590855D01*
X109608001Y-59559865D01*
X109568646Y-59551500D01*
X109379354Y-59551500D01*
X109379352Y-59551500D01*
X109233280Y-59582548D01*
X109163613Y-59577232D01*
X109107880Y-59535094D01*
X109083775Y-59469514D01*
X109083500Y-59461258D01*
X109083500Y-59416055D01*
X109103185Y-59349016D01*
X109155989Y-59303261D01*
X109181720Y-59294765D01*
X109245803Y-59281144D01*
X109245806Y-59281142D01*
X109245808Y-59281142D01*
X109368884Y-59226344D01*
X109418730Y-59204151D01*
X109571871Y-59092888D01*
X109698533Y-58952216D01*
X109793179Y-58788284D01*
X109851674Y-58608256D01*
X109871460Y-58420000D01*
X109851674Y-58231744D01*
X109793179Y-58051716D01*
X109698533Y-57887784D01*
X109571871Y-57747112D01*
X109571870Y-57747111D01*
X109418734Y-57635851D01*
X109418729Y-57635848D01*
X109245807Y-57558857D01*
X109245802Y-57558855D01*
X109100001Y-57527865D01*
X109060646Y-57519500D01*
X108871354Y-57519500D01*
X108838897Y-57526398D01*
X108686197Y-57558855D01*
X108686192Y-57558857D01*
X108513270Y-57635848D01*
X108507637Y-57639101D01*
X108506145Y-57636517D01*
X108452483Y-57655617D01*
X108384441Y-57639739D01*
X108335785Y-57589595D01*
X108321500Y-57531814D01*
X108321500Y-56876055D01*
X108341185Y-56809016D01*
X108393989Y-56763261D01*
X108419720Y-56754765D01*
X108483803Y-56741144D01*
X108483806Y-56741142D01*
X108483808Y-56741142D01*
X108606884Y-56686344D01*
X108656730Y-56664151D01*
X108809871Y-56552888D01*
X108936533Y-56412216D01*
X109031179Y-56248284D01*
X109089674Y-56068256D01*
X109109460Y-55880000D01*
X109089674Y-55691744D01*
X109031179Y-55511716D01*
X108936533Y-55347784D01*
X108809871Y-55207112D01*
X108809870Y-55207111D01*
X108656734Y-55095851D01*
X108656729Y-55095848D01*
X108483807Y-55018857D01*
X108483802Y-55018855D01*
X108338001Y-54987865D01*
X108298646Y-54979500D01*
X108109354Y-54979500D01*
X108076897Y-54986398D01*
X107924197Y-55018855D01*
X107924192Y-55018857D01*
X107751270Y-55095848D01*
X107745637Y-55099101D01*
X107744145Y-55096517D01*
X107690483Y-55115617D01*
X107622441Y-55099739D01*
X107573785Y-55049595D01*
X107559500Y-54991814D01*
X107559500Y-54336055D01*
X107579185Y-54269016D01*
X107631989Y-54223261D01*
X107657720Y-54214765D01*
X107721803Y-54201144D01*
X107721806Y-54201142D01*
X107721808Y-54201142D01*
X107844884Y-54146344D01*
X107894730Y-54124151D01*
X108047871Y-54012888D01*
X108174533Y-53872216D01*
X108269179Y-53708284D01*
X108327674Y-53528256D01*
X108347460Y-53340000D01*
X108327674Y-53151744D01*
X108269179Y-52971716D01*
X108174533Y-52807784D01*
X108047871Y-52667112D01*
X108047870Y-52667111D01*
X107894734Y-52555851D01*
X107894729Y-52555848D01*
X107721807Y-52478857D01*
X107721802Y-52478855D01*
X107576001Y-52447865D01*
X107536646Y-52439500D01*
X107347354Y-52439500D01*
X107314897Y-52446398D01*
X107162197Y-52478855D01*
X107162192Y-52478857D01*
X106989270Y-52555848D01*
X106983637Y-52559101D01*
X106982145Y-52556517D01*
X106928483Y-52575617D01*
X106860441Y-52559739D01*
X106811785Y-52509595D01*
X106797500Y-52451814D01*
X106797500Y-51796055D01*
X106817185Y-51729016D01*
X106869989Y-51683261D01*
X106895720Y-51674765D01*
X106959803Y-51661144D01*
X106959806Y-51661142D01*
X106959808Y-51661142D01*
X107082884Y-51606344D01*
X107132730Y-51584151D01*
X107285871Y-51472888D01*
X107412533Y-51332216D01*
X107507179Y-51168284D01*
X107565674Y-50988256D01*
X107585460Y-50800000D01*
X107565674Y-50611744D01*
X107507179Y-50431716D01*
X107412533Y-50267784D01*
X107285871Y-50127112D01*
X107285870Y-50127111D01*
X107132734Y-50015851D01*
X107132729Y-50015848D01*
X106959807Y-49938857D01*
X106959802Y-49938855D01*
X106814001Y-49907865D01*
X106774646Y-49899500D01*
X106585354Y-49899500D01*
X106552897Y-49906398D01*
X106400197Y-49938855D01*
X106400192Y-49938857D01*
X106227270Y-50015848D01*
X106221637Y-50019101D01*
X106220145Y-50016517D01*
X106166483Y-50035617D01*
X106098441Y-50019739D01*
X106049785Y-49969595D01*
X106035500Y-49911814D01*
X106035500Y-49256055D01*
X106055185Y-49189016D01*
X106107989Y-49143261D01*
X106133720Y-49134765D01*
X106197803Y-49121144D01*
X106197806Y-49121142D01*
X106197808Y-49121142D01*
X106320884Y-49066344D01*
X106370730Y-49044151D01*
X106523871Y-48932888D01*
X106650533Y-48792216D01*
X106745179Y-48628284D01*
X106803674Y-48448256D01*
X106823460Y-48260000D01*
X106803674Y-48071744D01*
X106745179Y-47891716D01*
X106650533Y-47727784D01*
X106523871Y-47587112D01*
X106523870Y-47587111D01*
X106370734Y-47475851D01*
X106370729Y-47475848D01*
X106197807Y-47398857D01*
X106197802Y-47398855D01*
X106052001Y-47367865D01*
X106012646Y-47359500D01*
X105823354Y-47359500D01*
X105790897Y-47366398D01*
X105638197Y-47398855D01*
X105638192Y-47398857D01*
X105465270Y-47475848D01*
X105459637Y-47479101D01*
X105458145Y-47476517D01*
X105404483Y-47495617D01*
X105336441Y-47479739D01*
X105287785Y-47429595D01*
X105273500Y-47371814D01*
X105273500Y-46716055D01*
X105293185Y-46649016D01*
X105345989Y-46603261D01*
X105371720Y-46594765D01*
X105435803Y-46581144D01*
X105435806Y-46581142D01*
X105435808Y-46581142D01*
X105558884Y-46526344D01*
X105608730Y-46504151D01*
X105761871Y-46392888D01*
X105888533Y-46252216D01*
X105983179Y-46088284D01*
X106041674Y-45908256D01*
X106061460Y-45720000D01*
X106041674Y-45531744D01*
X105983179Y-45351716D01*
X105888533Y-45187784D01*
X105761871Y-45047112D01*
X105761870Y-45047111D01*
X105608734Y-44935851D01*
X105608729Y-44935848D01*
X105435807Y-44858857D01*
X105435802Y-44858855D01*
X105290001Y-44827865D01*
X105250646Y-44819500D01*
X105061354Y-44819500D01*
X105028897Y-44826398D01*
X104876197Y-44858855D01*
X104876192Y-44858857D01*
X104703270Y-44935848D01*
X104697637Y-44939101D01*
X104696145Y-44936517D01*
X104642483Y-44955617D01*
X104574441Y-44939739D01*
X104525785Y-44889595D01*
X104511500Y-44831814D01*
X104511500Y-44176055D01*
X104531185Y-44109016D01*
X104583989Y-44063261D01*
X104609720Y-44054765D01*
X104673803Y-44041144D01*
X104673806Y-44041142D01*
X104673808Y-44041142D01*
X104796884Y-43986344D01*
X104846730Y-43964151D01*
X104999871Y-43852888D01*
X105126533Y-43712216D01*
X105221179Y-43548284D01*
X105279674Y-43368256D01*
X105299460Y-43180000D01*
X105279674Y-42991744D01*
X105221179Y-42811716D01*
X105126533Y-42647784D01*
X104999871Y-42507112D01*
X104991097Y-42500737D01*
X104846734Y-42395851D01*
X104846729Y-42395848D01*
X104673807Y-42318857D01*
X104673802Y-42318855D01*
X104528001Y-42287865D01*
X104488646Y-42279500D01*
X104299354Y-42279500D01*
X104266897Y-42286398D01*
X104114197Y-42318855D01*
X104114192Y-42318857D01*
X103941270Y-42395848D01*
X103935637Y-42399101D01*
X103934145Y-42396517D01*
X103880483Y-42415617D01*
X103812441Y-42399739D01*
X103763785Y-42349595D01*
X103749500Y-42291814D01*
X103749500Y-41636055D01*
X103769185Y-41569016D01*
X103821989Y-41523261D01*
X103847720Y-41514765D01*
X103911803Y-41501144D01*
X103911806Y-41501142D01*
X103911808Y-41501142D01*
X104034884Y-41446344D01*
X104084730Y-41424151D01*
X104237871Y-41312888D01*
X104364533Y-41172216D01*
X104459179Y-41008284D01*
X104517674Y-40828256D01*
X104537460Y-40640000D01*
X104517674Y-40451744D01*
X104459179Y-40271716D01*
X104364533Y-40107784D01*
X104237871Y-39967112D01*
X104237870Y-39967111D01*
X104084734Y-39855851D01*
X104084729Y-39855848D01*
X103911807Y-39778857D01*
X103911802Y-39778855D01*
X103766001Y-39747865D01*
X103726646Y-39739500D01*
X103537354Y-39739500D01*
X103504897Y-39746398D01*
X103352197Y-39778855D01*
X103352192Y-39778857D01*
X103179270Y-39855848D01*
X103179265Y-39855851D01*
X103026129Y-39967111D01*
X102899466Y-40107785D01*
X102804821Y-40271715D01*
X102804818Y-40271722D01*
X102755939Y-40422157D01*
X102746326Y-40451744D01*
X102729041Y-40616202D01*
X102728830Y-40618214D01*
X102702245Y-40682828D01*
X102695899Y-40690138D01*
X102676097Y-40711224D01*
X102673390Y-40714017D01*
X102653889Y-40733517D01*
X102653875Y-40733534D01*
X102651407Y-40736715D01*
X102643843Y-40745570D01*
X102613937Y-40777418D01*
X102613936Y-40777420D01*
X102604284Y-40794976D01*
X102593610Y-40811226D01*
X102581329Y-40827061D01*
X102581324Y-40827068D01*
X102563975Y-40867158D01*
X102558838Y-40877644D01*
X102537803Y-40915906D01*
X102532822Y-40935307D01*
X102526521Y-40953710D01*
X102518562Y-40972102D01*
X102518561Y-40972105D01*
X102511728Y-41015243D01*
X102509360Y-41026674D01*
X102498501Y-41068971D01*
X102498500Y-41068982D01*
X102498500Y-41089016D01*
X102496973Y-41108415D01*
X102493840Y-41128194D01*
X102493840Y-41128195D01*
X102497950Y-41171674D01*
X102498500Y-41183343D01*
X102498500Y-89579255D01*
X102496775Y-89594872D01*
X102497061Y-89594899D01*
X102496326Y-89602665D01*
X102498439Y-89669872D01*
X102498500Y-89673767D01*
X102498500Y-89701357D01*
X102499003Y-89705335D01*
X102499918Y-89716967D01*
X102501290Y-89760624D01*
X102501291Y-89760627D01*
X102506880Y-89779867D01*
X102510824Y-89798911D01*
X102511179Y-89801715D01*
X102513336Y-89818792D01*
X102529414Y-89859403D01*
X102533197Y-89870452D01*
X102545381Y-89912388D01*
X102555580Y-89929634D01*
X102564138Y-89947103D01*
X102571514Y-89965732D01*
X102597181Y-90001060D01*
X102603593Y-90010821D01*
X102625828Y-90048417D01*
X102625833Y-90048424D01*
X102639990Y-90062580D01*
X102652627Y-90077375D01*
X102664406Y-90093587D01*
X102677383Y-90104322D01*
X102684670Y-90110351D01*
X102723777Y-90168251D01*
X102728950Y-90192932D01*
X102746326Y-90358256D01*
X102746327Y-90358259D01*
X102804818Y-90538277D01*
X102804821Y-90538284D01*
X102899467Y-90702216D01*
X102992035Y-90805023D01*
X103026129Y-90842888D01*
X103179265Y-90954148D01*
X103179270Y-90954151D01*
X103352192Y-91031142D01*
X103352197Y-91031144D01*
X103537354Y-91070500D01*
X103537355Y-91070500D01*
X103726644Y-91070500D01*
X103726646Y-91070500D01*
X103911803Y-91031144D01*
X104084730Y-90954151D01*
X104237871Y-90842888D01*
X104364533Y-90702216D01*
X104459179Y-90538284D01*
X104517674Y-90358256D01*
X104537460Y-90170000D01*
X104517674Y-89981744D01*
X104459179Y-89801716D01*
X104364533Y-89637784D01*
X104237871Y-89497112D01*
X104237870Y-89497111D01*
X104084734Y-89385851D01*
X104084729Y-89385848D01*
X103911807Y-89308857D01*
X103911803Y-89308856D01*
X103847718Y-89295234D01*
X103786237Y-89262041D01*
X103752461Y-89200878D01*
X103749500Y-89173944D01*
X103749500Y-88518185D01*
X103769185Y-88451146D01*
X103821989Y-88405391D01*
X103891147Y-88395447D01*
X103934373Y-88413087D01*
X103935637Y-88410899D01*
X103941270Y-88414151D01*
X104114192Y-88491142D01*
X104114197Y-88491144D01*
X104299354Y-88530500D01*
X104299355Y-88530500D01*
X104488644Y-88530500D01*
X104488646Y-88530500D01*
X104673803Y-88491144D01*
X104846730Y-88414151D01*
X104999871Y-88302888D01*
X105126533Y-88162216D01*
X105221179Y-87998284D01*
X105279674Y-87818256D01*
X105299460Y-87630000D01*
X105279674Y-87441744D01*
X105221179Y-87261716D01*
X105126533Y-87097784D01*
X104999871Y-86957112D01*
X104999870Y-86957111D01*
X104846734Y-86845851D01*
X104846729Y-86845848D01*
X104673807Y-86768857D01*
X104673803Y-86768856D01*
X104609718Y-86755234D01*
X104548237Y-86722041D01*
X104514461Y-86660878D01*
X104511500Y-86633944D01*
X104511500Y-85978185D01*
X104531185Y-85911146D01*
X104583989Y-85865391D01*
X104653147Y-85855447D01*
X104696373Y-85873087D01*
X104697637Y-85870899D01*
X104703270Y-85874151D01*
X104876192Y-85951142D01*
X104876197Y-85951144D01*
X105061354Y-85990500D01*
X105061355Y-85990500D01*
X105250644Y-85990500D01*
X105250646Y-85990500D01*
X105435803Y-85951144D01*
X105608730Y-85874151D01*
X105761871Y-85762888D01*
X105888533Y-85622216D01*
X105983179Y-85458284D01*
X106041674Y-85278256D01*
X106061460Y-85090000D01*
X106041674Y-84901744D01*
X105983179Y-84721716D01*
X105888533Y-84557784D01*
X105761871Y-84417112D01*
X105761870Y-84417111D01*
X105608734Y-84305851D01*
X105608729Y-84305848D01*
X105435807Y-84228857D01*
X105435803Y-84228856D01*
X105371718Y-84215234D01*
X105310237Y-84182041D01*
X105276461Y-84120878D01*
X105273500Y-84093944D01*
X105273500Y-83438185D01*
X105293185Y-83371146D01*
X105345989Y-83325391D01*
X105415147Y-83315447D01*
X105458373Y-83333087D01*
X105459637Y-83330899D01*
X105465270Y-83334151D01*
X105638192Y-83411142D01*
X105638197Y-83411144D01*
X105823354Y-83450500D01*
X105823355Y-83450500D01*
X106012644Y-83450500D01*
X106012646Y-83450500D01*
X106197803Y-83411144D01*
X106370730Y-83334151D01*
X106523871Y-83222888D01*
X106650533Y-83082216D01*
X106745179Y-82918284D01*
X106803674Y-82738256D01*
X106823460Y-82550000D01*
X106803674Y-82361744D01*
X106745179Y-82181716D01*
X106650533Y-82017784D01*
X106523871Y-81877112D01*
X106523870Y-81877111D01*
X106370734Y-81765851D01*
X106370729Y-81765848D01*
X106197807Y-81688857D01*
X106197803Y-81688856D01*
X106133718Y-81675234D01*
X106072237Y-81642041D01*
X106038461Y-81580878D01*
X106035500Y-81553944D01*
X106035500Y-80898185D01*
X106055185Y-80831146D01*
X106107989Y-80785391D01*
X106177147Y-80775447D01*
X106220373Y-80793087D01*
X106221637Y-80790899D01*
X106227270Y-80794151D01*
X106400192Y-80871142D01*
X106400197Y-80871144D01*
X106585354Y-80910500D01*
X106585355Y-80910500D01*
X106774644Y-80910500D01*
X106774646Y-80910500D01*
X106959803Y-80871144D01*
X107132730Y-80794151D01*
X107285871Y-80682888D01*
X107412533Y-80542216D01*
X107507179Y-80378284D01*
X107565674Y-80198256D01*
X107585460Y-80010000D01*
X107565674Y-79821744D01*
X107507179Y-79641716D01*
X107412533Y-79477784D01*
X107285871Y-79337112D01*
X107285870Y-79337111D01*
X107132734Y-79225851D01*
X107132729Y-79225848D01*
X106959807Y-79148857D01*
X106959803Y-79148856D01*
X106895718Y-79135234D01*
X106834237Y-79102041D01*
X106800461Y-79040878D01*
X106797500Y-79013944D01*
X106797500Y-78358185D01*
X106817185Y-78291146D01*
X106869989Y-78245391D01*
X106939147Y-78235447D01*
X106982373Y-78253087D01*
X106983637Y-78250899D01*
X106989270Y-78254151D01*
X107162192Y-78331142D01*
X107162197Y-78331144D01*
X107347354Y-78370500D01*
X107347355Y-78370500D01*
X107536644Y-78370500D01*
X107536646Y-78370500D01*
X107721803Y-78331144D01*
X107894730Y-78254151D01*
X108047871Y-78142888D01*
X108174533Y-78002216D01*
X108269179Y-77838284D01*
X108327674Y-77658256D01*
X108347460Y-77470000D01*
X108327674Y-77281744D01*
X108269179Y-77101716D01*
X108174533Y-76937784D01*
X108047871Y-76797112D01*
X108047870Y-76797111D01*
X107894734Y-76685851D01*
X107894729Y-76685848D01*
X107721807Y-76608857D01*
X107721803Y-76608856D01*
X107657718Y-76595234D01*
X107596237Y-76562041D01*
X107562461Y-76500878D01*
X107559500Y-76473944D01*
X107559500Y-75936000D01*
X107579185Y-75868961D01*
X107631989Y-75823206D01*
X107683500Y-75812000D01*
X107772144Y-75812000D01*
X107772146Y-75812000D01*
X107957303Y-75772644D01*
X108130230Y-75695651D01*
X108283371Y-75584388D01*
X108410033Y-75443716D01*
X108504679Y-75279784D01*
X108563174Y-75099756D01*
X108582960Y-74911500D01*
X108563174Y-74723244D01*
X108504679Y-74543216D01*
X108410033Y-74379284D01*
X108353350Y-74316331D01*
X108323120Y-74253339D01*
X108321500Y-74233359D01*
X108321500Y-73060921D01*
X108341185Y-72993882D01*
X108393989Y-72948127D01*
X108463147Y-72938183D01*
X108526703Y-72967208D01*
X108537644Y-72977943D01*
X108551996Y-72993882D01*
X108614129Y-73062888D01*
X108767265Y-73174148D01*
X108767270Y-73174151D01*
X108940192Y-73251142D01*
X108940197Y-73251144D01*
X109125354Y-73290500D01*
X109125355Y-73290500D01*
X109314644Y-73290500D01*
X109314646Y-73290500D01*
X109499803Y-73251144D01*
X109672730Y-73174151D01*
X109825871Y-73062888D01*
X109952533Y-72922216D01*
X110047179Y-72758284D01*
X110105674Y-72578256D01*
X110125460Y-72390000D01*
X110105674Y-72201744D01*
X110047179Y-72021716D01*
X109952533Y-71857784D01*
X109825871Y-71717112D01*
X109825870Y-71717111D01*
X109672734Y-71605851D01*
X109672729Y-71605848D01*
X109499807Y-71528857D01*
X109499802Y-71528855D01*
X109354001Y-71497865D01*
X109314646Y-71489500D01*
X109314645Y-71489500D01*
X109255453Y-71489500D01*
X109188414Y-71469815D01*
X109167772Y-71453181D01*
X109119819Y-71405228D01*
X109086334Y-71343905D01*
X109083500Y-71317547D01*
X109083500Y-67980921D01*
X109103185Y-67913882D01*
X109155989Y-67868127D01*
X109225147Y-67858183D01*
X109288703Y-67887208D01*
X109299644Y-67897943D01*
X109313996Y-67913882D01*
X109376129Y-67982888D01*
X109529265Y-68094148D01*
X109529270Y-68094151D01*
X109702191Y-68171142D01*
X109702193Y-68171142D01*
X109702197Y-68171144D01*
X109830547Y-68198425D01*
X109892025Y-68231616D01*
X109925802Y-68292778D01*
X109921150Y-68362493D01*
X109887742Y-68411858D01*
X109884130Y-68415109D01*
X109757466Y-68555785D01*
X109662821Y-68719715D01*
X109662818Y-68719722D01*
X109604327Y-68899740D01*
X109604326Y-68899744D01*
X109584540Y-69088000D01*
X109604326Y-69276256D01*
X109604327Y-69276259D01*
X109662818Y-69456277D01*
X109662821Y-69456284D01*
X109757467Y-69620216D01*
X109884129Y-69760888D01*
X110037265Y-69872148D01*
X110037270Y-69872151D01*
X110210192Y-69949142D01*
X110210197Y-69949144D01*
X110395354Y-69988500D01*
X110395355Y-69988500D01*
X110584644Y-69988500D01*
X110584646Y-69988500D01*
X110769803Y-69949144D01*
X110942730Y-69872151D01*
X111095871Y-69760888D01*
X111222533Y-69620216D01*
X111317179Y-69456284D01*
X111375674Y-69276256D01*
X111393170Y-69109782D01*
X111419754Y-69045169D01*
X111426097Y-69037864D01*
X111445920Y-69016754D01*
X111448566Y-69014023D01*
X111468120Y-68994471D01*
X111470576Y-68991303D01*
X111478156Y-68982427D01*
X111508062Y-68950582D01*
X111517713Y-68933024D01*
X111528396Y-68916761D01*
X111540673Y-68900936D01*
X111558021Y-68860844D01*
X111563151Y-68850371D01*
X111584197Y-68812092D01*
X111589180Y-68792680D01*
X111595481Y-68774280D01*
X111603437Y-68755896D01*
X111610270Y-68712748D01*
X111612633Y-68701338D01*
X111623500Y-68659019D01*
X111623500Y-68638983D01*
X111625027Y-68619582D01*
X111628160Y-68599804D01*
X111624049Y-68556327D01*
X111623500Y-68544658D01*
X111623500Y-67538741D01*
X111643185Y-67471702D01*
X111695989Y-67425947D01*
X111765147Y-67416003D01*
X111773266Y-67417448D01*
X111919354Y-67448500D01*
X111919355Y-67448500D01*
X112026500Y-67448500D01*
X112093539Y-67468185D01*
X112139294Y-67520989D01*
X112150500Y-67572500D01*
X112150500Y-70377944D01*
X112130815Y-70444983D01*
X112078011Y-70490738D01*
X112052282Y-70499234D01*
X111988196Y-70512856D01*
X111988192Y-70512857D01*
X111815270Y-70589848D01*
X111815265Y-70589851D01*
X111662129Y-70701111D01*
X111535466Y-70841785D01*
X111440821Y-71005715D01*
X111440818Y-71005722D01*
X111388417Y-71166998D01*
X111382326Y-71185744D01*
X111362540Y-71374000D01*
X111382326Y-71562256D01*
X111382327Y-71562259D01*
X111440818Y-71742277D01*
X111440821Y-71742284D01*
X111535467Y-71906216D01*
X111662129Y-72046888D01*
X111815265Y-72158148D01*
X111815270Y-72158151D01*
X111988192Y-72235142D01*
X111988197Y-72235144D01*
X112173354Y-72274500D01*
X112173355Y-72274500D01*
X112362644Y-72274500D01*
X112362646Y-72274500D01*
X112547803Y-72235144D01*
X112720730Y-72158151D01*
X112720733Y-72158148D01*
X112726363Y-72154899D01*
X112727904Y-72157569D01*
X112780948Y-72138415D01*
X112849062Y-72153980D01*
X112897948Y-72203900D01*
X112912500Y-72262185D01*
X112912500Y-73247611D01*
X112892815Y-73314650D01*
X112840011Y-73360405D01*
X112838937Y-73360890D01*
X112704267Y-73420850D01*
X112704265Y-73420851D01*
X112551129Y-73532111D01*
X112424466Y-73672785D01*
X112329821Y-73836715D01*
X112329818Y-73836722D01*
X112271327Y-74016740D01*
X112271326Y-74016744D01*
X112251540Y-74205000D01*
X112271326Y-74393256D01*
X112271327Y-74393259D01*
X112329818Y-74573277D01*
X112329821Y-74573284D01*
X112424467Y-74737216D01*
X112551129Y-74877888D01*
X112704265Y-74989148D01*
X112704270Y-74989151D01*
X112877192Y-75066142D01*
X112877197Y-75066144D01*
X113062354Y-75105500D01*
X113062355Y-75105500D01*
X113251644Y-75105500D01*
X113251646Y-75105500D01*
X113436803Y-75066144D01*
X113500064Y-75037977D01*
X113569313Y-75028692D01*
X113632590Y-75058320D01*
X113669804Y-75117455D01*
X113674500Y-75151257D01*
X113674500Y-75711944D01*
X113654815Y-75778983D01*
X113602011Y-75824738D01*
X113576282Y-75833234D01*
X113512196Y-75846856D01*
X113512192Y-75846857D01*
X113339270Y-75923848D01*
X113339265Y-75923851D01*
X113186129Y-76035111D01*
X113059466Y-76175785D01*
X112964821Y-76339715D01*
X112964818Y-76339722D01*
X112934996Y-76431506D01*
X112906326Y-76519744D01*
X112886540Y-76708000D01*
X112906326Y-76896256D01*
X112906327Y-76896259D01*
X112964818Y-77076277D01*
X112964821Y-77076284D01*
X113059467Y-77240216D01*
X113147500Y-77337986D01*
X113186129Y-77380888D01*
X113339265Y-77492148D01*
X113339270Y-77492151D01*
X113512192Y-77569142D01*
X113512197Y-77569144D01*
X113697354Y-77608500D01*
X113697355Y-77608500D01*
X113886644Y-77608500D01*
X113886646Y-77608500D01*
X114071803Y-77569144D01*
X114244730Y-77492151D01*
X114244733Y-77492148D01*
X114250363Y-77488899D01*
X114251904Y-77491569D01*
X114304948Y-77472415D01*
X114373062Y-77487980D01*
X114421948Y-77537900D01*
X114436500Y-77596185D01*
X114436500Y-78251944D01*
X114416815Y-78318983D01*
X114364011Y-78364738D01*
X114338282Y-78373234D01*
X114274196Y-78386856D01*
X114274192Y-78386857D01*
X114101270Y-78463848D01*
X114101265Y-78463851D01*
X113948129Y-78575111D01*
X113821466Y-78715785D01*
X113726821Y-78879715D01*
X113726818Y-78879722D01*
X113696996Y-78971506D01*
X113668326Y-79059744D01*
X113648540Y-79248000D01*
X113668326Y-79436256D01*
X113668327Y-79436259D01*
X113726818Y-79616277D01*
X113726821Y-79616284D01*
X113821467Y-79780216D01*
X113909500Y-79877986D01*
X113948129Y-79920888D01*
X114101265Y-80032148D01*
X114101270Y-80032151D01*
X114274192Y-80109142D01*
X114274197Y-80109144D01*
X114459354Y-80148500D01*
X114459355Y-80148500D01*
X114648644Y-80148500D01*
X114648646Y-80148500D01*
X114833803Y-80109144D01*
X115006730Y-80032151D01*
X115006733Y-80032148D01*
X115012363Y-80028899D01*
X115013904Y-80031569D01*
X115066948Y-80012415D01*
X115135062Y-80027980D01*
X115183948Y-80077900D01*
X115198500Y-80136185D01*
X115198500Y-80791944D01*
X115178815Y-80858983D01*
X115126011Y-80904738D01*
X115100282Y-80913234D01*
X115036196Y-80926856D01*
X115036192Y-80926857D01*
X114863270Y-81003848D01*
X114863265Y-81003851D01*
X114710129Y-81115111D01*
X114583466Y-81255785D01*
X114488821Y-81419715D01*
X114488818Y-81419722D01*
X114458996Y-81511506D01*
X114430326Y-81599744D01*
X114410540Y-81788000D01*
X114430326Y-81976256D01*
X114430327Y-81976259D01*
X114488818Y-82156277D01*
X114488821Y-82156284D01*
X114583467Y-82320216D01*
X114671500Y-82417986D01*
X114710129Y-82460888D01*
X114863265Y-82572148D01*
X114863270Y-82572151D01*
X115036192Y-82649142D01*
X115036197Y-82649144D01*
X115221354Y-82688500D01*
X115221355Y-82688500D01*
X115410644Y-82688500D01*
X115410646Y-82688500D01*
X115595803Y-82649144D01*
X115768730Y-82572151D01*
X115768733Y-82572148D01*
X115774363Y-82568899D01*
X115775904Y-82571569D01*
X115828948Y-82552415D01*
X115897062Y-82567980D01*
X115945948Y-82617900D01*
X115960500Y-82676185D01*
X115960500Y-83368944D01*
X115940815Y-83435983D01*
X115888011Y-83481738D01*
X115862282Y-83490234D01*
X115798196Y-83503856D01*
X115798192Y-83503857D01*
X115625270Y-83580848D01*
X115625265Y-83580851D01*
X115472129Y-83692111D01*
X115345466Y-83832785D01*
X115250821Y-83996715D01*
X115250818Y-83996722D01*
X115210478Y-84120878D01*
X115192326Y-84176744D01*
X115172540Y-84365000D01*
X115192326Y-84553256D01*
X115192327Y-84553259D01*
X115250818Y-84733277D01*
X115250821Y-84733284D01*
X115345467Y-84897216D01*
X115433500Y-84994986D01*
X115472129Y-85037888D01*
X115625265Y-85149148D01*
X115625270Y-85149151D01*
X115798192Y-85226142D01*
X115798197Y-85226144D01*
X115983354Y-85265500D01*
X115983355Y-85265500D01*
X116172644Y-85265500D01*
X116172646Y-85265500D01*
X116357803Y-85226144D01*
X116530730Y-85149151D01*
X116530733Y-85149148D01*
X116536363Y-85145899D01*
X116537904Y-85148569D01*
X116590948Y-85129415D01*
X116659062Y-85144980D01*
X116707948Y-85194900D01*
X116722500Y-85253185D01*
X116722500Y-85871944D01*
X116702815Y-85938983D01*
X116650011Y-85984738D01*
X116624282Y-85993234D01*
X116560196Y-86006856D01*
X116560192Y-86006857D01*
X116387270Y-86083848D01*
X116387265Y-86083851D01*
X116234129Y-86195111D01*
X116107466Y-86335785D01*
X116012821Y-86499715D01*
X116012818Y-86499722D01*
X115982996Y-86591506D01*
X115954326Y-86679744D01*
X115934540Y-86868000D01*
X115954326Y-87056256D01*
X115954327Y-87056259D01*
X116012818Y-87236277D01*
X116012821Y-87236284D01*
X116107467Y-87400216D01*
X116195500Y-87497986D01*
X116234129Y-87540888D01*
X116387265Y-87652148D01*
X116387270Y-87652151D01*
X116560192Y-87729142D01*
X116560197Y-87729144D01*
X116745354Y-87768500D01*
X116745355Y-87768500D01*
X116934644Y-87768500D01*
X116934646Y-87768500D01*
X117119803Y-87729144D01*
X117292730Y-87652151D01*
X117292733Y-87652148D01*
X117298363Y-87648899D01*
X117299904Y-87651569D01*
X117352948Y-87632415D01*
X117421062Y-87647980D01*
X117469948Y-87697900D01*
X117484500Y-87756185D01*
X117484500Y-88157944D01*
X117464815Y-88224983D01*
X117412011Y-88270738D01*
X117386282Y-88279234D01*
X117322196Y-88292856D01*
X117322192Y-88292857D01*
X117149270Y-88369848D01*
X117149265Y-88369851D01*
X116996129Y-88481111D01*
X116869466Y-88621785D01*
X116774821Y-88785715D01*
X116774818Y-88785722D01*
X116716327Y-88965740D01*
X116716326Y-88965744D01*
X116696540Y-89154000D01*
X116716326Y-89342256D01*
X116716327Y-89342259D01*
X116774818Y-89522277D01*
X116774821Y-89522284D01*
X116869467Y-89686216D01*
X116988839Y-89818792D01*
X116996129Y-89826888D01*
X117149265Y-89938148D01*
X117149270Y-89938151D01*
X117322192Y-90015142D01*
X117322197Y-90015144D01*
X117507354Y-90054500D01*
X117507355Y-90054500D01*
X117696644Y-90054500D01*
X117696646Y-90054500D01*
X117881803Y-90015144D01*
X118054730Y-89938151D01*
X118207871Y-89826888D01*
X118334533Y-89686216D01*
X118429179Y-89522284D01*
X118487674Y-89342256D01*
X118505170Y-89175782D01*
X118531754Y-89111169D01*
X118538097Y-89103864D01*
X118557920Y-89082754D01*
X118560566Y-89080023D01*
X118580120Y-89060471D01*
X118582576Y-89057303D01*
X118590156Y-89048427D01*
X118620062Y-89016582D01*
X118629713Y-88999024D01*
X118640396Y-88982761D01*
X118652673Y-88966936D01*
X118670021Y-88926844D01*
X118675151Y-88916371D01*
X118696197Y-88878092D01*
X118701180Y-88858680D01*
X118707481Y-88840280D01*
X118715437Y-88821896D01*
X118722270Y-88778748D01*
X118724633Y-88767338D01*
X118735500Y-88725019D01*
X118735500Y-88704983D01*
X118737027Y-88685582D01*
X118737175Y-88684649D01*
X118740160Y-88665804D01*
X118736049Y-88622327D01*
X118735500Y-88610658D01*
X118735500Y-65032500D01*
X118755185Y-64965461D01*
X118807989Y-64919706D01*
X118859500Y-64908500D01*
X118966644Y-64908500D01*
X118966646Y-64908500D01*
X119094723Y-64881276D01*
X119158160Y-64867793D01*
X119158484Y-64869319D01*
X119220402Y-64867543D01*
X119280240Y-64903616D01*
X119311075Y-64966313D01*
X119312422Y-64976664D01*
X119314936Y-65005403D01*
X119314938Y-65005413D01*
X119376094Y-65233655D01*
X119376096Y-65233659D01*
X119376097Y-65233663D01*
X119470703Y-65436546D01*
X119475965Y-65447830D01*
X119475967Y-65447834D01*
X119490569Y-65468687D01*
X119611501Y-65641396D01*
X119611506Y-65641402D01*
X119778597Y-65808493D01*
X119778603Y-65808498D01*
X119964158Y-65938425D01*
X120007783Y-65993002D01*
X120014977Y-66062500D01*
X119983454Y-66124855D01*
X119964158Y-66141575D01*
X119778597Y-66271505D01*
X119611505Y-66438597D01*
X119475965Y-66632169D01*
X119475964Y-66632171D01*
X119376098Y-66846335D01*
X119376094Y-66846344D01*
X119314938Y-67074586D01*
X119314936Y-67074596D01*
X119294341Y-67309999D01*
X119294341Y-67310000D01*
X119314936Y-67545403D01*
X119314938Y-67545413D01*
X119376094Y-67773655D01*
X119376096Y-67773659D01*
X119376097Y-67773663D01*
X119445949Y-67923461D01*
X119475965Y-67987830D01*
X119475967Y-67987834D01*
X119550412Y-68094151D01*
X119611501Y-68181396D01*
X119611506Y-68181402D01*
X119778597Y-68348493D01*
X119778603Y-68348498D01*
X119964158Y-68478425D01*
X120007783Y-68533002D01*
X120014977Y-68602500D01*
X119983454Y-68664855D01*
X119964158Y-68681575D01*
X119778597Y-68811505D01*
X119611505Y-68978597D01*
X119475965Y-69172169D01*
X119475964Y-69172171D01*
X119376098Y-69386335D01*
X119376094Y-69386344D01*
X119314938Y-69614586D01*
X119314936Y-69614596D01*
X119294341Y-69849999D01*
X119294341Y-69850000D01*
X119314936Y-70085403D01*
X119314938Y-70085413D01*
X119376094Y-70313655D01*
X119376096Y-70313659D01*
X119376097Y-70313663D01*
X119468983Y-70512857D01*
X119475965Y-70527830D01*
X119475967Y-70527834D01*
X119584281Y-70682521D01*
X119611501Y-70721396D01*
X119611506Y-70721402D01*
X119778597Y-70888493D01*
X119778603Y-70888498D01*
X119964158Y-71018425D01*
X120007783Y-71073002D01*
X120014977Y-71142500D01*
X119983454Y-71204855D01*
X119964158Y-71221575D01*
X119778597Y-71351505D01*
X119611505Y-71518597D01*
X119475965Y-71712169D01*
X119475964Y-71712171D01*
X119376098Y-71926335D01*
X119376094Y-71926344D01*
X119314938Y-72154586D01*
X119314936Y-72154596D01*
X119294341Y-72389999D01*
X119294341Y-72390000D01*
X119314936Y-72625403D01*
X119314938Y-72625413D01*
X119376094Y-72853655D01*
X119376096Y-72853659D01*
X119376097Y-72853663D01*
X119456004Y-73025023D01*
X119475965Y-73067830D01*
X119475967Y-73067834D01*
X119550412Y-73174151D01*
X119611501Y-73261396D01*
X119611506Y-73261402D01*
X119778597Y-73428493D01*
X119778603Y-73428498D01*
X119964158Y-73558425D01*
X120007783Y-73613002D01*
X120014977Y-73682500D01*
X119983454Y-73744855D01*
X119964158Y-73761575D01*
X119778597Y-73891505D01*
X119611505Y-74058597D01*
X119475965Y-74252169D01*
X119475964Y-74252171D01*
X119376098Y-74466335D01*
X119376094Y-74466344D01*
X119314938Y-74694586D01*
X119314936Y-74694596D01*
X119294341Y-74929999D01*
X119294341Y-74930000D01*
X119314936Y-75165403D01*
X119314938Y-75165413D01*
X119376094Y-75393655D01*
X119376096Y-75393659D01*
X119376097Y-75393663D01*
X119456004Y-75565023D01*
X119475965Y-75607830D01*
X119475967Y-75607834D01*
X119537456Y-75695648D01*
X119611501Y-75801396D01*
X119611506Y-75801402D01*
X119778597Y-75968493D01*
X119778603Y-75968498D01*
X119964158Y-76098425D01*
X120007783Y-76153002D01*
X120014977Y-76222500D01*
X119983454Y-76284855D01*
X119964158Y-76301575D01*
X119778597Y-76431505D01*
X119611505Y-76598597D01*
X119475965Y-76792169D01*
X119475964Y-76792171D01*
X119376098Y-77006335D01*
X119376094Y-77006344D01*
X119314938Y-77234586D01*
X119314936Y-77234596D01*
X119294341Y-77469999D01*
X119294341Y-77470000D01*
X119314936Y-77705403D01*
X119314938Y-77705413D01*
X119376094Y-77933655D01*
X119376096Y-77933659D01*
X119376097Y-77933663D01*
X119380000Y-77942032D01*
X119475965Y-78147830D01*
X119475967Y-78147834D01*
X119550412Y-78254151D01*
X119611501Y-78341396D01*
X119611506Y-78341402D01*
X119778597Y-78508493D01*
X119778603Y-78508498D01*
X119964158Y-78638425D01*
X120007783Y-78693002D01*
X120014977Y-78762500D01*
X119983454Y-78824855D01*
X119964158Y-78841575D01*
X119778597Y-78971505D01*
X119611505Y-79138597D01*
X119475965Y-79332169D01*
X119475964Y-79332171D01*
X119376098Y-79546335D01*
X119376094Y-79546344D01*
X119314938Y-79774586D01*
X119314936Y-79774596D01*
X119294341Y-80009999D01*
X119294341Y-80010000D01*
X119314936Y-80245403D01*
X119314938Y-80245413D01*
X119376094Y-80473655D01*
X119376096Y-80473659D01*
X119376097Y-80473663D01*
X119380000Y-80482032D01*
X119475965Y-80687830D01*
X119475967Y-80687834D01*
X119550412Y-80794151D01*
X119611501Y-80881396D01*
X119611506Y-80881402D01*
X119778597Y-81048493D01*
X119778603Y-81048498D01*
X119964158Y-81178425D01*
X120007783Y-81233002D01*
X120014977Y-81302500D01*
X119983454Y-81364855D01*
X119964158Y-81381575D01*
X119778597Y-81511505D01*
X119611505Y-81678597D01*
X119475965Y-81872169D01*
X119475964Y-81872171D01*
X119376098Y-82086335D01*
X119376094Y-82086344D01*
X119314938Y-82314586D01*
X119314936Y-82314596D01*
X119294341Y-82549999D01*
X119294341Y-82550000D01*
X119314936Y-82785403D01*
X119314938Y-82785413D01*
X119376094Y-83013655D01*
X119376096Y-83013659D01*
X119376097Y-83013663D01*
X119380000Y-83022032D01*
X119475965Y-83227830D01*
X119475967Y-83227834D01*
X119550412Y-83334151D01*
X119611501Y-83421396D01*
X119611506Y-83421402D01*
X119778597Y-83588493D01*
X119778603Y-83588498D01*
X119964158Y-83718425D01*
X120007783Y-83773002D01*
X120014977Y-83842500D01*
X119983454Y-83904855D01*
X119964158Y-83921575D01*
X119778597Y-84051505D01*
X119611505Y-84218597D01*
X119475965Y-84412169D01*
X119475964Y-84412171D01*
X119376098Y-84626335D01*
X119376094Y-84626344D01*
X119314938Y-84854586D01*
X119314936Y-84854596D01*
X119294341Y-85089999D01*
X119294341Y-85090000D01*
X119314936Y-85325403D01*
X119314938Y-85325413D01*
X119376094Y-85553655D01*
X119376096Y-85553659D01*
X119376097Y-85553663D01*
X119380000Y-85562032D01*
X119475965Y-85767830D01*
X119475967Y-85767834D01*
X119550412Y-85874151D01*
X119611501Y-85961396D01*
X119611506Y-85961402D01*
X119778597Y-86128493D01*
X119778603Y-86128498D01*
X119964158Y-86258425D01*
X120007783Y-86313002D01*
X120014977Y-86382500D01*
X119983454Y-86444855D01*
X119964158Y-86461575D01*
X119778597Y-86591505D01*
X119611505Y-86758597D01*
X119475965Y-86952169D01*
X119475964Y-86952171D01*
X119376098Y-87166335D01*
X119376094Y-87166344D01*
X119314938Y-87394586D01*
X119314936Y-87394596D01*
X119294341Y-87629999D01*
X119294341Y-87630000D01*
X119314936Y-87865403D01*
X119314938Y-87865413D01*
X119376094Y-88093655D01*
X119376096Y-88093659D01*
X119376097Y-88093663D01*
X119468983Y-88292857D01*
X119475965Y-88307830D01*
X119475967Y-88307834D01*
X119550412Y-88414151D01*
X119611501Y-88501396D01*
X119611506Y-88501402D01*
X119778597Y-88668493D01*
X119778603Y-88668498D01*
X119964158Y-88798425D01*
X120007783Y-88853002D01*
X120014977Y-88922500D01*
X119983454Y-88984855D01*
X119964158Y-89001575D01*
X119778597Y-89131505D01*
X119611505Y-89298597D01*
X119475965Y-89492169D01*
X119475964Y-89492171D01*
X119393101Y-89669872D01*
X119378423Y-89701350D01*
X119376098Y-89706335D01*
X119376094Y-89706344D01*
X119314938Y-89934586D01*
X119314936Y-89934596D01*
X119294341Y-90169999D01*
X119294341Y-90170000D01*
X119314936Y-90405403D01*
X119314938Y-90405413D01*
X119376094Y-90633655D01*
X119376096Y-90633659D01*
X119376097Y-90633663D01*
X119380000Y-90642032D01*
X119475965Y-90847830D01*
X119475967Y-90847834D01*
X119550412Y-90954151D01*
X119611505Y-91041401D01*
X119778599Y-91208495D01*
X119875384Y-91276265D01*
X119972165Y-91344032D01*
X119972167Y-91344033D01*
X119972170Y-91344035D01*
X120186337Y-91443903D01*
X120414592Y-91505063D01*
X120591034Y-91520500D01*
X120649999Y-91525659D01*
X120650000Y-91525659D01*
X120650001Y-91525659D01*
X120708966Y-91520500D01*
X120885408Y-91505063D01*
X121113663Y-91443903D01*
X121327830Y-91344035D01*
X121521401Y-91208495D01*
X121688495Y-91041401D01*
X121818425Y-90855842D01*
X121873002Y-90812217D01*
X121942500Y-90805023D01*
X122004855Y-90836546D01*
X122021575Y-90855842D01*
X122151500Y-91041395D01*
X122151505Y-91041401D01*
X122318599Y-91208495D01*
X122415384Y-91276265D01*
X122512165Y-91344032D01*
X122512167Y-91344033D01*
X122512170Y-91344035D01*
X122726337Y-91443903D01*
X122954592Y-91505063D01*
X123131034Y-91520500D01*
X123189999Y-91525659D01*
X123190000Y-91525659D01*
X123190001Y-91525659D01*
X123248966Y-91520500D01*
X123425408Y-91505063D01*
X123653663Y-91443903D01*
X123867830Y-91344035D01*
X124061401Y-91208495D01*
X124228495Y-91041401D01*
X124364035Y-90847830D01*
X124463903Y-90633663D01*
X124525063Y-90405408D01*
X124545659Y-90170000D01*
X124525063Y-89934592D01*
X124463903Y-89706337D01*
X124364035Y-89492171D01*
X124358425Y-89484158D01*
X124228494Y-89298597D01*
X124061402Y-89131506D01*
X124061396Y-89131501D01*
X123875842Y-89001575D01*
X123832217Y-88946998D01*
X123825023Y-88877500D01*
X123856546Y-88815145D01*
X123875842Y-88798425D01*
X123980678Y-88725018D01*
X124061401Y-88668495D01*
X124228495Y-88501401D01*
X124364035Y-88307830D01*
X124463903Y-88093663D01*
X124525063Y-87865408D01*
X124545659Y-87630000D01*
X124525063Y-87394592D01*
X124463903Y-87166337D01*
X124364035Y-86952171D01*
X124358425Y-86944158D01*
X124228494Y-86758597D01*
X124061402Y-86591506D01*
X124061396Y-86591501D01*
X123875842Y-86461575D01*
X123832217Y-86406998D01*
X123825023Y-86337500D01*
X123856546Y-86275145D01*
X123875842Y-86258425D01*
X123966262Y-86195112D01*
X124061401Y-86128495D01*
X124228495Y-85961401D01*
X124364035Y-85767830D01*
X124463903Y-85553663D01*
X124525063Y-85325408D01*
X124545659Y-85090000D01*
X124525063Y-84854592D01*
X124463903Y-84626337D01*
X124364035Y-84412171D01*
X124358425Y-84404158D01*
X124228494Y-84218597D01*
X124061402Y-84051506D01*
X124061396Y-84051501D01*
X123875842Y-83921575D01*
X123832217Y-83866998D01*
X123825023Y-83797500D01*
X123856546Y-83735145D01*
X123875842Y-83718425D01*
X123913422Y-83692111D01*
X124061401Y-83588495D01*
X124228495Y-83421401D01*
X124364035Y-83227830D01*
X124463903Y-83013663D01*
X124525063Y-82785408D01*
X124545659Y-82550000D01*
X124525063Y-82314592D01*
X124463903Y-82086337D01*
X124364035Y-81872171D01*
X124358425Y-81864158D01*
X124228494Y-81678597D01*
X124061402Y-81511506D01*
X124061396Y-81511501D01*
X123875842Y-81381575D01*
X123832217Y-81326998D01*
X123825023Y-81257500D01*
X123856546Y-81195145D01*
X123875842Y-81178425D01*
X123966262Y-81115112D01*
X124061401Y-81048495D01*
X124228495Y-80881401D01*
X124364035Y-80687830D01*
X124463903Y-80473663D01*
X124525063Y-80245408D01*
X124545659Y-80010000D01*
X124525063Y-79774592D01*
X124463903Y-79546337D01*
X124364035Y-79332171D01*
X124358425Y-79324158D01*
X124228494Y-79138597D01*
X124061402Y-78971506D01*
X124061396Y-78971501D01*
X123875842Y-78841575D01*
X123832217Y-78786998D01*
X123825023Y-78717500D01*
X123856546Y-78655145D01*
X123875842Y-78638425D01*
X123966262Y-78575112D01*
X124061401Y-78508495D01*
X124228495Y-78341401D01*
X124364035Y-78147830D01*
X124463903Y-77933663D01*
X124525063Y-77705408D01*
X124545659Y-77470000D01*
X124525063Y-77234592D01*
X124463903Y-77006337D01*
X124364035Y-76792171D01*
X124358425Y-76784158D01*
X124228494Y-76598597D01*
X124061402Y-76431506D01*
X124061396Y-76431501D01*
X123875842Y-76301575D01*
X123832217Y-76246998D01*
X123825023Y-76177500D01*
X123856546Y-76115145D01*
X123875842Y-76098425D01*
X123966262Y-76035112D01*
X124061401Y-75968495D01*
X124228495Y-75801401D01*
X124364035Y-75607830D01*
X124463903Y-75393663D01*
X124525063Y-75165408D01*
X124545659Y-74930000D01*
X124525063Y-74694592D01*
X124463903Y-74466337D01*
X124364035Y-74252171D01*
X124358425Y-74244158D01*
X124228494Y-74058597D01*
X124061402Y-73891506D01*
X124061396Y-73891501D01*
X123875842Y-73761575D01*
X123832217Y-73706998D01*
X123825023Y-73637500D01*
X123856546Y-73575145D01*
X123875842Y-73558425D01*
X123913422Y-73532111D01*
X124061401Y-73428495D01*
X124228495Y-73261401D01*
X124364035Y-73067830D01*
X124463903Y-72853663D01*
X124525063Y-72625408D01*
X124545659Y-72390000D01*
X124525063Y-72154592D01*
X124463903Y-71926337D01*
X124364035Y-71712171D01*
X124358425Y-71704158D01*
X124228494Y-71518597D01*
X124061402Y-71351506D01*
X124061396Y-71351501D01*
X123875842Y-71221575D01*
X123832217Y-71166998D01*
X123825023Y-71097500D01*
X123856546Y-71035145D01*
X123875842Y-71018425D01*
X123898026Y-71002891D01*
X124061401Y-70888495D01*
X124228495Y-70721401D01*
X124364035Y-70527830D01*
X124463903Y-70313663D01*
X124525063Y-70085408D01*
X124545659Y-69850000D01*
X124525063Y-69614592D01*
X124463903Y-69386337D01*
X124398143Y-69245317D01*
X124387652Y-69176241D01*
X124416172Y-69112457D01*
X124417709Y-69110687D01*
X124419924Y-69108186D01*
X124419929Y-69108183D01*
X124459837Y-69063134D01*
X124464924Y-69057731D01*
X125009819Y-68512837D01*
X125071142Y-68479352D01*
X125140834Y-68484336D01*
X125196767Y-68526208D01*
X125221184Y-68591672D01*
X125221500Y-68600518D01*
X125221500Y-92077500D01*
X125201815Y-92144539D01*
X125149011Y-92190294D01*
X125097500Y-92201500D01*
X96136500Y-92201500D01*
X96069461Y-92181815D01*
X96023706Y-92129011D01*
X96012500Y-92077500D01*
X96012500Y-63520519D01*
X96032185Y-63453480D01*
X96084989Y-63407725D01*
X96154147Y-63397781D01*
X96217703Y-63426806D01*
X96224181Y-63432838D01*
X96769058Y-63977715D01*
X96774178Y-63983153D01*
X96814071Y-64028183D01*
X96814072Y-64028183D01*
X96816289Y-64030686D01*
X96846010Y-64093919D01*
X96836826Y-64163183D01*
X96835855Y-64165317D01*
X96770099Y-64306330D01*
X96770094Y-64306344D01*
X96708938Y-64534586D01*
X96708936Y-64534596D01*
X96688341Y-64769999D01*
X96688341Y-64770000D01*
X96708936Y-65005403D01*
X96708938Y-65005413D01*
X96770094Y-65233655D01*
X96770096Y-65233659D01*
X96770097Y-65233663D01*
X96864703Y-65436546D01*
X96869965Y-65447830D01*
X96869967Y-65447834D01*
X96884569Y-65468687D01*
X97005501Y-65641396D01*
X97005506Y-65641402D01*
X97172597Y-65808493D01*
X97172603Y-65808498D01*
X97358158Y-65938425D01*
X97401783Y-65993002D01*
X97408977Y-66062500D01*
X97377454Y-66124855D01*
X97358158Y-66141575D01*
X97172597Y-66271505D01*
X97005505Y-66438597D01*
X96869965Y-66632169D01*
X96869964Y-66632171D01*
X96770098Y-66846335D01*
X96770094Y-66846344D01*
X96708938Y-67074586D01*
X96708936Y-67074596D01*
X96688341Y-67309999D01*
X96688341Y-67310000D01*
X96708936Y-67545403D01*
X96708938Y-67545413D01*
X96770094Y-67773655D01*
X96770096Y-67773659D01*
X96770097Y-67773663D01*
X96839949Y-67923461D01*
X96869965Y-67987830D01*
X96869967Y-67987834D01*
X96944412Y-68094151D01*
X97005501Y-68181396D01*
X97005506Y-68181402D01*
X97172597Y-68348493D01*
X97172603Y-68348498D01*
X97358158Y-68478425D01*
X97401783Y-68533002D01*
X97408977Y-68602500D01*
X97377454Y-68664855D01*
X97358158Y-68681575D01*
X97172597Y-68811505D01*
X97005505Y-68978597D01*
X96869965Y-69172169D01*
X96869964Y-69172171D01*
X96770098Y-69386335D01*
X96770094Y-69386344D01*
X96708938Y-69614586D01*
X96708936Y-69614596D01*
X96688341Y-69849999D01*
X96688341Y-69850000D01*
X96708936Y-70085403D01*
X96708938Y-70085413D01*
X96770094Y-70313655D01*
X96770096Y-70313659D01*
X96770097Y-70313663D01*
X96862983Y-70512857D01*
X96869965Y-70527830D01*
X96869967Y-70527834D01*
X96978281Y-70682521D01*
X97005501Y-70721396D01*
X97005506Y-70721402D01*
X97172597Y-70888493D01*
X97172603Y-70888498D01*
X97358158Y-71018425D01*
X97401783Y-71073002D01*
X97408977Y-71142500D01*
X97377454Y-71204855D01*
X97358158Y-71221575D01*
X97172597Y-71351505D01*
X97005505Y-71518597D01*
X96869965Y-71712169D01*
X96869964Y-71712171D01*
X96770098Y-71926335D01*
X96770094Y-71926344D01*
X96708938Y-72154586D01*
X96708936Y-72154596D01*
X96688341Y-72389999D01*
X96688341Y-72390000D01*
X96708936Y-72625403D01*
X96708938Y-72625413D01*
X96770094Y-72853655D01*
X96770096Y-72853659D01*
X96770097Y-72853663D01*
X96850004Y-73025023D01*
X96869965Y-73067830D01*
X96869967Y-73067834D01*
X96944412Y-73174151D01*
X97005501Y-73261396D01*
X97005506Y-73261402D01*
X97172597Y-73428493D01*
X97172603Y-73428498D01*
X97358158Y-73558425D01*
X97401783Y-73613002D01*
X97408977Y-73682500D01*
X97377454Y-73744855D01*
X97358158Y-73761575D01*
X97172597Y-73891505D01*
X97005505Y-74058597D01*
X96869965Y-74252169D01*
X96869964Y-74252171D01*
X96770098Y-74466335D01*
X96770094Y-74466344D01*
X96708938Y-74694586D01*
X96708936Y-74694596D01*
X96688341Y-74929999D01*
X96688341Y-74930000D01*
X96708936Y-75165403D01*
X96708938Y-75165413D01*
X96770094Y-75393655D01*
X96770096Y-75393659D01*
X96770097Y-75393663D01*
X96850004Y-75565023D01*
X96869965Y-75607830D01*
X96869967Y-75607834D01*
X96931456Y-75695648D01*
X97005501Y-75801396D01*
X97005506Y-75801402D01*
X97172597Y-75968493D01*
X97172603Y-75968498D01*
X97358158Y-76098425D01*
X97401783Y-76153002D01*
X97408977Y-76222500D01*
X97377454Y-76284855D01*
X97358158Y-76301575D01*
X97172597Y-76431505D01*
X97005505Y-76598597D01*
X96869965Y-76792169D01*
X96869964Y-76792171D01*
X96770098Y-77006335D01*
X96770094Y-77006344D01*
X96708938Y-77234586D01*
X96708936Y-77234596D01*
X96688341Y-77469999D01*
X96688341Y-77470000D01*
X96708936Y-77705403D01*
X96708938Y-77705413D01*
X96770094Y-77933655D01*
X96770096Y-77933659D01*
X96770097Y-77933663D01*
X96774000Y-77942032D01*
X96869965Y-78147830D01*
X96869967Y-78147834D01*
X96944412Y-78254151D01*
X97005501Y-78341396D01*
X97005506Y-78341402D01*
X97172597Y-78508493D01*
X97172603Y-78508498D01*
X97358158Y-78638425D01*
X97401783Y-78693002D01*
X97408977Y-78762500D01*
X97377454Y-78824855D01*
X97358158Y-78841575D01*
X97172597Y-78971505D01*
X97005505Y-79138597D01*
X96869965Y-79332169D01*
X96869964Y-79332171D01*
X96770098Y-79546335D01*
X96770094Y-79546344D01*
X96708938Y-79774586D01*
X96708936Y-79774596D01*
X96688341Y-80009999D01*
X96688341Y-80010000D01*
X96708936Y-80245403D01*
X96708938Y-80245413D01*
X96770094Y-80473655D01*
X96770096Y-80473659D01*
X96770097Y-80473663D01*
X96774000Y-80482032D01*
X96869965Y-80687830D01*
X96869967Y-80687834D01*
X96944412Y-80794151D01*
X97005501Y-80881396D01*
X97005506Y-80881402D01*
X97172597Y-81048493D01*
X97172603Y-81048498D01*
X97358158Y-81178425D01*
X97401783Y-81233002D01*
X97408977Y-81302500D01*
X97377454Y-81364855D01*
X97358158Y-81381575D01*
X97172597Y-81511505D01*
X97005505Y-81678597D01*
X96869965Y-81872169D01*
X96869964Y-81872171D01*
X96770098Y-82086335D01*
X96770094Y-82086344D01*
X96708938Y-82314586D01*
X96708936Y-82314596D01*
X96688341Y-82549999D01*
X96688341Y-82550000D01*
X96708936Y-82785403D01*
X96708938Y-82785413D01*
X96770094Y-83013655D01*
X96770096Y-83013659D01*
X96770097Y-83013663D01*
X96774000Y-83022032D01*
X96869965Y-83227830D01*
X96869967Y-83227834D01*
X96944412Y-83334151D01*
X97005501Y-83421396D01*
X97005506Y-83421402D01*
X97172597Y-83588493D01*
X97172603Y-83588498D01*
X97358158Y-83718425D01*
X97401783Y-83773002D01*
X97408977Y-83842500D01*
X97377454Y-83904855D01*
X97358158Y-83921575D01*
X97172597Y-84051505D01*
X97005505Y-84218597D01*
X96869965Y-84412169D01*
X96869964Y-84412171D01*
X96770098Y-84626335D01*
X96770094Y-84626344D01*
X96708938Y-84854586D01*
X96708936Y-84854596D01*
X96688341Y-85089999D01*
X96688341Y-85090000D01*
X96708936Y-85325403D01*
X96708938Y-85325413D01*
X96770094Y-85553655D01*
X96770096Y-85553659D01*
X96770097Y-85553663D01*
X96774000Y-85562032D01*
X96869965Y-85767830D01*
X96869967Y-85767834D01*
X96944412Y-85874151D01*
X97005501Y-85961396D01*
X97005506Y-85961402D01*
X97172597Y-86128493D01*
X97172603Y-86128498D01*
X97358158Y-86258425D01*
X97401783Y-86313002D01*
X97408977Y-86382500D01*
X97377454Y-86444855D01*
X97358158Y-86461575D01*
X97172597Y-86591505D01*
X97005505Y-86758597D01*
X96869965Y-86952169D01*
X96869964Y-86952171D01*
X96770098Y-87166335D01*
X96770094Y-87166344D01*
X96708938Y-87394586D01*
X96708936Y-87394596D01*
X96688341Y-87629999D01*
X96688341Y-87630000D01*
X96708936Y-87865403D01*
X96708938Y-87865413D01*
X96770094Y-88093655D01*
X96770096Y-88093659D01*
X96770097Y-88093663D01*
X96862983Y-88292857D01*
X96869965Y-88307830D01*
X96869967Y-88307834D01*
X96944412Y-88414151D01*
X97005501Y-88501396D01*
X97005506Y-88501402D01*
X97172597Y-88668493D01*
X97172603Y-88668498D01*
X97358158Y-88798425D01*
X97401783Y-88853002D01*
X97408977Y-88922500D01*
X97377454Y-88984855D01*
X97358158Y-89001575D01*
X97172597Y-89131505D01*
X97005505Y-89298597D01*
X96869965Y-89492169D01*
X96869964Y-89492171D01*
X96787101Y-89669872D01*
X96772423Y-89701350D01*
X96770098Y-89706335D01*
X96770094Y-89706344D01*
X96708938Y-89934586D01*
X96708936Y-89934596D01*
X96688341Y-90169999D01*
X96688341Y-90170000D01*
X96708936Y-90405403D01*
X96708938Y-90405413D01*
X96770094Y-90633655D01*
X96770096Y-90633659D01*
X96770097Y-90633663D01*
X96774000Y-90642032D01*
X96869965Y-90847830D01*
X96869967Y-90847834D01*
X96944412Y-90954151D01*
X97005505Y-91041401D01*
X97172599Y-91208495D01*
X97269384Y-91276265D01*
X97366165Y-91344032D01*
X97366167Y-91344033D01*
X97366170Y-91344035D01*
X97580337Y-91443903D01*
X97808592Y-91505063D01*
X97985034Y-91520500D01*
X98043999Y-91525659D01*
X98044000Y-91525659D01*
X98044001Y-91525659D01*
X98102966Y-91520500D01*
X98279408Y-91505063D01*
X98507663Y-91443903D01*
X98721830Y-91344035D01*
X98915401Y-91208495D01*
X99037329Y-91086566D01*
X99098648Y-91053084D01*
X99168340Y-91058068D01*
X99224274Y-91099939D01*
X99241189Y-91130917D01*
X99290202Y-91262328D01*
X99290206Y-91262335D01*
X99376452Y-91377544D01*
X99376455Y-91377547D01*
X99491664Y-91463793D01*
X99491671Y-91463797D01*
X99626517Y-91514091D01*
X99626516Y-91514091D01*
X99633444Y-91514835D01*
X99686127Y-91520500D01*
X101481872Y-91520499D01*
X101541483Y-91514091D01*
X101676331Y-91463796D01*
X101791546Y-91377546D01*
X101877796Y-91262331D01*
X101928091Y-91127483D01*
X101934500Y-91067873D01*
X101934499Y-89272128D01*
X101928091Y-89212517D01*
X101926810Y-89209083D01*
X101877797Y-89077671D01*
X101877793Y-89077664D01*
X101791547Y-88962455D01*
X101791544Y-88962452D01*
X101676335Y-88876206D01*
X101676328Y-88876202D01*
X101544917Y-88827189D01*
X101488983Y-88785318D01*
X101464566Y-88719853D01*
X101479418Y-88651580D01*
X101500563Y-88623332D01*
X101622495Y-88501401D01*
X101758035Y-88307830D01*
X101857903Y-88093663D01*
X101919063Y-87865408D01*
X101939659Y-87630000D01*
X101919063Y-87394592D01*
X101857903Y-87166337D01*
X101758035Y-86952171D01*
X101752425Y-86944158D01*
X101622494Y-86758597D01*
X101455402Y-86591506D01*
X101455396Y-86591501D01*
X101269842Y-86461575D01*
X101226217Y-86406998D01*
X101219023Y-86337500D01*
X101250546Y-86275145D01*
X101269842Y-86258425D01*
X101360262Y-86195112D01*
X101455401Y-86128495D01*
X101622495Y-85961401D01*
X101758035Y-85767830D01*
X101857903Y-85553663D01*
X101919063Y-85325408D01*
X101939659Y-85090000D01*
X101919063Y-84854592D01*
X101857903Y-84626337D01*
X101758035Y-84412171D01*
X101752425Y-84404158D01*
X101622494Y-84218597D01*
X101455402Y-84051506D01*
X101455396Y-84051501D01*
X101269842Y-83921575D01*
X101226217Y-83866998D01*
X101219023Y-83797500D01*
X101250546Y-83735145D01*
X101269842Y-83718425D01*
X101307422Y-83692111D01*
X101455401Y-83588495D01*
X101622495Y-83421401D01*
X101758035Y-83227830D01*
X101857903Y-83013663D01*
X101919063Y-82785408D01*
X101939659Y-82550000D01*
X101919063Y-82314592D01*
X101857903Y-82086337D01*
X101758035Y-81872171D01*
X101752425Y-81864158D01*
X101622494Y-81678597D01*
X101455402Y-81511506D01*
X101455396Y-81511501D01*
X101269842Y-81381575D01*
X101226217Y-81326998D01*
X101219023Y-81257500D01*
X101250546Y-81195145D01*
X101269842Y-81178425D01*
X101360262Y-81115112D01*
X101455401Y-81048495D01*
X101622495Y-80881401D01*
X101758035Y-80687830D01*
X101857903Y-80473663D01*
X101919063Y-80245408D01*
X101939659Y-80010000D01*
X101919063Y-79774592D01*
X101857903Y-79546337D01*
X101758035Y-79332171D01*
X101752425Y-79324158D01*
X101622494Y-79138597D01*
X101455402Y-78971506D01*
X101455396Y-78971501D01*
X101269842Y-78841575D01*
X101226217Y-78786998D01*
X101219023Y-78717500D01*
X101250546Y-78655145D01*
X101269842Y-78638425D01*
X101360262Y-78575112D01*
X101455401Y-78508495D01*
X101622495Y-78341401D01*
X101758035Y-78147830D01*
X101857903Y-77933663D01*
X101919063Y-77705408D01*
X101939659Y-77470000D01*
X101919063Y-77234592D01*
X101857903Y-77006337D01*
X101758035Y-76792171D01*
X101752425Y-76784158D01*
X101622494Y-76598597D01*
X101455402Y-76431506D01*
X101455396Y-76431501D01*
X101269842Y-76301575D01*
X101226217Y-76246998D01*
X101219023Y-76177500D01*
X101250546Y-76115145D01*
X101269842Y-76098425D01*
X101360262Y-76035112D01*
X101455401Y-75968495D01*
X101622495Y-75801401D01*
X101758035Y-75607830D01*
X101857903Y-75393663D01*
X101919063Y-75165408D01*
X101939659Y-74930000D01*
X101919063Y-74694592D01*
X101857903Y-74466337D01*
X101758035Y-74252171D01*
X101752425Y-74244158D01*
X101622494Y-74058597D01*
X101455402Y-73891506D01*
X101455396Y-73891501D01*
X101269842Y-73761575D01*
X101226217Y-73706998D01*
X101219023Y-73637500D01*
X101250546Y-73575145D01*
X101269842Y-73558425D01*
X101307422Y-73532111D01*
X101455401Y-73428495D01*
X101622495Y-73261401D01*
X101758035Y-73067830D01*
X101857903Y-72853663D01*
X101919063Y-72625408D01*
X101939659Y-72390000D01*
X101919063Y-72154592D01*
X101857903Y-71926337D01*
X101758035Y-71712171D01*
X101752425Y-71704158D01*
X101622494Y-71518597D01*
X101455402Y-71351506D01*
X101455396Y-71351501D01*
X101269842Y-71221575D01*
X101226217Y-71166998D01*
X101219023Y-71097500D01*
X101250546Y-71035145D01*
X101269842Y-71018425D01*
X101292026Y-71002891D01*
X101455401Y-70888495D01*
X101622495Y-70721401D01*
X101758035Y-70527830D01*
X101857903Y-70313663D01*
X101919063Y-70085408D01*
X101939659Y-69850000D01*
X101919063Y-69614592D01*
X101857903Y-69386337D01*
X101758035Y-69172171D01*
X101752425Y-69164158D01*
X101622494Y-68978597D01*
X101455402Y-68811506D01*
X101455396Y-68811501D01*
X101269842Y-68681575D01*
X101226217Y-68626998D01*
X101219023Y-68557500D01*
X101250546Y-68495145D01*
X101269842Y-68478425D01*
X101364909Y-68411858D01*
X101455401Y-68348495D01*
X101622495Y-68181401D01*
X101758035Y-67987830D01*
X101857903Y-67773663D01*
X101919063Y-67545408D01*
X101939659Y-67310000D01*
X101919063Y-67074592D01*
X101857903Y-66846337D01*
X101758035Y-66632171D01*
X101752425Y-66624158D01*
X101622494Y-66438597D01*
X101455402Y-66271506D01*
X101455396Y-66271501D01*
X101269842Y-66141575D01*
X101226217Y-66086998D01*
X101219023Y-66017500D01*
X101250546Y-65955145D01*
X101269842Y-65938425D01*
X101292026Y-65922891D01*
X101455401Y-65808495D01*
X101622495Y-65641401D01*
X101758035Y-65447830D01*
X101857903Y-65233663D01*
X101919063Y-65005408D01*
X101939659Y-64770000D01*
X101919063Y-64534592D01*
X101857903Y-64306337D01*
X101758035Y-64092171D01*
X101752425Y-64084158D01*
X101622494Y-63898597D01*
X101455402Y-63731506D01*
X101455396Y-63731501D01*
X101269842Y-63601575D01*
X101226217Y-63546998D01*
X101219023Y-63477500D01*
X101250546Y-63415145D01*
X101269842Y-63398425D01*
X101292026Y-63382891D01*
X101455401Y-63268495D01*
X101622495Y-63101401D01*
X101758035Y-62907830D01*
X101857903Y-62693663D01*
X101919063Y-62465408D01*
X101939659Y-62230000D01*
X101919063Y-61994592D01*
X101857903Y-61766337D01*
X101758035Y-61552171D01*
X101752731Y-61544595D01*
X101622494Y-61358597D01*
X101455402Y-61191506D01*
X101455396Y-61191501D01*
X101269842Y-61061575D01*
X101226217Y-61006998D01*
X101219023Y-60937500D01*
X101250546Y-60875145D01*
X101269842Y-60858425D01*
X101324313Y-60820284D01*
X101455401Y-60728495D01*
X101622495Y-60561401D01*
X101758035Y-60367830D01*
X101857903Y-60153663D01*
X101919063Y-59925408D01*
X101939659Y-59690000D01*
X101919063Y-59454592D01*
X101857903Y-59226337D01*
X101758035Y-59012171D01*
X101752425Y-59004158D01*
X101622494Y-58818597D01*
X101455402Y-58651506D01*
X101455396Y-58651501D01*
X101269842Y-58521575D01*
X101226217Y-58466998D01*
X101219023Y-58397500D01*
X101250546Y-58335145D01*
X101269842Y-58318425D01*
X101393635Y-58231744D01*
X101455401Y-58188495D01*
X101622495Y-58021401D01*
X101758035Y-57827830D01*
X101857903Y-57613663D01*
X101919063Y-57385408D01*
X101939659Y-57150000D01*
X101919063Y-56914592D01*
X101857903Y-56686337D01*
X101758035Y-56472171D01*
X101752425Y-56464158D01*
X101622494Y-56278597D01*
X101455402Y-56111506D01*
X101455396Y-56111501D01*
X101269842Y-55981575D01*
X101226217Y-55926998D01*
X101219023Y-55857500D01*
X101250546Y-55795145D01*
X101269842Y-55778425D01*
X101393635Y-55691744D01*
X101455401Y-55648495D01*
X101622495Y-55481401D01*
X101758035Y-55287830D01*
X101857903Y-55073663D01*
X101919063Y-54845408D01*
X101939659Y-54610000D01*
X101919063Y-54374592D01*
X101857903Y-54146337D01*
X101758035Y-53932171D01*
X101752425Y-53924158D01*
X101622494Y-53738597D01*
X101455402Y-53571506D01*
X101455396Y-53571501D01*
X101269842Y-53441575D01*
X101226217Y-53386998D01*
X101219023Y-53317500D01*
X101250546Y-53255145D01*
X101269842Y-53238425D01*
X101393635Y-53151744D01*
X101455401Y-53108495D01*
X101622495Y-52941401D01*
X101758035Y-52747830D01*
X101857903Y-52533663D01*
X101919063Y-52305408D01*
X101939659Y-52070000D01*
X101919063Y-51834592D01*
X101857903Y-51606337D01*
X101758035Y-51392171D01*
X101752425Y-51384158D01*
X101622494Y-51198597D01*
X101455402Y-51031506D01*
X101455396Y-51031501D01*
X101269842Y-50901575D01*
X101226217Y-50846998D01*
X101219023Y-50777500D01*
X101250546Y-50715145D01*
X101269842Y-50698425D01*
X101393635Y-50611744D01*
X101455401Y-50568495D01*
X101622495Y-50401401D01*
X101758035Y-50207830D01*
X101857903Y-49993663D01*
X101919063Y-49765408D01*
X101939659Y-49530000D01*
X101919063Y-49294592D01*
X101857903Y-49066337D01*
X101758035Y-48852171D01*
X101752425Y-48844158D01*
X101622494Y-48658597D01*
X101455402Y-48491506D01*
X101455396Y-48491501D01*
X101269842Y-48361575D01*
X101226217Y-48306998D01*
X101219023Y-48237500D01*
X101250546Y-48175145D01*
X101269842Y-48158425D01*
X101393635Y-48071744D01*
X101455401Y-48028495D01*
X101622495Y-47861401D01*
X101758035Y-47667830D01*
X101857903Y-47453663D01*
X101919063Y-47225408D01*
X101939659Y-46990000D01*
X101919063Y-46754592D01*
X101857903Y-46526337D01*
X101758035Y-46312171D01*
X101752425Y-46304158D01*
X101622494Y-46118597D01*
X101455402Y-45951506D01*
X101455396Y-45951501D01*
X101269842Y-45821575D01*
X101226217Y-45766998D01*
X101219023Y-45697500D01*
X101250546Y-45635145D01*
X101269842Y-45618425D01*
X101393635Y-45531744D01*
X101455401Y-45488495D01*
X101622495Y-45321401D01*
X101758035Y-45127830D01*
X101857903Y-44913663D01*
X101919063Y-44685408D01*
X101939659Y-44450000D01*
X101919063Y-44214592D01*
X101857903Y-43986337D01*
X101758035Y-43772171D01*
X101752425Y-43764158D01*
X101622494Y-43578597D01*
X101455402Y-43411506D01*
X101455396Y-43411501D01*
X101269842Y-43281575D01*
X101226217Y-43226998D01*
X101219023Y-43157500D01*
X101250546Y-43095145D01*
X101269842Y-43078425D01*
X101292026Y-43062891D01*
X101455401Y-42948495D01*
X101622495Y-42781401D01*
X101758035Y-42587830D01*
X101857903Y-42373663D01*
X101919063Y-42145408D01*
X101939659Y-41910000D01*
X101937652Y-41887066D01*
X101919063Y-41674596D01*
X101919063Y-41674592D01*
X101857903Y-41446337D01*
X101758035Y-41232171D01*
X101752425Y-41224158D01*
X101622494Y-41038597D01*
X101455402Y-40871506D01*
X101455395Y-40871501D01*
X101261834Y-40735967D01*
X101261830Y-40735965D01*
X101192434Y-40703605D01*
X101047663Y-40636097D01*
X101047659Y-40636096D01*
X101047655Y-40636094D01*
X100819413Y-40574938D01*
X100819403Y-40574936D01*
X100584001Y-40554341D01*
X100583999Y-40554341D01*
X100348596Y-40574936D01*
X100348586Y-40574938D01*
X100120344Y-40636094D01*
X100120335Y-40636098D01*
X99906171Y-40735964D01*
X99906169Y-40735965D01*
X99712597Y-40871505D01*
X99545505Y-41038597D01*
X99415575Y-41224158D01*
X99360998Y-41267783D01*
X99291500Y-41274977D01*
X99229145Y-41243454D01*
X99212425Y-41224158D01*
X99082494Y-41038597D01*
X98915402Y-40871506D01*
X98915395Y-40871501D01*
X98721834Y-40735967D01*
X98721830Y-40735965D01*
X98652434Y-40703605D01*
X98507663Y-40636097D01*
X98507659Y-40636096D01*
X98507655Y-40636094D01*
X98279413Y-40574938D01*
X98279403Y-40574936D01*
X98044001Y-40554341D01*
X98043999Y-40554341D01*
X97808596Y-40574936D01*
X97808586Y-40574938D01*
X97580344Y-40636094D01*
X97580335Y-40636098D01*
X97396905Y-40721633D01*
X97327827Y-40732125D01*
X97264043Y-40703605D01*
X97225804Y-40645129D01*
X97220500Y-40609251D01*
X97220500Y-40473519D01*
X97240185Y-40406480D01*
X97256819Y-40385838D01*
X98551838Y-39090819D01*
X98613161Y-39057334D01*
X98639519Y-39054500D01*
X108761501Y-39054500D01*
X108828540Y-39074185D01*
G37*
G04 #@! TD.AperFunction*
G04 #@! TA.AperFunction,Conductor*
G36*
X111502000Y-63580000D02*
G01*
X112026500Y-63580000D01*
X112093539Y-63599685D01*
X112139294Y-63652489D01*
X112150500Y-63704000D01*
X112150500Y-63745500D01*
X112130815Y-63812539D01*
X112078011Y-63858294D01*
X112026500Y-63869500D01*
X111919354Y-63869500D01*
X111886897Y-63876398D01*
X111734197Y-63908855D01*
X111734192Y-63908857D01*
X111556436Y-63988001D01*
X111487186Y-63997286D01*
X111455564Y-63988001D01*
X111277807Y-63908857D01*
X111277802Y-63908855D01*
X111132001Y-63877865D01*
X111092646Y-63869500D01*
X110903354Y-63869500D01*
X110870897Y-63876398D01*
X110718197Y-63908855D01*
X110718192Y-63908857D01*
X110545270Y-63985848D01*
X110545265Y-63985851D01*
X110392129Y-64097111D01*
X110315650Y-64182050D01*
X110256163Y-64218699D01*
X110186306Y-64217368D01*
X110128258Y-64178482D01*
X110100448Y-64114385D01*
X110099500Y-64099078D01*
X110099500Y-63679414D01*
X110119185Y-63612375D01*
X110171989Y-63566620D01*
X110241147Y-63556676D01*
X110266836Y-63563233D01*
X110294622Y-63573597D01*
X110294627Y-63573598D01*
X110354155Y-63579999D01*
X110354172Y-63580000D01*
X111002000Y-63580000D01*
X111002000Y-62665501D01*
X111109685Y-62714680D01*
X111216237Y-62730000D01*
X111287763Y-62730000D01*
X111394315Y-62714680D01*
X111502000Y-62665501D01*
X111502000Y-63580000D01*
G37*
G04 #@! TD.AperFunction*
M02*
